<?xml version="1.0" encoding="utf-8" standalone="no"?><!DOCTYPE svg PUBLIC "-//W3C//DTD SVG 20010904//EN" "http://www.w3.org/TR/2001/REC-SVG-20010904/DTD/svg10.dtd"><svg xmlns="http://www.w3.org/2000/svg" width="207" height="160" xmlns:xlink="http://www.w3.org/1999/xlink"><source><![CDATA[Server->Client: Close
]]></source><desc style="-webkit-tap-highlight-color: rgba(0, 0, 0, 0);">Created with Raphaël 2.1.2</desc><defs style="-webkit-tap-highlight-color: rgba(0, 0, 0, 0);"><path stroke-linecap="round" d="M5,0 0,2.5 5,5z" id="raphael-marker-block" style="-webkit-tap-highlight-color: rgba(0, 0, 0, 0);"></path><marker id="raphael-marker-endblock55-obj1413" markerHeight="5" markerWidth="5" orient="auto" refX="2.5" refY="2.5" style="-webkit-tap-highlight-color: rgba(0, 0, 0, 0);"><use xmlns:xlink="http://www.w3.org/1999/xlink" xlink:href="#raphael-marker-block" transform="rotate(180 2.5 2.5) scale(1,1)" stroke-width="1.0000" fill="#000" stroke="none" style="-webkit-tap-highlight-color: rgba(0, 0, 0, 0);"></use></marker></defs><path fill="#ffffff" stroke="#000000" d="M10,20C25.169498110752095,16.916803254674974,17.192609985582685,23.083196745325026,87.07991863312569,20C88.42404027297742,47.96976327915862,85.73579699327395,38.96056823024185,87.07991863312569,53.60304099629341C40.75847073841831,56.686237741618434,64.03344340721911,50.51984425096838,10,53.60304099629341C11.344121639851735,32.041568427574816,8.655878360148265,28.537434640155098,10,20" stroke-width="2" style="-webkit-tap-highlight-color: rgba(0, 0, 0, 0);"></path><rect x="20" y="30.59539704135658" width="57.079918633125686" height="12.412246913580244" rx="0" ry="0" fill="#ffffff" stroke="none" style="-webkit-tap-highlight-color: rgba(0, 0, 0, 0);"></rect><path fill="#000000" stroke="none" d="M20.569569418050058,42.63984148580103C20.258458306938948,42.50650815246769,19.591791640272284,41.839841485801024,20.347347195827837,41.66206370802325C23.369569418050062,40.99539704135658,25.636236084716728,40.23984148580102,27.191791640272285,39.66206370802325C29.45845830693895,38.817619263578806,28.92512497360562,38.150952596912134,27.325124973605618,37.306508152467686C25.280680529161174,36.19539704135658,23.680680529161172,35.97317481913436,21.947347195827838,34.46206370802325C20.48068052916117,33.17317481913436,19.725124973605617,32.906508152467694,20.836236084716724,31.88428593024547C22.48068052916117,30.99539704135658,26.125124973605615,30.59539704135658,28.880680529161168,30.59539704135658C30.16956941805006,30.59539704135658,30.83623608471673,30.862063708023246,30.83623608471673,31.395397041356578C30.436236084716725,32.55095259691214,28.08068052916117,31.662063708023247,26.214013862494504,32.0176192635788C25.45845830693895,32.10650815246769,23.014013862494508,32.284285930245474,22.125124973605615,32.72873037468992C23.76956941805006,35.08428593024547,27.991791640272282,35.306508152467686,30.125124973605615,37.66206370802325C30.48068052916117,38.062063708023246,30.614013862494502,38.55095259691214,30.614013862494502,38.99539704135658C30.436236084716725,39.750952596912136,29.591791640272284,40.55095259691214,28.747347195827842,40.50650815246769C27.814013862494505,41.2176192635788,27.991791640272282,40.55095259691214,26.569569418050058,41.26206370802325C25.947347195827838,41.57317481913436,24.747347195827835,41.66206370802325,24.08068052916117,42.150952596912134C22.969569418050057,42.0176192635788,21.902902751383394,42.59539704135658,20.569569418050058,42.63984148580103C20.569569418050058,42.63984148580103,20.569569418050058,42.63984148580103,20.569569418050058,42.63984148580103M30.569569418050065,40.23984148580102C30.569569418050065,37.66206370802325,32.83623608471673,37.08428593024547,35.45845830693895,36.95095259691213C36.92512497360562,36.906508152467694,37.45845830693895,37.66206370802325,38.08068052916117,38.50650815246769C38.12512497360562,39.12873037468991,38.16956941805006,40.23984148580102,37.76956941805007,40.37317481913436C36.702902751383405,40.284285930245474,34.52512497360563,40.95095259691213,33.36956941805006,40.86206370802324C33.280680529161174,40.95095259691213,33.280680529161174,40.99539704135658,33.280680529161174,40.99539704135658C33.280680529161174,41.12873037468991,33.814013862494505,41.35095259691214,34.92512497360562,41.66206370802325C35.85845830693896,41.66206370802325,37.99179164027228,42.062063708023246,36.3029027513834,42.63984148580103C35.902902751383394,43.26206370802325,34.791791640272294,42.906508152467694,33.814013862494505,42.906508152467694C32.61401386249452,42.684285930245466,30.569569418050065,41.66206370802325,30.569569418050065,40.23984148580102C30.569569418050065,40.23984148580102,30.569569418050065,40.23984148580102,30.569569418050065,40.23984148580102M35.85845830693896,38.23984148580102C34.88068052916118,38.32873037468991,32.83623608471673,38.46206370802325,32.96956941805007,39.39539704135658C34.036236084716734,39.306508152467686,35.902902751383394,39.6176192635788,36.48068052916118,39.12873037468991C36.25845830693896,38.55095259691214,36.43623608471674,38.55095259691214,35.85845830693896,38.23984148580102C35.85845830693896,38.23984148580102,35.85845830693896,38.23984148580102,35.85845830693896,38.23984148580102M49.23623608471674,37.57317481913436C49.325124973605625,38.55095259691214,49.45845830693895,38.0176192635788,48.61401386249452,38.59539704135658C45.36956941805006,38.284285930245474,41.23623608471674,37.57317481913436,40.88068052916118,41.08428593024547C40.52512497360563,41.35095259691214,40.74734719582784,41.97317481913436,40.52512497360563,42.684285930245466C39.23623608471674,43.12873037468991,38.74734719582784,42.284285930245474,39.05845830693896,40.63984148580103C39.325124973605625,39.26206370802325,39.36956941805006,37.57317481913436,40.48068052916118,38.19539704135658C43.05845830693896,36.55095259691214,43.414013862494514,36.32873037468991,48.25845830693896,37.35095259691214C48.39179164027229,37.57317481913436,48.92512497360562,37.528730374689914,49.23623608471674,37.57317481913436C49.23623608471674,37.57317481913436,49.23623608471674,37.57317481913436,49.23623608471674,37.57317481913436M49.72512497360562,37.12873037468991C49.72512497360562,37.12873037468991,52.036236084716734,40.284285930245474,52.036236084716734,40.284285930245474C53.902902751383394,39.57317481913436,55.14734719582785,37.88428593024547,57.54734719582784,37.395397041356574C57.76956941805007,37.57317481913436,57.902902751383394,37.70650815246769,57.902902751383394,37.88428593024547C57.54734719582784,38.72873037468992,57.72512497360562,38.23984148580102,56.436236084716725,39.306508152467686C56.436236084716725,39.35095259691214,56.39179164027229,39.439841485801026,56.39179164027229,39.528730374689914C53.68068052916118,41.528730374689914,52.25845830693895,42.55095259691214,52.08068052916117,42.55095259691214C50.3029027513834,41.88428593024547,49.85845830693896,39.35095259691214,49.05845830693896,38.10650815246769C49.325124973605625,37.48428593024547,49.5029027513834,37.12873037468991,49.72512497360562,37.12873037468991C49.72512497360562,37.12873037468991,49.72512497360562,37.12873037468991,49.72512497360562,37.12873037468991M58.34734719582784,40.23984148580102C58.34734719582784,37.66206370802325,60.6140138624945,37.08428593024547,63.23623608471672,36.95095259691213C64.70290275138339,36.906508152467694,65.23623608471672,37.66206370802325,65.85845830693894,38.50650815246769C65.9029027513834,39.12873037468991,65.94734719582783,40.23984148580102,65.54734719582784,40.37317481913436C64.48068052916118,40.284285930245474,62.3029027513834,40.95095259691213,61.147347195827834,40.86206370802324C61.058458306938945,40.95095259691213,61.058458306938945,40.99539704135658,61.058458306938945,40.99539704135658C61.058458306938945,41.12873037468991,61.59179164027228,41.35095259691214,62.70290275138339,41.66206370802325C63.63623608471673,41.66206370802325,65.76956941805005,42.062063708023246,64.08068052916117,42.63984148580103C63.680680529161165,43.26206370802325,62.569569418050065,42.906508152467694,61.59179164027228,42.906508152467694C60.39179164027229,42.684285930245466,58.34734719582784,41.66206370802325,58.34734719582784,40.23984148580102C58.34734719582784,40.23984148580102,58.34734719582784,40.23984148580102,58.34734719582784,40.23984148580102M63.63623608471673,38.23984148580102C62.658458306938954,38.32873037468991,60.6140138624945,38.46206370802325,60.74734719582784,39.39539704135658C61.814013862494505,39.306508152467686,63.680680529161165,39.6176192635788,64.25845830693895,39.12873037468991C64.03623608471673,38.55095259691214,64.21401386249451,38.55095259691214,63.63623608471673,38.23984148580102C63.63623608471673,38.23984148580102,63.63623608471673,38.23984148580102,63.63623608471673,38.23984148580102M77.01401386249451,37.57317481913436C77.1029027513834,38.55095259691214,77.23623608471672,38.0176192635788,76.39179164027229,38.59539704135658C73.14734719582783,38.284285930245474,69.01401386249451,37.57317481913436,68.65845830693895,41.08428593024547C68.3029027513834,41.35095259691214,68.52512497360561,41.97317481913436,68.3029027513834,42.684285930245466C67.01401386249451,43.12873037468991,66.52512497360561,42.284285930245474,66.83623608471673,40.63984148580103C67.1029027513834,39.26206370802325,67.14734719582783,37.57317481913436,68.25845830693895,38.19539704135658C70.83623608471673,36.55095259691214,71.19179164027229,36.32873037468991,76.03623608471673,37.35095259691214C76.16956941805006,37.57317481913436,76.70290275138339,37.528730374689914,77.01401386249451,37.57317481913436C77.01401386249451,37.57317481913436,77.01401386249451,37.57317481913436,77.01401386249451,37.57317481913436" style="-webkit-tap-highlight-color: rgba(0, 0, 0, 0);"></path><path fill="#ffffff" stroke="#000000" d="M10,107.28272396789546C26.555754238394172,104.19952722257044,61.43452736134445,110.36592071322049,87.07991863312569,107.28272396789546C85.73579699327395,135.89249808857556,88.42404027297742,107.9912595422806,87.07991863312569,140.88576496418887C87.57655984177173,137.80256821886383,33.27770273009965,143.9689617095139,10,140.88576496418887C11.344121639851735,132.97645192731628,8.655878360148265,118.50291163922867,10,107.28272396789546" stroke-width="2" style="-webkit-tap-highlight-color: rgba(0, 0, 0, 0);"></path><rect x="20" y="117.87812100925206" width="57.079918633125686" height="12.41224691358022" rx="0" ry="0" fill="#ffffff" stroke="none" style="-webkit-tap-highlight-color: rgba(0, 0, 0, 0);"></rect><path fill="#000000" stroke="none" d="M20.569569418050058,129.9225654536965C20.258458306938948,129.78923212036318,19.591791640272284,129.1225654536965,20.347347195827837,128.94478767591872C23.369569418050062,128.27812100925206,25.636236084716728,127.5225654536965,27.191791640272285,126.94478767591872C29.45845830693895,126.10034323147427,28.92512497360562,125.43367656480761,27.325124973605618,124.58923212036316C25.280680529161174,123.47812100925205,23.680680529161172,123.25589878702984,21.947347195827838,121.74478767591872C20.48068052916117,120.45589878702984,19.725124973605617,120.18923212036317,20.836236084716724,119.16700989814095C22.48068052916117,118.27812100925205,26.125124973605615,117.87812100925206,28.880680529161168,117.87812100925206C30.16956941805006,117.87812100925206,30.83623608471673,118.14478767591872,30.83623608471673,118.67812100925205C30.436236084716725,119.8336765648076,28.08068052916117,118.94478767591872,26.214013862494504,119.30034323147427C25.45845830693895,119.38923212036316,23.014013862494508,119.56700989814094,22.125124973605615,120.0114543425854C23.76956941805006,122.36700989814095,27.991791640272282,122.58923212036316,30.125124973605615,124.94478767591872C30.48068052916117,125.34478767591872,30.614013862494502,125.8336765648076,30.614013862494502,126.27812100925206C30.436236084716725,127.0336765648076,29.591791640272284,127.8336765648076,28.747347195827842,127.78923212036317C27.814013862494505,128.5003432314743,27.991791640272282,127.8336765648076,26.569569418050058,128.5447876759187C25.947347195827838,128.85589878702984,24.747347195827835,128.94478767591872,24.08068052916117,129.43367656480763C22.969569418050057,129.30034323147427,21.902902751383394,129.87812100925206,20.569569418050058,129.9225654536965C20.569569418050058,129.9225654536965,20.569569418050058,129.9225654536965,20.569569418050058,129.9225654536965M30.569569418050065,127.5225654536965C30.569569418050065,124.94478767591872,32.83623608471673,124.36700989814095,35.45845830693895,124.23367656480761C36.92512497360562,124.18923212036317,37.45845830693895,124.94478767591872,38.08068052916117,125.78923212036317C38.12512497360562,126.41145434258539,38.16956941805006,127.5225654536965,37.76956941805007,127.65589878702983C36.702902751383405,127.56700989814094,34.52512497360563,128.2336765648076,33.36956941805006,128.14478767591874C33.280680529161174,128.2336765648076,33.280680529161174,128.27812100925206,33.280680529161174,128.27812100925206C33.280680529161174,128.4114543425854,33.814013862494505,128.63367656480762,34.92512497360562,128.94478767591872C35.85845830693896,128.94478767591872,37.99179164027228,129.34478767591872,36.3029027513834,129.9225654536965C35.902902751383394,130.5447876759187,34.791791640272294,130.18923212036316,33.814013862494505,130.18923212036316C32.61401386249452,129.96700989814093,30.569569418050065,128.94478767591872,30.569569418050065,127.5225654536965C30.569569418050065,127.5225654536965,30.569569418050065,127.5225654536965,30.569569418050065,127.5225654536965M35.85845830693896,125.5225654536965C34.88068052916118,125.61145434258539,32.83623608471673,125.74478767591872,32.96956941805007,126.67812100925205C34.036236084716734,126.58923212036316,35.902902751383394,126.90034323147428,36.48068052916118,126.41145434258539C36.25845830693896,125.8336765648076,36.43623608471674,125.8336765648076,35.85845830693896,125.5225654536965C35.85845830693896,125.5225654536965,35.85845830693896,125.5225654536965,35.85845830693896,125.5225654536965M49.23623608471674,124.85589878702983C49.325124973605625,125.8336765648076,49.45845830693895,125.30034323147427,48.61401386249452,125.87812100925206C45.36956941805006,125.56700989814094,41.23623608471674,124.85589878702983,40.88068052916118,128.36700989814096C40.52512497360563,128.63367656480762,40.74734719582784,129.25589878702982,40.52512497360563,129.96700989814093C39.23623608471674,130.4114543425854,38.74734719582784,129.56700989814095,39.05845830693896,127.92256545369649C39.325124973605625,126.54478767591873,39.36956941805006,124.85589878702983,40.48068052916118,125.47812100925205C43.05845830693896,123.8336765648076,43.414013862494514,123.61145434258539,48.25845830693896,124.63367656480762C48.39179164027229,124.85589878702983,48.92512497360562,124.81145434258539,49.23623608471674,124.85589878702983C49.23623608471674,124.85589878702983,49.23623608471674,124.85589878702983,49.23623608471674,124.85589878702983M49.72512497360562,124.41145434258539C49.72512497360562,124.41145434258539,52.036236084716734,127.56700989814094,52.036236084716734,127.56700989814094C53.902902751383394,126.85589878702983,55.14734719582785,125.16700989814095,57.54734719582784,124.67812100925205C57.76956941805007,124.85589878702983,57.902902751383394,124.98923212036317,57.902902751383394,125.16700989814095C57.54734719582784,126.0114543425854,57.72512497360562,125.5225654536965,56.436236084716725,126.58923212036316C56.436236084716725,126.63367656480762,56.39179164027229,126.7225654536965,56.39179164027229,126.81145434258539C53.68068052916118,128.8114543425854,52.25845830693895,129.8336765648076,52.08068052916117,129.8336765648076C50.3029027513834,129.16700989814095,49.85845830693896,126.63367656480762,49.05845830693896,125.38923212036316C49.325124973605625,124.76700989814094,49.5029027513834,124.41145434258539,49.72512497360562,124.41145434258539C49.72512497360562,124.41145434258539,49.72512497360562,124.41145434258539,49.72512497360562,124.41145434258539M58.34734719582784,127.5225654536965C58.34734719582784,124.94478767591872,60.6140138624945,124.36700989814095,63.23623608471672,124.23367656480761C64.70290275138339,124.18923212036317,65.23623608471672,124.94478767591872,65.85845830693894,125.78923212036317C65.9029027513834,126.41145434258539,65.94734719582783,127.5225654536965,65.54734719582784,127.65589878702983C64.48068052916118,127.56700989814094,62.3029027513834,128.2336765648076,61.147347195827834,128.14478767591874C61.058458306938945,128.2336765648076,61.058458306938945,128.27812100925206,61.058458306938945,128.27812100925206C61.058458306938945,128.4114543425854,61.59179164027228,128.63367656480762,62.70290275138339,128.94478767591872C63.63623608471673,128.94478767591872,65.76956941805005,129.34478767591872,64.08068052916117,129.9225654536965C63.680680529161165,130.5447876759187,62.569569418050065,130.18923212036316,61.59179164027228,130.18923212036316C60.39179164027229,129.96700989814093,58.34734719582784,128.94478767591872,58.34734719582784,127.5225654536965C58.34734719582784,127.5225654536965,58.34734719582784,127.5225654536965,58.34734719582784,127.5225654536965M63.63623608471673,125.5225654536965C62.658458306938954,125.61145434258539,60.6140138624945,125.74478767591872,60.74734719582784,126.67812100925205C61.814013862494505,126.58923212036316,63.680680529161165,126.90034323147428,64.25845830693895,126.41145434258539C64.03623608471673,125.8336765648076,64.21401386249451,125.8336765648076,63.63623608471673,125.5225654536965C63.63623608471673,125.5225654536965,63.63623608471673,125.5225654536965,63.63623608471673,125.5225654536965M77.01401386249451,124.85589878702983C77.1029027513834,125.8336765648076,77.23623608471672,125.30034323147427,76.39179164027229,125.87812100925206C73.14734719582783,125.56700989814094,69.01401386249451,124.85589878702983,68.65845830693895,128.36700989814096C68.3029027513834,128.63367656480762,68.52512497360561,129.25589878702982,68.3029027513834,129.96700989814093C67.01401386249451,130.4114543425854,66.52512497360561,129.56700989814095,66.83623608471673,127.92256545369649C67.1029027513834,126.54478767591873,67.14734719582783,124.85589878702983,68.25845830693895,125.47812100925205C70.83623608471673,123.8336765648076,71.19179164027229,123.61145434258539,76.03623608471673,124.63367656480762C76.16956941805006,124.85589878702983,76.70290275138339,124.81145434258539,77.01401386249451,124.85589878702983C77.01401386249451,124.85589878702983,77.01401386249451,124.85589878702983,77.01401386249451,124.85589878702983" style="-webkit-tap-highlight-color: rgba(0, 0, 0, 0);"></path><path fill="none" stroke="#000000" d="M48.53995931656284,53.60304099629341C50.68714663542693,58.29311437579115,46.39277199769876,106.21254732520482,48.53995931656284,107.28272396789545" stroke-width="2" style="-webkit-tap-highlight-color: rgba(0, 0, 0, 0);"></path><path fill="#ffffff" stroke="#000000" d="M107.07991863312569,20C112.72853418893116,22.836464125057415,165.17289678878066,17.163535874942585,177.99152175956107,20C176.64740011970932,32.07024498721614,179.33564339941282,45.51032872669151,177.99152175956107,53.60304099629341C169.7037462419643,56.43950512135083,115.65248363081069,50.76657687123599,107.07991863312569,53.60304099629341C108.42404027297742,29.687421511687706,105.73579699327395,38.36631983396905,107.07991863312569,20" stroke-width="2" style="-webkit-tap-highlight-color: rgba(0, 0, 0, 0);"></path><rect x="117.07991863312571" y="29.999999999999996" width="50.91160312643538" height="13.603040996293405" rx="0" ry="0" fill="#ffffff" stroke="none" style="-webkit-tap-highlight-color: rgba(0, 0, 0, 0);"></rect><path fill="#000000" stroke="none" d="M118.96929953733888,38.301905193824275C118.43596620400552,41.635238527157604,123.23596620400554,41.67968297160205,126.34707731511665,41.45746074937983C126.34707731511665,41.45746074937983,132.7915217595611,41.013016304935384,132.7915217595611,41.013016304935384C133.19152175956108,41.10190519382427,133.19152175956108,41.235238527157605,133.19152175956108,41.81301630493538C131.54707731511664,42.613016304935385,129.4137439817833,43.05746074937983,128.34707731511665,42.79079408271316C127.54707731511664,43.235238527157605,126.25818842622775,43.235238527157605,125.19152175956108,43.235238527157605C123.90263287067219,43.235238527157605,122.16929953733887,43.27968297160205,120.52485509289443,42.74634963826872C120.25818842622775,42.701905193824274,120.08041064844997,42.613016304935385,120.08041064844997,42.390794082713164C118.6137439817833,41.81301630493538,117.94707731511664,40.924127416046495,117.14707731511666,39.76857186049094C116.3026328706722,34.701905193824274,123.63596620400554,33.10190519382427,127.10263287067221,31.90190519382427C128.65818842622775,31.90190519382427,131.0137439817833,30.524127416046497,131.50263287067222,32.21301630493538C131.45818842622776,33.50190519382427,129.32485509289444,32.83523852715761,128.12485509289442,33.45746074937983C125.68041064844999,33.81301630493538,123.0137439817833,35.013016304935384,120.34707731511665,36.613016304935385C119.76929953733887,36.96857186049094,119.32485509289444,37.546349638268715,118.96929953733888,38.301905193824275C118.96929953733888,38.301905193824275,118.96929953733888,38.301905193824275,118.96929953733888,38.301905193824275M136.34707731511665,30.035238527157603C137.28041064845,29.768571860490937,137.9915217595611,31.05746074937983,137.68041064845,32.47968297160205C137.23596620400554,34.74634963826872,136.43596620400552,38.47968297160205,136.43596620400552,41.72412741604649C136.43596620400552,42.21301630493539,136.7026328706722,43.324127416046494,135.85818842622777,43.36857186049094C134.56929953733888,43.14634963826872,134.52485509289443,41.235238527157605,134.74707731511666,39.67968297160205C134.74707731511666,39.67968297160205,135.9915217595611,31.81301630493538,135.9915217595611,31.81301630493538C135.72485509289442,31.05746074937983,136.03596620400555,30.524127416046497,136.34707731511665,30.035238527157603C136.34707731511665,30.035238527157603,136.34707731511665,30.035238527157603,136.34707731511665,30.035238527157603M140.7026328706722,34.07968297160205C141.0137439817833,34.87968297160205,141.1026328706722,35.10190519382427,140.48041064844998,35.76857186049094C139.45818842622776,35.50190519382427,139.54707731511664,34.96857186049094,139.9915217595611,34.168571860490935C140.08041064844997,34.168571860490935,140.34707731511665,34.12412741604649,140.7026328706722,34.07968297160205C140.7026328706722,34.07968297160205,140.7026328706722,34.07968297160205,140.7026328706722,34.07968297160205M139.45818842622776,43.05746074937983C138.65818842622775,42.1241274160465,139.1026328706722,39.81301630493538,139.4137439817833,38.34634963826872C139.72485509289442,37.90190519382427,140.3026328706722,37.99079408271316,140.43596620400552,38.613016304935385C140.3915217595611,40.21301630493539,140.74707731511666,41.81301630493538,140.34707731511665,43.235238527157605C139.9915217595611,43.324127416046494,139.9915217595611,43.235238527157605,139.45818842622776,43.05746074937983C139.45818842622776,43.05746074937983,139.45818842622776,43.05746074937983,139.45818842622776,43.05746074937983M141.68041064845,40.83523852715761C141.68041064845,38.25746074937983,143.94707731511667,37.67968297160205,146.56929953733888,37.546349638268715C148.03596620400555,37.50190519382427,148.56929953733888,38.25746074937983,149.1915217595611,39.10190519382427C149.23596620400554,39.72412741604649,149.28041064845,40.83523852715761,148.88041064844998,40.96857186049094C147.81374398178332,40.87968297160205,145.63596620400554,41.546349638268715,144.48041064845,41.45746074937983C144.3915217595611,41.546349638268715,144.3915217595611,41.59079408271316,144.3915217595611,41.59079408271316C144.3915217595611,41.72412741604649,144.92485509289443,41.94634963826872,146.03596620400555,42.25746074937983C146.96929953733888,42.25746074937983,149.1026328706722,42.65746074937983,147.4137439817833,43.235238527157605C147.01374398178334,43.857460749379825,145.90263287067222,43.50190519382427,144.92485509289443,43.50190519382427C143.72485509289444,43.27968297160205,141.68041064845,42.25746074937983,141.68041064845,40.83523852715761C141.68041064845,40.83523852715761,141.68041064845,40.83523852715761,141.68041064845,40.83523852715761M146.96929953733888,38.83523852715761C145.9915217595611,38.924127416046495,143.94707731511667,39.05746074937983,144.08041064845,39.990794082713165C145.14707731511666,39.90190519382427,147.01374398178334,40.21301630493539,147.59152175956112,39.72412741604649C147.3692995373389,39.14634963826872,147.54707731511667,39.14634963826872,146.96929953733888,38.83523852715761C146.96929953733888,38.83523852715761,146.96929953733888,38.83523852715761,146.96929953733888,38.83523852715761M154.96929953733886,37.324127416046494C156.6137439817833,37.59079408271316,157.72485509289442,39.72412741604649,157.72485509289442,42.25746074937983C157.72485509289442,43.67968297160205,157.0137439817833,43.36857186049094,156.34707731511665,43.013016304935384C155.54707731511664,41.67968297160205,156.12485509289442,41.013016304935384,155.36929953733886,39.235238527157605C153.72485509289442,38.65746074937983,152.21374398178332,41.67968297160205,151.28041064845,42.1241274160465C150.3915217595611,41.990794082713165,149.54707731511664,40.390794082713164,150.34707731511665,39.36857186049094C150.43596620400552,38.83523852715761,150.48041064844998,38.701905193824274,150.83596620400553,38.0352385271576C151.36929953733886,37.67968297160205,151.72485509289442,38.5241274160465,152.12485509289442,38.56857186049094C152.12485509289442,38.56857186049094,154.96929953733886,37.324127416046494,154.96929953733886,37.324127416046494M161.9915217595611,36.701905193824274C162.43596620400555,34.87968297160205,163.54707731511667,31.101905193824273,164.88041064844998,30.74634963826872C165.05818842622776,30.790794082713163,165.94707731511664,31.59079408271316,165.3692995373389,32.34634963826872C164.61374398178333,33.324127416046494,164.08041064845,34.87968297160205,163.76929953733887,36.96857186049094C164.92485509289443,37.324127416046494,165.9915217595611,36.65746074937983,167.01374398178334,37.19079408271316C167.63596620400554,37.19079408271316,167.9915217595611,37.324127416046494,167.9915217595611,37.59079408271316C167.94707731511667,38.43523852715761,166.03596620400555,38.390794082713164,165.45818842622776,38.613016304935385C165.01374398178334,38.65746074937983,163.4137439817833,38.613016304935385,163.05818842622776,39.05746074937983C162.61374398178333,40.1241274160465,162.88041064844998,42.03523852715761,162.16929953733887,43.41301630493538C161.23596620400554,43.27968297160205,161.01374398178334,43.45746074937983,161.01374398178334,42.5241274160465C161.01374398178334,42.1241274160465,161.1026328706722,40.924127416046495,161.3692995373389,38.924127416046495C160.7026328706722,38.34634963826872,157.76929953733887,39.324127416046494,157.94707731511664,37.72412741604649C158.12485509289442,36.0352385271576,161.1026328706722,37.99079408271316,161.9915217595611,36.701905193824274C161.9915217595611,36.701905193824274,161.9915217595611,36.701905193824274,161.9915217595611,36.701905193824274" style="-webkit-tap-highlight-color: rgba(0, 0, 0, 0);"></path><path fill="#ffffff" stroke="#000000" d="M107.07991863312569,107.28272396789546C162.15875507637057,104.44625984283805,118.60675099124394,110.11918809295288,177.99152175956107,107.28272396789546C176.64740011970932,117.28673854907045,179.33564339941282,113.4072591081897,177.99152175956107,140.88576496418887C110.43508055130046,143.72222908924627,168.23285295266967,138.04930083913146,107.07991863312569,140.88576496418887C108.42404027297742,131.5561012816556,105.73579699327395,113.40227362956541,107.07991863312569,107.28272396789546" stroke-width="2" style="-webkit-tap-highlight-color: rgba(0, 0, 0, 0);"></path><rect x="117.07991863312571" y="117.28272396789545" width="50.91160312643538" height="13.603040996293416" rx="0" ry="0" fill="#ffffff" stroke="none" style="-webkit-tap-highlight-color: rgba(0, 0, 0, 0);"></rect><path fill="#000000" stroke="none" d="M118.96929953733888,125.58462916171975C118.43596620400552,128.91796249505308,123.23596620400554,128.96240693949753,126.34707731511665,128.7401847172753C126.34707731511665,128.7401847172753,132.7915217595611,128.29574027283087,132.7915217595611,128.29574027283087C133.19152175956108,128.38462916171974,133.19152175956108,128.51796249505307,133.19152175956108,129.09574027283085C131.54707731511664,129.89574027283084,129.4137439817833,130.3401847172753,128.34707731511665,130.07351805060864C127.54707731511664,130.51796249505307,126.25818842622775,130.51796249505307,125.19152175956108,130.51796249505307C123.90263287067219,130.51796249505307,122.16929953733887,130.56240693949752,120.52485509289443,130.0290736061642C120.25818842622775,129.98462916171974,120.08041064844997,129.89574027283084,120.08041064844997,129.67351805060864C118.6137439817833,129.09574027283085,117.94707731511664,128.20685138394197,117.14707731511666,127.05129582838642C116.3026328706722,121.98462916171974,123.63596620400554,120.38462916171974,127.10263287067221,119.18462916171974C128.65818842622775,119.18462916171974,131.0137439817833,117.80685138394196,131.50263287067222,119.49574027283086C131.45818842622776,120.78462916171975,129.32485509289444,120.11796249505308,128.12485509289442,120.7401847172753C125.68041064844999,121.09574027283085,123.0137439817833,122.29574027283086,120.34707731511665,123.89574027283085C119.76929953733887,124.2512958283864,119.32485509289444,124.82907360616419,118.96929953733888,125.58462916171975C118.96929953733888,125.58462916171975,118.96929953733888,125.58462916171975,118.96929953733888,125.58462916171975M136.34707731511665,117.31796249505308C137.28041064845,117.05129582838642,137.9915217595611,118.34018471727529,137.68041064845,119.76240693949752C137.23596620400554,122.02907360616419,136.43596620400552,125.76240693949752,136.43596620400552,129.00685138394198C136.43596620400552,129.49574027283086,136.7026328706722,130.60685138394194,135.85818842622777,130.65129582838642C134.56929953733888,130.4290736061642,134.52485509289443,128.51796249505307,134.74707731511666,126.96240693949753C134.74707731511666,126.96240693949753,135.9915217595611,119.09574027283085,135.9915217595611,119.09574027283085C135.72485509289442,118.34018471727529,136.03596620400555,117.80685138394196,136.34707731511665,117.31796249505308C136.34707731511665,117.31796249505308,136.34707731511665,117.31796249505308,136.34707731511665,117.31796249505308M140.7026328706722,121.36240693949752C141.0137439817833,122.16240693949752,141.1026328706722,122.38462916171974,140.48041064844998,123.05129582838642C139.45818842622776,122.78462916171975,139.54707731511664,122.2512958283864,139.9915217595611,121.4512958283864C140.08041064844997,121.4512958283864,140.34707731511665,121.40685138394197,140.7026328706722,121.36240693949752C140.7026328706722,121.36240693949752,140.7026328706722,121.36240693949752,140.7026328706722,121.36240693949752M139.45818842622776,130.3401847172753C138.65818842622775,129.40685138394196,139.1026328706722,127.09574027283085,139.4137439817833,125.62907360616418C139.72485509289442,125.18462916171974,140.3026328706722,125.27351805060863,140.43596620400552,125.89574027283085C140.3915217595611,127.49574027283086,140.74707731511666,129.09574027283085,140.34707731511665,130.51796249505307C139.9915217595611,130.60685138394194,139.9915217595611,130.51796249505307,139.45818842622776,130.3401847172753C139.45818842622776,130.3401847172753,139.45818842622776,130.3401847172753,139.45818842622776,130.3401847172753M141.68041064845,128.11796249505306C141.68041064845,125.5401847172753,143.94707731511667,124.96240693949753,146.56929953733888,124.82907360616419C148.03596620400555,124.78462916171975,148.56929953733888,125.5401847172753,149.1915217595611,126.38462916171974C149.23596620400554,127.00685138394196,149.28041064845,128.11796249505306,148.88041064844998,128.2512958283864C147.81374398178332,128.16240693949752,145.63596620400554,128.82907360616417,144.48041064845,128.7401847172753C144.3915217595611,128.82907360616417,144.3915217595611,128.87351805060865,144.3915217595611,128.87351805060865C144.3915217595611,129.00685138394198,144.92485509289443,129.2290736061642,146.03596620400555,129.54018471727528C146.96929953733888,129.54018471727528,149.1026328706722,129.94018471727532,147.4137439817833,130.51796249505307C147.01374398178334,131.1401847172753,145.90263287067222,130.78462916171975,144.92485509289443,130.78462916171975C143.72485509289444,130.56240693949752,141.68041064845,129.54018471727528,141.68041064845,128.11796249505306C141.68041064845,128.11796249505306,141.68041064845,128.11796249505306,141.68041064845,128.11796249505306M146.96929953733888,126.11796249505308C145.9915217595611,126.20685138394197,143.94707731511667,126.34018471727529,144.08041064845,127.27351805060863C145.14707731511666,127.18462916171974,147.01374398178334,127.49574027283086,147.59152175956112,127.00685138394196C147.3692995373389,126.42907360616418,147.54707731511667,126.42907360616418,146.96929953733888,126.11796249505308C146.96929953733888,126.11796249505308,146.96929953733888,126.11796249505308,146.96929953733888,126.11796249505308M154.96929953733886,124.60685138394197C156.6137439817833,124.87351805060864,157.72485509289442,127.00685138394196,157.72485509289442,129.54018471727528C157.72485509289442,130.96240693949753,157.0137439817833,130.65129582838642,156.34707731511665,130.29574027283087C155.54707731511664,128.96240693949753,156.12485509289442,128.29574027283087,155.36929953733886,126.51796249505307C153.72485509289442,125.9401847172753,152.21374398178332,128.96240693949753,151.28041064845,129.40685138394196C150.3915217595611,129.27351805060863,149.54707731511664,127.67351805060864,150.34707731511665,126.65129582838641C150.43596620400552,126.11796249505308,150.48041064844998,125.98462916171974,150.83596620400553,125.31796249505308C151.36929953733886,124.96240693949753,151.72485509289442,125.80685138394196,152.12485509289442,125.85129582838641C152.12485509289442,125.85129582838641,154.96929953733886,124.60685138394197,154.96929953733886,124.60685138394197M161.9915217595611,123.98462916171974C162.43596620400555,122.16240693949752,163.54707731511667,118.38462916171974,164.88041064844998,118.02907360616419C165.05818842622776,118.07351805060863,165.94707731511664,118.87351805060862,165.3692995373389,119.62907360616418C164.61374398178333,120.60685138394197,164.08041064845,122.16240693949752,163.76929953733887,124.2512958283864C164.92485509289443,124.60685138394197,165.9915217595611,123.9401847172753,167.01374398178334,124.47351805060863C167.63596620400554,124.47351805060863,167.9915217595611,124.60685138394197,167.9915217595611,124.87351805060864C167.94707731511667,125.71796249505307,166.03596620400555,125.67351805060864,165.45818842622776,125.89574027283085C165.01374398178334,125.9401847172753,163.4137439817833,125.89574027283085,163.05818842622776,126.34018471727529C162.61374398178333,127.40685138394197,162.88041064844998,129.31796249505308,162.16929953733887,130.69574027283085C161.23596620400554,130.56240693949752,161.01374398178334,130.7401847172753,161.01374398178334,129.80685138394196C161.01374398178334,129.40685138394196,161.1026328706722,128.20685138394197,161.3692995373389,126.20685138394197C160.7026328706722,125.62907360616418,157.76929953733887,126.60685138394197,157.94707731511664,125.00685138394196C158.12485509289442,123.31796249505308,161.1026328706722,125.27351805060863,161.9915217595611,123.98462916171974C161.9915217595611,123.98462916171974,161.9915217595611,123.98462916171974,161.9915217595611,123.98462916171974" style="-webkit-tap-highlight-color: rgba(0, 0, 0, 0);"></path><path fill="none" stroke="#000000" d="M142.5357201963434,53.60304099629341C140.38853287747932,100.00187482236679,144.68290751520746,64.99383058329543,142.5357201963434,107.28272396789545" stroke-width="2" style="-webkit-tap-highlight-color: rgba(0, 0, 0, 0);"></path><rect x="72.2457614036347" y="71.76319951049237" width="46.58415670563686" height="13.679682971602062" rx="0" ry="0" fill="#ffffff" stroke="none" style="-webkit-tap-highlight-color: rgba(0, 0, 0, 0);"></rect><path fill="#000000" stroke="none" d="M74.13514230784784,80.06510470431665C73.60180897451451,83.39843803764998,78.40180897451452,83.44288248209443,81.51292008562564,83.2206602598722C81.51292008562564,83.2206602598722,87.95736453007007,82.77621581542776,87.95736453007007,82.77621581542776C88.35736453007007,82.86510470431665,88.35736453007007,82.99843803764998,88.35736453007007,83.57621581542776C86.71292008562563,84.37621581542776,84.5795867522923,84.8206602598722,83.51292008562564,84.55399359320553C82.71292008562563,84.99843803764998,81.42403119673673,84.99843803764998,80.35736453007007,84.99843803764998C79.06847564118118,84.99843803764998,77.33514230784786,85.04288248209443,75.69069786340341,84.5095491487611C75.42403119673673,84.46510470431664,75.24625341895896,84.37621581542776,75.24625341895896,84.15399359320554C73.77958675229229,83.57621581542776,73.11292008562563,82.68732692653887,72.31292008562562,81.53177137098332C71.46847564118119,76.46510470431664,78.80180897451453,74.86510470431665,82.2684756411812,73.66510470431665C83.82403119673674,73.66510470431665,86.1795867522923,72.28732692653887,86.66847564118117,73.97621581542776C86.62403119673675,75.26510470431666,84.4906978634034,74.59843803764998,83.29069786340341,75.2206602598722C80.84625341895895,75.57621581542776,78.1795867522923,76.77621581542776,75.51292008562564,78.37621581542776C74.93514230784785,78.73177137098331,74.4906978634034,79.30954914876109,74.13514230784784,80.06510470431665C74.13514230784784,80.06510470431665,74.13514230784784,80.06510470431665,74.13514230784784,80.06510470431665M91.51292008562564,71.79843803764999C92.44625341895895,71.53177137098332,93.15736453007008,72.82066025987221,92.84625341895895,74.24288248209443C92.40180897451452,76.5095491487611,91.60180897451451,80.24288248209443,91.60180897451451,83.48732692653887C91.60180897451451,83.97621581542776,91.86847564118119,85.08732692653886,91.02403119673673,85.13177137098332C89.73514230784784,84.90954914876109,89.69069786340341,82.99843803764998,89.91292008562561,81.44288248209443C89.91292008562561,81.44288248209443,91.15736453007008,73.57621581542776,91.15736453007008,73.57621581542776C90.8906978634034,72.82066025987221,91.2018089745145,72.28732692653887,91.51292008562564,71.79843803764999C91.51292008562564,71.79843803764999,91.51292008562564,71.79843803764999,91.51292008562564,71.79843803764999M97.91292008562561,78.95399359320554C100.22403119673675,77.88732692653888,102.53514230784785,79.75399359320554,102.53514230784785,81.75399359320554C102.53514230784785,84.37621581542776,99.60180897451451,84.73177137098331,97.46847564118119,85.44288248209443C95.15736453007008,85.35399359320554,92.35736453007007,83.2206602598722,93.91292008562561,80.77621581542776C94.93514230784785,79.97621581542776,96.22403119673675,79.2206602598722,97.91292008562561,78.95399359320554C97.91292008562561,78.95399359320554,97.91292008562561,78.95399359320554,97.91292008562561,78.95399359320554M95.11292008562563,82.46510470431664C95.82403119673674,84.86510470431665,100.66847564118117,83.17621581542777,100.93514230784785,81.44288248209443C100.40180897451452,78.8206602598722,95.2018089745145,81.08732692653886,95.11292008562563,82.46510470431664C95.11292008562563,82.46510470431664,95.11292008562563,82.46510470431664,95.11292008562563,82.46510470431664M109.60180897451451,78.42066025987221C110.44625341895897,78.46510470431664,110.80180897451453,79.48732692653887,110.1795867522923,79.84288248209442C110.00180897451452,79.88732692653888,109.20180897451453,80.0206602598722,107.82403119673674,80.15399359320554C107.11292008562563,80.5095491487611,106.84625341895898,80.06510470431665,106.09069786340342,80.55399359320553C107.11292008562563,81.48732692653887,110.04625341895897,81.26510470431666,110.35736453007007,83.30954914876109C109.77958675229229,84.37621581542776,106.5795867522923,84.86510470431665,104.84625341895898,85.17621581542777C104.44625341895897,85.04288248209443,104.04625341895897,85.04288248209443,103.64625341895896,85.17621581542777C103.37958675229231,84.99843803764998,102.71292008562563,84.46510470431664,103.29069786340341,84.06510470431665C104.62403119673675,83.79843803764999,106.9795867522923,83.48732692653887,107.82403119673674,82.99843803764998C107.06847564118118,82.28732692653887,104.2684756411812,81.53177137098332,103.51292008562564,80.86510470431665C103.37958675229231,80.77621581542776,103.33514230784786,80.55399359320553,103.33514230784786,80.19843803764998C103.06847564118118,79.93177137098331,103.46847564118119,79.62066025987221,104.00180897451452,79.39843803764998C104.9795867522923,78.99843803764998,108.1795867522923,78.37621581542776,109.60180897451451,78.42066025987221C109.60180897451451,78.42066025987221,109.60180897451451,78.42066025987221,109.60180897451451,78.42066025987221M111.29069786340341,82.59843803764998C111.29069786340341,80.0206602598722,113.55736453007009,79.44288248209443,116.1795867522923,79.30954914876109C117.64625341895896,79.26510470431664,118.1795867522923,80.0206602598722,118.80180897451453,80.86510470431665C118.84625341895895,81.48732692653887,118.8906978634034,82.59843803764998,118.4906978634034,82.73177137098331C117.42403119673673,82.64288248209442,115.24625341895896,83.30954914876109,114.09069786340342,83.2206602598722C114.00180897451452,83.30954914876109,114.00180897451452,83.35399359320554,114.00180897451452,83.35399359320554C114.00180897451452,83.48732692653887,114.53514230784785,83.7095491487611,115.64625341895896,84.0206602598722C116.5795867522923,84.0206602598722,118.71292008562563,84.42066025987221,117.02403119673676,84.99843803764998C116.62403119673675,85.62066025987221,115.51292008562564,85.26510470431666,114.53514230784785,85.26510470431666C113.33514230784786,85.04288248209443,111.29069786340341,84.0206602598722,111.29069786340341,82.59843803764998C111.29069786340341,82.59843803764998,111.29069786340341,82.59843803764998,111.29069786340341,82.59843803764998M116.5795867522923,80.59843803764998C115.60180897451451,80.68732692653887,113.55736453007009,80.8206602598722,113.69069786340341,81.75399359320554C114.75736453007008,81.66510470431665,116.62403119673675,81.97621581542776,117.20180897451453,81.48732692653887C116.9795867522923,80.90954914876109,117.15736453007008,80.90954914876109,116.5795867522923,80.59843803764998C116.5795867522923,80.59843803764998,116.5795867522923,80.59843803764998,116.5795867522923,80.59843803764998" style="-webkit-tap-highlight-color: rgba(0, 0, 0, 0);"></path><path fill="none" stroke="#000000" d="M48.53995931656284,87.28272396789546C112.82031025831347,83.6022942486818,63.096557635994614,90.72998193121657,137.5417642755579,87.50604740499668" stroke-width="2" marker-end="url(#raphael-marker-endblock55-obj1413)" stroke-dasharray="0" style="-webkit-tap-highlight-color: rgba(0, 0, 0, 0);"></path></svg>