<?xml version="1.0" encoding="utf-8" standalone="no"?><!DOCTYPE svg PUBLIC "-//W3C//DTD SVG 20010904//EN" "http://www.w3.org/TR/2001/REC-SVG-20010904/DTD/svg10.dtd"><svg xmlns="http://www.w3.org/2000/svg" width="207" height="194" xmlns:xlink="http://www.w3.org/1999/xlink"><source><![CDATA[Client->Server: Close
Server->Client: ACK
]]></source><desc style="-webkit-tap-highlight-color: rgba(0, 0, 0, 0);">Created with Raphaël 2.1.2</desc><defs style="-webkit-tap-highlight-color: rgba(0, 0, 0, 0);"><path stroke-linecap="round" d="M5,0 0,2.5 5,5z" id="raphael-marker-block" style="-webkit-tap-highlight-color: rgba(0, 0, 0, 0);"></path><marker id="raphael-marker-endblock55-obj1044" markerHeight="5" markerWidth="5" orient="auto" refX="2.5" refY="2.5" style="-webkit-tap-highlight-color: rgba(0, 0, 0, 0);"><use xmlns:xlink="http://www.w3.org/1999/xlink" xlink:href="#raphael-marker-block" transform="rotate(180 2.5 2.5) scale(1,1)" stroke-width="1.0000" fill="#000" stroke="none" style="-webkit-tap-highlight-color: rgba(0, 0, 0, 0);"></use></marker><marker id="raphael-marker-endblock55-obj1047" markerHeight="5" markerWidth="5" orient="auto" refX="2.5" refY="2.5" style="-webkit-tap-highlight-color: rgba(0, 0, 0, 0);"><use xmlns:xlink="http://www.w3.org/1999/xlink" xlink:href="#raphael-marker-block" transform="rotate(180 2.5 2.5) scale(1,1)" stroke-width="1.0000" fill="#000" stroke="none" style="-webkit-tap-highlight-color: rgba(0, 0, 0, 0);"></use></marker></defs><path fill="#ffffff" stroke="#000000" d="M10,20C35.64262350299298,22.836464125057415,8.59922335734585,17.163535874942585,80.91160312643538,20C82.25572476628712,48.29497039735559,79.56748148658365,22.296382438416614,80.91160312643538,53.60304099629341C76.90492936824715,56.43950512135083,73.43711289745339,50.76657687123599,10,53.60304099629341C11.344121639851735,46.28755477118371,8.655878360148265,20.794082569299043,10,20" stroke-width="2" style="-webkit-tap-highlight-color: rgba(0, 0, 0, 0);"></path><rect x="20" y="29.999999999999996" width="50.91160312643538" height="13.603040996293405" rx="0" ry="0" fill="#ffffff" stroke="none" style="-webkit-tap-highlight-color: rgba(0, 0, 0, 0);"></rect><path fill="#000000" stroke="none" d="M21.88938090421316,38.301905193824275C21.356047570879827,41.635238527157604,26.156047570879824,41.67968297160205,29.26715868199094,41.45746074937983C29.26715868199094,41.45746074937983,35.71160312643538,41.013016304935384,35.71160312643538,41.013016304935384C36.111603126435384,41.10190519382427,36.111603126435384,41.235238527157605,36.111603126435384,41.81301630493538C34.46715868199094,42.613016304935385,32.3338253486576,43.05746074937983,31.26715868199094,42.79079408271316C30.46715868199094,43.235238527157605,29.17826979310205,43.235238527157605,28.11160312643538,43.235238527157605C26.822714237546496,43.235238527157605,25.08938090421316,43.27968297160205,23.444936459768716,42.74634963826872C23.17826979310205,42.701905193824274,23.000492015324273,42.613016304935385,23.000492015324273,42.390794082713164C21.533825348657604,41.81301630493538,20.86715868199094,40.924127416046495,20.067158681990936,39.76857186049094C19.222714237546494,34.701905193824274,26.55604757087983,33.10190519382427,30.02271423754649,31.90190519382427C31.57826979310205,31.90190519382427,33.93382534865761,30.524127416046497,34.42271423754649,32.21301630493538C34.37826979310205,33.50190519382427,32.24493645976871,32.83523852715761,31.044936459768717,33.45746074937983C28.600492015324267,33.81301630493538,25.933825348657603,35.013016304935384,23.26715868199094,36.613016304935385C22.689380904213163,36.96857186049094,22.244936459768713,37.546349638268715,21.88938090421316,38.301905193824275C21.88938090421316,38.301905193824275,21.88938090421316,38.301905193824275,21.88938090421316,38.301905193824275M39.267158681990935,30.035238527157603C40.20049201532426,29.768571860490937,40.91160312643538,31.05746074937983,40.600492015324264,32.47968297160205C40.15604757087982,34.74634963826872,39.356047570879824,38.47968297160205,39.356047570879824,41.72412741604649C39.356047570879824,42.21301630493539,39.62271423754649,43.324127416046494,38.77826979310204,43.36857186049094C37.48938090421315,43.14634963826872,37.44493645976871,41.235238527157605,37.66715868199093,39.67968297160205C37.66715868199093,39.67968297160205,38.91160312643538,31.81301630493538,38.91160312643538,31.81301630493538C38.644936459768715,31.05746074937983,38.95604757087982,30.524127416046497,39.267158681990935,30.035238527157603C39.267158681990935,30.035238527157603,39.267158681990935,30.035238527157603,39.267158681990935,30.035238527157603M43.62271423754649,34.07968297160205C43.93382534865759,34.87968297160205,44.02271423754648,35.10190519382427,43.40049201532426,35.76857186049094C42.378269793102035,35.50190519382427,42.467158681990924,34.96857186049094,42.91160312643538,34.168571860490935C43.00049201532427,34.168571860490935,43.267158681990935,34.12412741604649,43.62271423754649,34.07968297160205C43.62271423754649,34.07968297160205,43.62271423754649,34.07968297160205,43.62271423754649,34.07968297160205M42.378269793102035,43.05746074937983C41.57826979310204,42.1241274160465,42.02271423754648,39.81301630493538,42.3338253486576,38.34634963826872C42.6449364597687,37.90190519382427,43.222714237546484,37.99079408271316,43.356047570879824,38.613016304935385C43.31160312643537,40.21301630493539,43.66715868199093,41.81301630493538,43.267158681990935,43.235238527157605C42.91160312643538,43.324127416046494,42.91160312643538,43.235238527157605,42.378269793102035,43.05746074937983C42.378269793102035,43.05746074937983,42.378269793102035,43.05746074937983,42.378269793102035,43.05746074937983M44.600492015324264,40.83523852715761C44.600492015324264,38.25746074937983,46.86715868199093,37.67968297160205,49.48938090421315,37.546349638268715C50.95604757087982,37.50190519382427,51.48938090421315,38.25746074937983,52.11160312643537,39.10190519382427C52.15604757087982,39.72412741604649,52.20049201532426,40.83523852715761,51.80049201532427,40.96857186049094C50.733825348657604,40.87968297160205,48.55604757087983,41.546349638268715,47.40049201532426,41.45746074937983C47.31160312643537,41.546349638268715,47.31160312643537,41.59079408271316,47.31160312643537,41.59079408271316C47.31160312643537,41.72412741604649,47.844936459768704,41.94634963826872,48.95604757087982,42.25746074937983C49.889380904213155,42.25746074937983,52.02271423754648,42.65746074937983,50.3338253486576,43.235238527157605C49.93382534865759,43.857460749379825,48.82271423754649,43.50190519382427,47.844936459768704,43.50190519382427C46.644936459768715,43.27968297160205,44.600492015324264,42.25746074937983,44.600492015324264,40.83523852715761C44.600492015324264,40.83523852715761,44.600492015324264,40.83523852715761,44.600492015324264,40.83523852715761M49.889380904213155,38.83523852715761C48.91160312643538,38.924127416046495,46.86715868199093,39.05746074937983,47.00049201532427,39.990794082713165C48.06715868199093,39.90190519382427,49.93382534865759,40.21301630493539,50.511603126435375,39.72412741604649C50.28938090421315,39.14634963826872,50.467158681990924,39.14634963826872,49.889380904213155,38.83523852715761C49.889380904213155,38.83523852715761,49.889380904213155,38.83523852715761,49.889380904213155,38.83523852715761M57.889380904213155,37.324127416046494C59.5338253486576,37.59079408271316,60.6449364597687,39.72412741604649,60.6449364597687,42.25746074937983C60.6449364597687,43.67968297160205,59.93382534865759,43.36857186049094,59.267158681990935,43.013016304935384C58.467158681990924,41.67968297160205,59.04493645976871,41.013016304935384,58.28938090421315,39.235238527157605C56.644936459768715,38.65746074937983,55.133825348657595,41.67968297160205,54.20049201532426,42.1241274160465C53.31160312643537,41.990794082713165,52.467158681990924,40.390794082713164,53.267158681990935,39.36857186049094C53.356047570879824,38.83523852715761,53.40049201532426,38.701905193824274,53.756047570879815,38.0352385271576C54.28938090421315,37.67968297160205,54.644936459768715,38.5241274160465,55.04493645976871,38.56857186049094C55.04493645976871,38.56857186049094,57.889380904213155,37.324127416046494,57.889380904213155,37.324127416046494M64.91160312643538,36.701905193824274C65.35604757087984,34.87968297160205,66.46715868199094,31.101905193824273,67.80049201532428,30.74634963826872C67.97826979310206,30.790794082713163,68.86715868199094,31.59079408271316,68.28938090421316,32.34634963826872C67.53382534865761,33.324127416046494,67.00049201532428,34.87968297160205,66.68938090421317,36.96857186049094C67.84493645976872,37.324127416046494,68.91160312643538,36.65746074937983,69.9338253486576,37.19079408271316C70.55604757087983,37.19079408271316,70.91160312643538,37.324127416046494,70.91160312643538,37.59079408271316C70.86715868199094,38.43523852715761,68.95604757087983,38.390794082713164,68.37826979310205,38.613016304935385C67.9338253486576,38.65746074937983,66.33382534865761,38.613016304935385,65.97826979310206,39.05746074937983C65.53382534865761,40.1241274160465,65.80049201532428,42.03523852715761,65.08938090421316,43.41301630493538C64.15604757087984,43.27968297160205,63.93382534865761,43.45746074937983,63.93382534865761,42.5241274160465C63.93382534865761,42.1241274160465,64.0227142375465,40.924127416046495,64.28938090421316,38.924127416046495C63.622714237546504,38.34634963826872,60.689380904213166,39.324127416046494,60.867158681990944,37.72412741604649C61.04493645976872,36.0352385271576,64.0227142375465,37.99079408271316,64.91160312643538,36.701905193824274C64.91160312643538,36.701905193824274,64.91160312643538,36.701905193824274,64.91160312643538,36.701905193824274" style="-webkit-tap-highlight-color: rgba(0, 0, 0, 0);"></path><path fill="#ffffff" stroke="#000000" d="M10,141.1049461901177C79.20732854277972,143.9414103151751,12.915590218656739,138.26848206506028,80.91160312643538,141.1049461901177C79.56748148658365,155.70468877741257,82.25572476628712,162.0316333824391,80.91160312643538,174.7079871864111C45.3270788934826,171.87152306135368,39.6638926639106,177.5444513114685,10,174.7079871864111C11.344121639851735,155.16534013828428,8.655878360148265,160.12181746296608,10,141.1049461901177" stroke-width="2" style="-webkit-tap-highlight-color: rgba(0, 0, 0, 0);"></path><rect x="20" y="151.1049461901177" width="50.91160312643538" height="13.60304099629343" rx="0" ry="0" fill="#ffffff" stroke="none" style="-webkit-tap-highlight-color: rgba(0, 0, 0, 0);"></rect><path fill="#000000" stroke="none" d="M21.88938090421316,159.406851383942C21.356047570879827,162.74018471727533,26.156047570879824,162.78462916171975,29.26715868199094,162.56240693949758C29.26715868199094,162.56240693949758,35.71160312643538,162.11796249505312,35.71160312643538,162.11796249505312C36.111603126435384,162.20685138394197,36.111603126435384,162.34018471727535,36.111603126435384,162.91796249505313C34.46715868199094,163.7179624950531,32.3338253486576,164.16240693949754,31.26715868199094,163.8957402728309C30.46715868199094,164.34018471727535,29.17826979310205,164.34018471727535,28.11160312643538,164.34018471727535C26.822714237546496,164.34018471727535,25.08938090421316,164.38462916171977,23.444936459768716,163.8512958283864C23.17826979310205,163.806851383942,23.000492015324273,163.7179624950531,23.000492015324273,163.49574027283086C21.533825348657604,162.91796249505313,20.86715868199094,162.02907360616422,20.067158681990936,160.87351805060865C19.222714237546494,155.806851383942,26.55604757087983,154.20685138394197,30.02271423754649,153.00685138394198C31.57826979310205,153.00685138394198,33.93382534865761,151.62907360616424,34.42271423754649,153.3179624950531C34.37826979310205,154.606851383942,32.24493645976871,153.94018471727532,31.044936459768717,154.56240693949752C28.600492015324267,154.91796249505313,25.933825348657603,156.11796249505312,23.26715868199094,157.7179624950531C22.689380904213163,158.07351805060864,22.244936459768713,158.65129582838642,21.88938090421316,159.406851383942C21.88938090421316,159.406851383942,21.88938090421316,159.406851383942,21.88938090421316,159.406851383942M39.267158681990935,151.1401847172753C40.20049201532426,150.87351805060865,40.91160312643538,152.16240693949754,40.600492015324264,153.58462916171976C40.15604757087982,155.8512958283864,39.356047570879824,159.58462916171976,39.356047570879824,162.82907360616423C39.356047570879824,163.3179624950531,39.62271423754649,164.4290736061642,38.77826979310204,164.47351805060867C37.48938090421315,164.25129582838645,37.44493645976871,162.34018471727535,37.66715868199093,160.78462916171975C37.66715868199093,160.78462916171975,38.91160312643538,152.91796249505313,38.91160312643538,152.91796249505313C38.644936459768715,152.16240693949754,38.95604757087982,151.62907360616424,39.267158681990935,151.1401847172753C39.267158681990935,151.1401847172753,39.267158681990935,151.1401847172753,39.267158681990935,151.1401847172753M43.62271423754649,155.18462916171978C43.93382534865759,155.9846291617198,44.02271423754648,156.20685138394197,43.40049201532426,156.87351805060865C42.378269793102035,156.606851383942,42.467158681990924,156.07351805060864,42.91160312643538,155.2735180506087C43.00049201532427,155.2735180506087,43.267158681990935,155.2290736061642,43.62271423754649,155.18462916171978C43.62271423754649,155.18462916171978,43.62271423754649,155.18462916171978,43.62271423754649,155.18462916171978M42.378269793102035,164.16240693949754C41.57826979310204,163.2290736061642,42.02271423754648,160.91796249505313,42.3338253486576,159.45129582838644C42.6449364597687,159.00685138394198,43.222714237546484,159.09574027283088,43.356047570879824,159.7179624950531C43.31160312643537,161.3179624950531,43.66715868199093,162.91796249505313,43.267158681990935,164.34018471727535C42.91160312643538,164.4290736061642,42.91160312643538,164.34018471727535,42.378269793102035,164.16240693949754C42.378269793102035,164.16240693949754,42.378269793102035,164.16240693949754,42.378269793102035,164.16240693949754M44.600492015324264,161.94018471727532C44.600492015324264,159.36240693949753,46.86715868199093,158.78462916171975,49.48938090421315,158.65129582838642C50.95604757087982,158.606851383942,51.48938090421315,159.36240693949753,52.11160312643537,160.20685138394197C52.15604757087982,160.82907360616423,52.20049201532426,161.94018471727532,51.80049201532427,162.07351805060864C50.733825348657604,161.9846291617198,48.55604757087983,162.65129582838642,47.40049201532426,162.56240693949758C47.31160312643537,162.65129582838642,47.31160312643537,162.6957402728309,47.31160312643537,162.6957402728309C47.31160312643537,162.82907360616423,47.844936459768704,163.05129582838646,48.95604757087982,163.36240693949753C49.889380904213155,163.36240693949753,52.02271423754648,163.76240693949757,50.3338253486576,164.34018471727535C49.93382534865759,164.96240693949755,48.82271423754649,164.606851383942,47.844936459768704,164.606851383942C46.644936459768715,164.38462916171977,44.600492015324264,163.36240693949753,44.600492015324264,161.94018471727532C44.600492015324264,161.94018471727532,44.600492015324264,161.94018471727532,44.600492015324264,161.94018471727532M49.889380904213155,159.94018471727532C48.91160312643538,160.02907360616422,46.86715868199093,160.16240693949754,47.00049201532427,161.09574027283088C48.06715868199093,161.00685138394198,49.93382534865759,161.3179624950531,50.511603126435375,160.82907360616423C50.28938090421315,160.25129582838645,50.467158681990924,160.25129582838645,49.889380904213155,159.94018471727532C49.889380904213155,159.94018471727532,49.889380904213155,159.94018471727532,49.889380904213155,159.94018471727532M57.889380904213155,158.4290736061642C59.5338253486576,158.6957402728309,60.6449364597687,160.82907360616423,60.6449364597687,163.36240693949753C60.6449364597687,164.78462916171975,59.93382534865759,164.47351805060867,59.267158681990935,164.11796249505312C58.467158681990924,162.78462916171975,59.04493645976871,162.11796249505312,58.28938090421315,160.34018471727535C56.644936459768715,159.76240693949757,55.133825348657595,162.78462916171975,54.20049201532426,163.2290736061642C53.31160312643537,163.09574027283088,52.467158681990924,161.49574027283086,53.267158681990935,160.47351805060867C53.356047570879824,159.94018471727532,53.40049201532426,159.806851383942,53.756047570879815,159.1401847172753C54.28938090421315,158.78462916171975,54.644936459768715,159.62907360616424,55.04493645976871,159.67351805060866C55.04493645976871,159.67351805060866,57.889380904213155,158.4290736061642,57.889380904213155,158.4290736061642M64.91160312643538,157.806851383942C65.35604757087984,155.9846291617198,66.46715868199094,152.20685138394197,67.80049201532428,151.8512958283864C67.97826979310206,151.8957402728309,68.86715868199094,152.6957402728309,68.28938090421316,153.45129582838644C67.53382534865761,154.4290736061642,67.00049201532428,155.9846291617198,66.68938090421317,158.07351805060864C67.84493645976872,158.4290736061642,68.91160312643538,157.76240693949757,69.9338253486576,158.29574027283087C70.55604757087983,158.29574027283087,70.91160312643538,158.4290736061642,70.91160312643538,158.6957402728309C70.86715868199094,159.54018471727534,68.95604757087983,159.49574027283086,68.37826979310205,159.7179624950531C67.9338253486576,159.76240693949757,66.33382534865761,159.7179624950531,65.97826979310206,160.16240693949754C65.53382534865761,161.2290736061642,65.80049201532428,163.1401847172753,65.08938090421316,164.5179624950531C64.15604757087984,164.38462916171977,63.93382534865761,164.56240693949758,63.93382534865761,163.62907360616424C63.93382534865761,163.2290736061642,64.0227142375465,162.02907360616422,64.28938090421316,160.02907360616422C63.622714237546504,159.45129582838644,60.689380904213166,160.4290736061642,60.867158681990944,158.82907360616423C61.04493645976872,157.1401847172753,64.0227142375465,159.09574027283088,64.91160312643538,157.806851383942C64.91160312643538,157.806851383942,64.91160312643538,157.806851383942,64.91160312643538,157.806851383942" style="-webkit-tap-highlight-color: rgba(0, 0, 0, 0);"></path><path fill="none" stroke="#000000" d="M45.45580156321769,53.60304099629341C41.95572535546472,81.32541630841482,48.95587777097066,87.08335931671989,45.45580156321769,141.1049461901177" stroke-width="2" style="-webkit-tap-highlight-color: rgba(0, 0, 0, 0);"></path><path fill="#ffffff" stroke="#000000" d="M100.91160312643538,20C100.13691271218829,23.083196745325026,108.8336087686222,16.916803254674974,177.99152175956107,20C179.33564339941282,42.76165335524267,176.64740011970932,33.646187590619796,177.99152175956107,53.60304099629341C131.11012280895503,50.51984425096838,107.89862388720935,56.686237741618434,100.91160312643538,53.60304099629341C102.25572476628712,30.207038064509288,99.56748148658365,23.68666695871839,100.91160312643538,20" stroke-width="2" style="-webkit-tap-highlight-color: rgba(0, 0, 0, 0);"></path><rect x="110.91160312643538" y="30.59539704135658" width="57.079918633125686" height="12.412246913580244" rx="0" ry="0" fill="#ffffff" stroke="none" style="-webkit-tap-highlight-color: rgba(0, 0, 0, 0);"></rect><path fill="#000000" stroke="none" d="M111.48117254448545,42.63984148580103C111.17006143337434,42.50650815246769,110.50339476670766,41.839841485801024,111.25895032226322,41.66206370802325C114.28117254448543,40.99539704135658,116.54783921115211,40.23984148580102,118.10339476670765,39.66206370802325C120.37006143337433,38.817619263578806,119.836728100041,38.150952596912134,118.236728100041,37.306508152467686C116.19228365559655,36.19539704135658,114.59228365559656,35.97317481913436,112.85895032226321,34.46206370802325C111.39228365559654,33.17317481913436,110.63672810004098,32.906508152467694,111.7478392111521,31.88428593024547C113.39228365559654,30.99539704135658,117.03672810004099,30.59539704135658,119.79228365559655,30.59539704135658C121.08117254448544,30.59539704135658,121.7478392111521,30.862063708023246,121.7478392111521,31.395397041356578C121.34783921115212,32.55095259691214,118.99228365559657,31.662063708023247,117.12561698892989,32.0176192635788C116.37006143337433,32.10650815246769,113.92561698892987,32.284285930245474,113.03672810004099,32.72873037468992C114.68117254448543,35.08428593024547,118.90339476670766,35.306508152467686,121.03672810004099,37.66206370802325C121.39228365559654,38.062063708023246,121.5256169889299,38.55095259691214,121.5256169889299,38.99539704135658C121.34783921115212,39.750952596912136,120.50339476670766,40.55095259691214,119.65895032226322,40.50650815246769C118.72561698892989,41.2176192635788,118.90339476670766,40.55095259691214,117.48117254448545,41.26206370802325C116.85895032226321,41.57317481913436,115.65895032226322,41.66206370802325,114.99228365559657,42.150952596912134C113.88117254448545,42.0176192635788,112.81450587781876,42.59539704135658,111.48117254448545,42.63984148580103C111.48117254448545,42.63984148580103,111.48117254448545,42.63984148580103,111.48117254448545,42.63984148580103M121.48117254448545,40.23984148580102C121.48117254448545,37.66206370802325,123.74783921115213,37.08428593024547,126.37006143337433,36.95095259691213C127.836728100041,36.906508152467694,128.37006143337433,37.66206370802325,128.99228365559657,38.50650815246769C129.036728100041,39.12873037468991,129.08117254448544,40.23984148580102,128.68117254448543,40.37317481913436C127.61450587781877,40.284285930245474,125.436728100041,40.95095259691213,124.28117254448546,40.86206370802324C124.19228365559655,40.95095259691213,124.19228365559655,40.99539704135658,124.19228365559655,40.99539704135658C124.19228365559655,41.12873037468991,124.72561698892989,41.35095259691214,125.836728100041,41.66206370802325C126.77006143337434,41.66206370802325,128.90339476670766,42.062063708023246,127.2145058778188,42.63984148580103C126.81450587781879,43.26206370802325,125.70339476670767,42.906508152467694,124.72561698892989,42.906508152467694C123.5256169889299,42.684285930245466,121.48117254448545,41.66206370802325,121.48117254448545,40.23984148580102C121.48117254448545,40.23984148580102,121.48117254448545,40.23984148580102,121.48117254448545,40.23984148580102M126.77006143337434,38.23984148580102C125.79228365559655,38.32873037468991,123.74783921115213,38.46206370802325,123.88117254448545,39.39539704135658C124.94783921115211,39.306508152467686,126.81450587781879,39.6176192635788,127.39228365559657,39.12873037468991C127.17006143337434,38.55095259691214,127.34783921115212,38.55095259691214,126.77006143337434,38.23984148580102C126.77006143337434,38.23984148580102,126.77006143337434,38.23984148580102,126.77006143337434,38.23984148580102M140.1478392111521,37.57317481913436C140.23672810004098,38.55095259691214,140.37006143337433,38.0176192635788,139.52561698892987,38.59539704135658C136.28117254448543,38.284285930245474,132.1478392111521,37.57317481913436,131.79228365559655,41.08428593024547C131.436728100041,41.35095259691214,131.65895032226322,41.97317481913436,131.436728100041,42.684285930245466C130.1478392111521,43.12873037468991,129.65895032226322,42.284285930245474,129.97006143337433,40.63984148580103C130.23672810004098,39.26206370802325,130.28117254448543,37.57317481913436,131.39228365559654,38.19539704135658C133.97006143337433,36.55095259691214,134.32561698892988,36.32873037468991,139.17006143337431,37.35095259691214C139.30339476670764,37.57317481913436,139.836728100041,37.528730374689914,140.1478392111521,37.57317481913436C140.1478392111521,37.57317481913436,140.1478392111521,37.57317481913436,140.1478392111521,37.57317481913436M140.636728100041,37.12873037468991C140.636728100041,37.12873037468991,142.94783921115211,40.284285930245474,142.94783921115211,40.284285930245474C144.8145058778188,39.57317481913436,146.05895032226323,37.88428593024547,148.45895032226323,37.395397041356574C148.68117254448546,37.57317481913436,148.8145058778188,37.70650815246769,148.8145058778188,37.88428593024547C148.45895032226323,38.72873037468992,148.636728100041,38.23984148580102,147.34783921115212,39.306508152467686C147.34783921115212,39.35095259691214,147.30339476670767,39.439841485801026,147.30339476670767,39.528730374689914C144.59228365559656,41.528730374689914,143.17006143337434,42.55095259691214,142.99228365559657,42.55095259691214C141.2145058778188,41.88428593024547,140.77006143337434,39.35095259691214,139.97006143337435,38.10650815246769C140.236728100041,37.48428593024547,140.41450587781878,37.12873037468991,140.636728100041,37.12873037468991C140.636728100041,37.12873037468991,140.636728100041,37.12873037468991,140.636728100041,37.12873037468991M149.25895032226322,40.23984148580102C149.25895032226322,37.66206370802325,151.5256169889299,37.08428593024547,154.1478392111521,36.95095259691213C155.61450587781877,36.906508152467694,156.1478392111521,37.66206370802325,156.77006143337434,38.50650815246769C156.81450587781876,39.12873037468991,156.8589503222632,40.23984148580102,156.4589503222632,40.37317481913436C155.39228365559654,40.284285930245474,153.21450587781877,40.95095259691213,152.05895032226323,40.86206370802324C151.97006143337433,40.95095259691213,151.97006143337433,40.99539704135658,151.97006143337433,40.99539704135658C151.97006143337433,41.12873037468991,152.50339476670766,41.35095259691214,153.61450587781877,41.66206370802325C154.5478392111521,41.66206370802325,156.68117254448543,42.062063708023246,154.99228365559657,42.63984148580103C154.59228365559656,43.26206370802325,153.48117254448545,42.906508152467694,152.50339476670766,42.906508152467694C151.30339476670767,42.684285930245466,149.25895032226322,41.66206370802325,149.25895032226322,40.23984148580102C149.25895032226322,40.23984148580102,149.25895032226322,40.23984148580102,149.25895032226322,40.23984148580102M154.5478392111521,38.23984148580102C153.57006143337432,38.32873037468991,151.5256169889299,38.46206370802325,151.65895032226322,39.39539704135658C152.7256169889299,39.306508152467686,154.59228365559656,39.6176192635788,155.17006143337434,39.12873037468991C154.94783921115211,38.55095259691214,155.1256169889299,38.55095259691214,154.5478392111521,38.23984148580102C154.5478392111521,38.23984148580102,154.5478392111521,38.23984148580102,154.5478392111521,38.23984148580102M167.92561698892987,37.57317481913436C168.01450587781875,38.55095259691214,168.1478392111521,38.0176192635788,167.30339476670764,38.59539704135658C164.0589503222632,38.284285930245474,159.92561698892987,37.57317481913436,159.57006143337432,41.08428593024547C159.21450587781877,41.35095259691214,159.436728100041,41.97317481913436,159.21450587781877,42.684285930245466C157.92561698892987,43.12873037468991,157.436728100041,42.284285930245474,157.7478392111521,40.63984148580103C158.01450587781875,39.26206370802325,158.0589503222632,37.57317481913436,159.17006143337431,38.19539704135658C161.7478392111521,36.55095259691214,162.10339476670765,36.32873037468991,166.9478392111521,37.35095259691214C167.0811725444854,37.57317481913436,167.61450587781877,37.528730374689914,167.92561698892987,37.57317481913436C167.92561698892987,37.57317481913436,167.92561698892987,37.57317481913436,167.92561698892987,37.57317481913436" style="-webkit-tap-highlight-color: rgba(0, 0, 0, 0);"></path><path fill="#ffffff" stroke="#000000" d="M100.91160312643538,141.1049461901177C128.36417023131241,138.02174944479265,122.97928775136572,144.18814293544273,177.99152175956107,141.1049461901177C179.33564339941282,160.8962245681362,176.64740011970932,159.4817150236676,177.99152175956107,174.7079871864111C167.47006859510964,171.62479044108605,127.06872732066644,177.79118393173613,100.91160312643538,174.7079871864111C99.56748148658365,162.17036230844445,102.25572476628712,175.22389744287912,100.91160312643538,141.1049461901177" stroke-width="2" style="-webkit-tap-highlight-color: rgba(0, 0, 0, 0);"></path><rect x="110.91160312643538" y="151.70034323147428" width="57.079918633125686" height="12.412246913580248" rx="0" ry="0" fill="#ffffff" stroke="none" style="-webkit-tap-highlight-color: rgba(0, 0, 0, 0);"></rect><path fill="#000000" stroke="none" d="M111.48117254448545,163.74478767591876C111.17006143337434,163.61145434258538,110.50339476670766,162.94478767591875,111.25895032226322,162.76700989814094C114.28117254448543,162.1003432314743,116.54783921115211,161.34478767591872,118.10339476670765,160.76700989814094C120.37006143337433,159.9225654536965,119.836728100041,159.25589878702982,118.236728100041,158.4114543425854C116.19228365559655,157.3003432314743,114.59228365559656,157.07812100925207,112.85895032226321,155.56700989814095C111.39228365559654,154.27812100925206,110.63672810004098,154.0114543425854,111.7478392111521,152.98923212036317C113.39228365559654,152.1003432314743,117.03672810004099,151.70034323147428,119.79228365559655,151.70034323147428C121.08117254448544,151.70034323147428,121.7478392111521,151.96700989814093,121.7478392111521,152.5003432314743C121.34783921115212,153.65589878702986,118.99228365559657,152.76700989814094,117.12561698892989,153.1225654536965C116.37006143337433,153.2114543425854,113.92561698892987,153.3892321203632,113.03672810004099,153.8336765648076C114.68117254448543,156.18923212036316,118.90339476670766,156.4114543425854,121.03672810004099,158.76700989814094C121.39228365559654,159.16700989814098,121.5256169889299,159.65589878702986,121.5256169889299,160.1003432314743C121.34783921115212,160.85589878702984,120.50339476670766,161.65589878702986,119.65895032226322,161.61145434258538C118.72561698892989,162.32256545369654,118.90339476670766,161.65589878702986,117.48117254448545,162.36700989814096C116.85895032226321,162.6781210092521,115.65895032226322,162.76700989814094,114.99228365559657,163.25589878702982C113.88117254448545,163.1225654536965,112.81450587781876,163.70034323147428,111.48117254448545,163.74478767591876C111.48117254448545,163.74478767591876,111.48117254448545,163.74478767591876,111.48117254448545,163.74478767591876M121.48117254448545,161.34478767591872C121.48117254448545,158.76700989814094,123.74783921115213,158.18923212036316,126.37006143337433,158.05589878702983C127.836728100041,158.0114543425854,128.37006143337433,158.76700989814094,128.99228365559657,159.61145434258538C129.036728100041,160.23367656480764,129.08117254448544,161.34478767591872,128.68117254448543,161.47812100925205C127.61450587781877,161.3892321203632,125.436728100041,162.05589878702983,124.28117254448546,161.967009898141C124.19228365559655,162.05589878702983,124.19228365559655,162.1003432314743,124.19228365559655,162.1003432314743C124.19228365559655,162.23367656480764,124.72561698892989,162.45589878702987,125.836728100041,162.76700989814094C126.77006143337434,162.76700989814094,128.90339476670766,163.16700989814098,127.2145058778188,163.74478767591876C126.81450587781879,164.36700989814096,125.70339476670767,164.0114543425854,124.72561698892989,164.0114543425854C123.5256169889299,163.78923212036318,121.48117254448545,162.76700989814094,121.48117254448545,161.34478767591872C121.48117254448545,161.34478767591872,121.48117254448545,161.34478767591872,121.48117254448545,161.34478767591872M126.77006143337434,159.34478767591872C125.79228365559655,159.43367656480763,123.74783921115213,159.56700989814095,123.88117254448545,160.5003432314743C124.94783921115211,160.4114543425854,126.81450587781879,160.72256545369652,127.39228365559657,160.23367656480764C127.17006143337434,159.65589878702986,127.34783921115212,159.65589878702986,126.77006143337434,159.34478767591872C126.77006143337434,159.34478767591872,126.77006143337434,159.34478767591872,126.77006143337434,159.34478767591872M140.1478392111521,158.6781210092521C140.23672810004098,159.65589878702986,140.37006143337433,159.1225654536965,139.52561698892987,159.70034323147428C136.28117254448543,159.3892321203632,132.1478392111521,158.6781210092521,131.79228365559655,162.18923212036316C131.436728100041,162.45589878702987,131.65895032226322,163.07812100925207,131.436728100041,163.78923212036318C130.1478392111521,164.23367656480764,129.65895032226322,163.3892321203632,129.97006143337433,161.74478767591876C130.23672810004098,160.36700989814096,130.28117254448543,158.6781210092521,131.39228365559654,159.3003432314743C133.97006143337433,157.65589878702986,134.32561698892988,157.43367656480763,139.17006143337431,158.45589878702987C139.30339476670764,158.6781210092521,139.836728100041,158.63367656480762,140.1478392111521,158.6781210092521C140.1478392111521,158.6781210092521,140.1478392111521,158.6781210092521,140.1478392111521,158.6781210092521M140.636728100041,158.23367656480764C140.636728100041,158.23367656480764,142.94783921115211,161.3892321203632,142.94783921115211,161.3892321203632C144.8145058778188,160.6781210092521,146.05895032226323,158.98923212036317,148.45895032226323,158.5003432314743C148.68117254448546,158.6781210092521,148.8145058778188,158.81145434258542,148.8145058778188,158.98923212036317C148.45895032226323,159.8336765648076,148.636728100041,159.34478767591872,147.34783921115212,160.4114543425854C147.34783921115212,160.45589878702987,147.30339476670767,160.5447876759187,147.30339476670767,160.63367656480762C144.59228365559656,162.63367656480762,143.17006143337434,163.65589878702986,142.99228365559657,163.65589878702986C141.2145058778188,162.98923212036317,140.77006143337434,160.45589878702987,139.97006143337435,159.2114543425854C140.236728100041,158.5892321203632,140.41450587781878,158.23367656480764,140.636728100041,158.23367656480764C140.636728100041,158.23367656480764,140.636728100041,158.23367656480764,140.636728100041,158.23367656480764M149.25895032226322,161.34478767591872C149.25895032226322,158.76700989814094,151.5256169889299,158.18923212036316,154.1478392111521,158.05589878702983C155.61450587781877,158.0114543425854,156.1478392111521,158.76700989814094,156.77006143337434,159.61145434258538C156.81450587781876,160.23367656480764,156.8589503222632,161.34478767591872,156.4589503222632,161.47812100925205C155.39228365559654,161.3892321203632,153.21450587781877,162.05589878702983,152.05895032226323,161.967009898141C151.97006143337433,162.05589878702983,151.97006143337433,162.1003432314743,151.97006143337433,162.1003432314743C151.97006143337433,162.23367656480764,152.50339476670766,162.45589878702987,153.61450587781877,162.76700989814094C154.5478392111521,162.76700989814094,156.68117254448543,163.16700989814098,154.99228365559657,163.74478767591876C154.59228365559656,164.36700989814096,153.48117254448545,164.0114543425854,152.50339476670766,164.0114543425854C151.30339476670767,163.78923212036318,149.25895032226322,162.76700989814094,149.25895032226322,161.34478767591872C149.25895032226322,161.34478767591872,149.25895032226322,161.34478767591872,149.25895032226322,161.34478767591872M154.5478392111521,159.34478767591872C153.57006143337432,159.43367656480763,151.5256169889299,159.56700989814095,151.65895032226322,160.5003432314743C152.7256169889299,160.4114543425854,154.59228365559656,160.72256545369652,155.17006143337434,160.23367656480764C154.94783921115211,159.65589878702986,155.1256169889299,159.65589878702986,154.5478392111521,159.34478767591872C154.5478392111521,159.34478767591872,154.5478392111521,159.34478767591872,154.5478392111521,159.34478767591872M167.92561698892987,158.6781210092521C168.01450587781875,159.65589878702986,168.1478392111521,159.1225654536965,167.30339476670764,159.70034323147428C164.0589503222632,159.3892321203632,159.92561698892987,158.6781210092521,159.57006143337432,162.18923212036316C159.21450587781877,162.45589878702987,159.436728100041,163.07812100925207,159.21450587781877,163.78923212036318C157.92561698892987,164.23367656480764,157.436728100041,163.3892321203632,157.7478392111521,161.74478767591876C158.01450587781875,160.36700989814096,158.0589503222632,158.6781210092521,159.17006143337431,159.3003432314743C161.7478392111521,157.65589878702986,162.10339476670765,157.43367656480763,166.9478392111521,158.45589878702987C167.0811725444854,158.6781210092521,167.61450587781877,158.63367656480762,167.92561698892987,158.6781210092521C167.92561698892987,158.6781210092521,167.92561698892987,158.6781210092521,167.92561698892987,158.6781210092521" style="-webkit-tap-highlight-color: rgba(0, 0, 0, 0);"></path><path fill="none" stroke="#000000" d="M139.45156244299824,53.60304099629341C142.95163865075122,119.92761183781595,135.95148623524526,95.1133714209634,139.45156244299824,141.1049461901177" stroke-width="2" style="-webkit-tap-highlight-color: rgba(0, 0, 0, 0);"></path><rect x="69.16160365028955" y="71.76319951049237" width="46.58415670563684" height="13.679682971602062" rx="0" ry="0" fill="#ffffff" stroke="none" style="-webkit-tap-highlight-color: rgba(0, 0, 0, 0);"></rect><path fill="#000000" stroke="none" d="M71.05098455450269,80.06510470431665C70.51765122116936,83.39843803764998,75.31765122116937,83.44288248209443,78.42876233228048,83.2206602598722C78.42876233228048,83.2206602598722,84.87320677672491,82.77621581542776,84.87320677672491,82.77621581542776C85.27320677672492,82.86510470431665,85.27320677672492,82.99843803764998,85.27320677672492,83.57621581542776C83.62876233228047,84.37621581542776,81.49542899894715,84.8206602598722,80.42876233228048,84.55399359320553C79.62876233228047,84.99843803764998,78.33987344339158,84.99843803764998,77.27320677672492,84.99843803764998C75.98431788783603,84.99843803764998,74.25098455450271,85.04288248209443,72.60654011005826,84.5095491487611C72.33987344339158,84.46510470431664,72.1620956656138,84.37621581542776,72.1620956656138,84.15399359320554C70.69542899894714,83.57621581542776,70.02876233228048,82.68732692653887,69.22876233228047,81.53177137098332C68.38431788783603,76.46510470431664,75.71765122116938,74.86510470431665,79.18431788783604,73.66510470431665C80.73987344339159,73.66510470431665,83.09542899894714,72.28732692653887,83.58431788783602,73.97621581542776C83.5398734433916,75.26510470431666,81.40654011005824,74.59843803764998,80.20654011005826,75.2206602598722C77.7620956656138,75.57621581542776,75.09542899894714,76.77621581542776,72.42876233228048,78.37621581542776C71.8509845545027,78.73177137098331,71.40654011005824,79.30954914876109,71.05098455450269,80.06510470431665C71.05098455450269,80.06510470431665,71.05098455450269,80.06510470431665,71.05098455450269,80.06510470431665M88.42876233228048,71.79843803764999C89.3620956656138,71.53177137098332,90.07320677672493,72.82066025987221,89.7620956656138,74.24288248209443C89.31765122116937,76.5095491487611,88.51765122116936,80.24288248209443,88.51765122116936,83.48732692653887C88.51765122116936,83.97621581542776,88.78431788783604,85.08732692653886,87.93987344339158,85.13177137098332C86.65098455450268,84.90954914876109,86.60654011005826,82.99843803764998,86.82876233228046,81.44288248209443C86.82876233228046,81.44288248209443,88.07320677672493,73.57621581542776,88.07320677672493,73.57621581542776C87.80654011005825,72.82066025987221,88.11765122116935,72.28732692653887,88.42876233228048,71.79843803764999C88.42876233228048,71.79843803764999,88.42876233228048,71.79843803764999,88.42876233228048,71.79843803764999M94.82876233228046,78.95399359320554C97.1398734433916,77.88732692653888,99.4509845545027,79.75399359320554,99.4509845545027,81.75399359320554C99.4509845545027,84.37621581542776,96.51765122116936,84.73177137098331,94.38431788783603,85.44288248209443C92.07320677672493,85.35399359320554,89.27320677672492,83.2206602598722,90.82876233228046,80.77621581542776C91.8509845545027,79.97621581542776,93.1398734433916,79.2206602598722,94.82876233228046,78.95399359320554C94.82876233228046,78.95399359320554,94.82876233228046,78.95399359320554,94.82876233228046,78.95399359320554M92.02876233228048,82.46510470431664C92.73987344339159,84.86510470431665,97.58431788783602,83.17621581542777,97.8509845545027,81.44288248209443C97.31765122116937,78.8206602598722,92.11765122116935,81.08732692653886,92.02876233228048,82.46510470431664C92.02876233228048,82.46510470431664,92.02876233228048,82.46510470431664,92.02876233228048,82.46510470431664M106.51765122116936,78.42066025987221C107.36209566561382,78.46510470431664,107.71765122116938,79.48732692653887,107.09542899894714,79.84288248209442C106.91765122116936,79.88732692653888,106.11765122116938,80.0206602598722,104.73987344339159,80.15399359320554C104.02876233228048,80.5095491487611,103.76209566561383,80.06510470431665,103.00654011005827,80.55399359320553C104.02876233228048,81.48732692653887,106.96209566561382,81.26510470431666,107.27320677672492,83.30954914876109C106.69542899894714,84.37621581542776,103.49542899894715,84.86510470431665,101.76209566561383,85.17621581542777C101.36209566561382,85.04288248209443,100.96209566561382,85.04288248209443,100.56209566561381,85.17621581542777C100.29542899894716,84.99843803764998,99.62876233228047,84.46510470431664,100.20654011005826,84.06510470431665C101.5398734433916,83.79843803764999,103.89542899894715,83.48732692653887,104.73987344339159,82.99843803764998C103.98431788783603,82.28732692653887,101.18431788783604,81.53177137098332,100.42876233228048,80.86510470431665C100.29542899894716,80.77621581542776,100.25098455450271,80.55399359320553,100.25098455450271,80.19843803764998C99.98431788783603,79.93177137098331,100.38431788783603,79.62066025987221,100.91765122116936,79.39843803764998C101.89542899894715,78.99843803764998,105.09542899894714,78.37621581542776,106.51765122116936,78.42066025987221C106.51765122116936,78.42066025987221,106.51765122116936,78.42066025987221,106.51765122116936,78.42066025987221M108.20654011005826,82.59843803764998C108.20654011005826,80.0206602598722,110.47320677672494,79.44288248209443,113.09542899894714,79.30954914876109C114.56209566561381,79.26510470431664,115.09542899894714,80.0206602598722,115.71765122116938,80.86510470431665C115.7620956656138,81.48732692653887,115.80654011005825,82.59843803764998,115.40654011005824,82.73177137098331C114.33987344339158,82.64288248209442,112.1620956656138,83.30954914876109,111.00654011005827,83.2206602598722C110.91765122116936,83.30954914876109,110.91765122116936,83.35399359320554,110.91765122116936,83.35399359320554C110.91765122116936,83.48732692653887,111.4509845545027,83.7095491487611,112.56209566561381,84.0206602598722C113.49542899894715,84.0206602598722,115.62876233228047,84.42066025987221,113.93987344339158,84.99843803764998C113.5398734433916,85.62066025987221,112.42876233228048,85.26510470431666,111.4509845545027,85.26510470431666C110.25098455450271,85.04288248209443,108.20654011005826,84.0206602598722,108.20654011005826,82.59843803764998C108.20654011005826,82.59843803764998,108.20654011005826,82.59843803764998,108.20654011005826,82.59843803764998M113.49542899894715,80.59843803764998C112.51765122116936,80.68732692653887,110.47320677672494,80.8206602598722,110.60654011005826,81.75399359320554C111.67320677672492,81.66510470431665,113.5398734433916,81.97621581542776,114.11765122116938,81.48732692653887C113.89542899894715,80.90954914876109,114.07320677672493,80.90954914876109,113.49542899894715,80.59843803764998C113.49542899894715,80.59843803764998,113.49542899894715,80.59843803764998,113.49542899894715,80.59843803764998" style="-webkit-tap-highlight-color: rgba(0, 0, 0, 0);"></path><path fill="none" stroke="#000000" d="M45.45580156321769,87.28272396789546C102.72153518336061,90.88099918907456,99.3210858922904,84.14828891194648,134.4744815938845,86.85874506686481" stroke-width="2" marker-end="url(#raphael-marker-endblock55-obj1044)" stroke-dasharray="0" style="-webkit-tap-highlight-color: rgba(0, 0, 0, 0);"></path><rect x="71.19963326967668" y="105.37161285678434" width="42.508097466862566" height="13.822222222222251" rx="0" ry="0" fill="#ffffff" stroke="none" style="-webkit-tap-highlight-color: rgba(0, 0, 0, 0);"></rect><path fill="#000000" stroke="none" d="M75.26328629209479,115.46050174567324C74.24106406987258,115.01605730122878,73.52995295876147,117.14939063456214,72.95217518098369,118.1271684123399C72.59661962542813,118.39383507900658,72.59661962542813,118.39383507900658,71.9743974032059,118.92716841233991C70.99661962542814,118.6160573012288,70.95217518098369,117.28272396789546,71.79661962542812,116.74939063456213C72.10773073653922,116.39383507900658,72.285508514317,116.08272396789548,72.46328629209478,115.72716841233992C72.46328629209478,115.72716841233992,72.41884184765036,115.77161285678434,72.41884184765036,115.77161285678434C71.79661962542812,114.6160573012288,73.44106406987257,114.48272396789545,73.79661962542812,113.99383507900657C73.84106406987257,113.94939063456212,74.46328629209478,112.70494619011768,74.95217518098369,112.39383507900658C75.70773073653925,111.01605730122878,76.68550851431701,109.8160573012288,77.35217518098369,108.30494619011768C78.0632862920948,107.41605730122879,78.24106406987258,106.03827952345102,79.17439740320592,105.37161285678434C80.46328629209478,105.59383507900657,80.68550851431701,108.1271684123399,81.17439740320592,109.46050174567324C81.5743974032059,112.30494619011768,82.10773073653922,114.03827952345102,83.35217518098369,116.34939063456213C83.21884184765034,117.46050174567324,81.39661962542812,116.838279523451,80.95217518098369,116.34939063456213C79.44106406987257,115.8160573012288,76.64106406987256,115.06050174567324,75.26328629209479,115.46050174567324C75.26328629209479,115.46050174567324,75.26328629209479,115.46050174567324,75.26328629209479,115.46050174567324M75.70773073653925,113.8160573012288C76.59661962542813,114.08272396789548,79.26328629209479,114.26050174567325,80.64106406987258,114.57161285678436C80.90773073653924,114.26050174567325,80.46328629209478,113.9049461901177,80.32995295876145,113.50494619011769C79.84106406987257,112.26050174567325,79.92995295876145,109.41605730122879,78.99661962542814,108.30494619011768C78.59661962542813,108.70494619011768,78.15217518098368,110.26050174567325,77.48550851431702,110.74939063456213C77.08550851431701,111.77161285678434,76.285508514317,112.5271684123399,75.70773073653925,113.8160573012288C75.70773073653925,113.8160573012288,75.70773073653925,113.8160573012288,75.70773073653925,113.8160573012288M86.285508514317,113.99383507900657C85.75217518098367,117.32716841233992,90.55217518098368,117.37161285678437,93.6632862920948,117.14939063456214C93.6632862920948,117.14939063456214,100.10773073653922,116.70494619011768,100.10773073653922,116.70494619011768C100.50773073653923,116.79383507900658,100.50773073653923,116.92716841233991,100.50773073653923,117.50494619011769C98.86328629209478,118.30494619011768,96.72995295876146,118.74939063456213,95.6632862920948,118.48272396789545C94.86328629209478,118.92716841233991,93.5743974032059,118.92716841233991,92.50773073653923,118.92716841233991C91.21884184765034,118.92716841233991,89.48550851431702,118.97161285678436,87.84106406987257,118.43827952345103C87.5743974032059,118.39383507900658,87.39661962542812,118.30494619011768,87.39661962542812,118.08272396789548C85.92995295876145,117.50494619011769,85.26328629209479,116.6160573012288,84.46328629209478,115.46050174567324C83.61884184765034,110.39383507900658,90.95217518098369,108.79383507900658,94.41884184765036,107.59383507900657C95.9743974032059,107.59383507900657,98.32995295876145,106.2160573012288,98.81884184765033,107.9049461901177C98.77439740320591,109.19383507900656,96.64106406987256,108.5271684123399,95.44106406987257,109.14939063456214C92.99661962542811,109.50494619011769,90.32995295876145,110.70494619011768,87.6632862920948,112.30494619011768C87.08550851431701,112.66050174567323,86.64106406987256,113.23827952345101,86.285508514317,113.99383507900657C86.285508514317,113.99383507900657,86.285508514317,113.99383507900657,86.285508514317,113.99383507900657M110.15217518098368,109.32716841233992C110.90773073653924,109.10494619011769,113.70773073653925,106.66050174567323,113.70773073653925,108.48272396789545C113.70773073653925,108.88272396789546,113.61884184765034,109.10494619011769,113.48550851431702,109.19383507900656C113.48550851431702,109.19383507900656,107.61884184765034,112.66050174567323,107.61884184765034,112.66050174567323C106.10773073653922,113.68272396789547,105.21884184765034,114.08272396789548,106.68550851431701,114.88272396789546C108.41884184765036,115.8160573012288,109.9743974032059,115.9049461901177,112.19661962542813,116.70494619011768C112.41884184765036,116.79383507900658,112.50773073653923,116.92716841233991,112.50773073653923,117.10494619011769C112.32995295876145,118.17161285678435,110.0632862920948,117.77161285678434,108.99661962542814,117.46050174567324C106.01884184765035,116.6160573012288,104.64106406987258,115.86050174567325,103.84106406987257,113.77161285678434C104.24106406987258,112.70494619011768,105.52995295876147,112.2160573012288,106.77439740320591,111.06050174567324C107.08550851431701,110.88272396789546,108.95217518098369,109.72716841233992,110.15217518098368,109.32716841233992C110.15217518098368,109.32716841233992,110.15217518098368,109.32716841233992,110.15217518098368,109.32716841233992M102.81884184765036,110.43827952345103C103.30773073653924,109.54939063456214,103.30773073653924,108.43827952345103,104.19661962542813,107.99383507900657C104.285508514317,108.08272396789548,104.3743974032059,108.1271684123399,104.46328629209478,107.99383507900657C105.75217518098367,109.72716841233992,103.52995295876147,112.26050174567325,103.6632862920948,113.68272396789547C102.90773073653924,114.74939063456213,102.99661962542814,116.43827952345103,102.3743974032059,118.70494619011768C102.19661962542813,118.838279523451,101.92995295876145,119.01605730122878,101.52995295876144,119.19383507900659C100.99661962542811,118.6160573012288,101.08550851431701,117.94939063456212,101.17439740320589,116.838279523451C101.30773073653924,115.46050174567324,101.92995295876145,113.32716841233992,102.81884184765036,110.43827952345103C102.81884184765036,110.43827952345103,102.81884184765036,110.43827952345103,102.81884184765036,110.43827952345103" style="-webkit-tap-highlight-color: rgba(0, 0, 0, 0);"></path><path fill="none" stroke="#000000" d="M139.45156244299824,121.10494619011769C66.71357181811597,124.65640711632736,76.43843803646311,118.14395032512597,50.427095637008556,120.57992818402495" stroke-width="2" marker-end="url(#raphael-marker-endblock55-obj1047)" stroke-dasharray="0" style="-webkit-tap-highlight-color: rgba(0, 0, 0, 0);"></path></svg>