<?xml version="1.0" encoding="utf-8" standalone="no"?><!DOCTYPE svg PUBLIC "-//W3C//DTD SVG 20010904//EN" "http://www.w3.org/TR/2001/REC-SVG-20010904/DTD/svg10.dtd"><svg xmlns="http://www.w3.org/2000/svg" width="207" height="201" xmlns:xlink="http://www.w3.org/1999/xlink"><source><![CDATA[Client->Server: Config
Server->Client: ACK
]]></source><desc style="-webkit-tap-highlight-color: rgba(0, 0, 0, 0);">Created with Raphaël 2.1.2</desc><defs style="-webkit-tap-highlight-color: rgba(0, 0, 0, 0);"><path stroke-linecap="round" d="M5,0 0,2.5 5,5z" id="raphael-marker-block" style="-webkit-tap-highlight-color: rgba(0, 0, 0, 0);"></path><marker id="raphael-marker-endblock55-obj960" markerHeight="5" markerWidth="5" orient="auto" refX="2.5" refY="2.5" style="-webkit-tap-highlight-color: rgba(0, 0, 0, 0);"><use xmlns:xlink="http://www.w3.org/1999/xlink" xlink:href="#raphael-marker-block" transform="rotate(180 2.5 2.5) scale(1,1)" stroke-width="1.0000" fill="#000" stroke="none" style="-webkit-tap-highlight-color: rgba(0, 0, 0, 0);"></use></marker><marker id="raphael-marker-endblock55-obj963" markerHeight="5" markerWidth="5" orient="auto" refX="2.5" refY="2.5" style="-webkit-tap-highlight-color: rgba(0, 0, 0, 0);"><use xmlns:xlink="http://www.w3.org/1999/xlink" xlink:href="#raphael-marker-block" transform="rotate(180 2.5 2.5) scale(1,1)" stroke-width="1.0000" fill="#000" stroke="none" style="-webkit-tap-highlight-color: rgba(0, 0, 0, 0);"></use></marker></defs><path fill="#ffffff" stroke="#000000" d="M10,20C53.09734276314976,17.163535874942585,23.706476559073575,22.836464125057415,80.91160312643538,20C82.25572476628712,48.5803367878607,79.56748148658365,28.950557923684723,80.91160312643538,53.60304099629341C25.843338336170635,50.76657687123599,83.74776848922944,56.43950512135083,10,53.60304099629341C11.344121639851735,34.70667830966649,8.655878360148265,22.84461109096306,10,20" stroke-width="2" style="-webkit-tap-highlight-color: rgba(0, 0, 0, 0);"></path><rect x="20" y="29.999999999999996" width="50.91160312643538" height="13.603040996293405" rx="0" ry="0" fill="#ffffff" stroke="none" style="-webkit-tap-highlight-color: rgba(0, 0, 0, 0);"></rect><path fill="#000000" stroke="none" d="M21.88938090421316,38.301905193824275C21.356047570879827,41.635238527157604,26.156047570879824,41.67968297160205,29.26715868199094,41.45746074937983C29.26715868199094,41.45746074937983,35.71160312643538,41.013016304935384,35.71160312643538,41.013016304935384C36.111603126435384,41.10190519382427,36.111603126435384,41.235238527157605,36.111603126435384,41.81301630493538C34.46715868199094,42.613016304935385,32.3338253486576,43.05746074937983,31.26715868199094,42.79079408271316C30.46715868199094,43.235238527157605,29.17826979310205,43.235238527157605,28.11160312643538,43.235238527157605C26.822714237546496,43.235238527157605,25.08938090421316,43.27968297160205,23.444936459768716,42.74634963826872C23.17826979310205,42.701905193824274,23.000492015324273,42.613016304935385,23.000492015324273,42.390794082713164C21.533825348657604,41.81301630493538,20.86715868199094,40.924127416046495,20.067158681990936,39.76857186049094C19.222714237546494,34.701905193824274,26.55604757087983,33.10190519382427,30.02271423754649,31.90190519382427C31.57826979310205,31.90190519382427,33.93382534865761,30.524127416046497,34.42271423754649,32.21301630493538C34.37826979310205,33.50190519382427,32.24493645976871,32.83523852715761,31.044936459768717,33.45746074937983C28.600492015324267,33.81301630493538,25.933825348657603,35.013016304935384,23.26715868199094,36.613016304935385C22.689380904213163,36.96857186049094,22.244936459768713,37.546349638268715,21.88938090421316,38.301905193824275C21.88938090421316,38.301905193824275,21.88938090421316,38.301905193824275,21.88938090421316,38.301905193824275M39.267158681990935,30.035238527157603C40.20049201532426,29.768571860490937,40.91160312643538,31.05746074937983,40.600492015324264,32.47968297160205C40.15604757087982,34.74634963826872,39.356047570879824,38.47968297160205,39.356047570879824,41.72412741604649C39.356047570879824,42.21301630493539,39.62271423754649,43.324127416046494,38.77826979310204,43.36857186049094C37.48938090421315,43.14634963826872,37.44493645976871,41.235238527157605,37.66715868199093,39.67968297160205C37.66715868199093,39.67968297160205,38.91160312643538,31.81301630493538,38.91160312643538,31.81301630493538C38.644936459768715,31.05746074937983,38.95604757087982,30.524127416046497,39.267158681990935,30.035238527157603C39.267158681990935,30.035238527157603,39.267158681990935,30.035238527157603,39.267158681990935,30.035238527157603M43.62271423754649,34.07968297160205C43.93382534865759,34.87968297160205,44.02271423754648,35.10190519382427,43.40049201532426,35.76857186049094C42.378269793102035,35.50190519382427,42.467158681990924,34.96857186049094,42.91160312643538,34.168571860490935C43.00049201532427,34.168571860490935,43.267158681990935,34.12412741604649,43.62271423754649,34.07968297160205C43.62271423754649,34.07968297160205,43.62271423754649,34.07968297160205,43.62271423754649,34.07968297160205M42.378269793102035,43.05746074937983C41.57826979310204,42.1241274160465,42.02271423754648,39.81301630493538,42.3338253486576,38.34634963826872C42.6449364597687,37.90190519382427,43.222714237546484,37.99079408271316,43.356047570879824,38.613016304935385C43.31160312643537,40.21301630493539,43.66715868199093,41.81301630493538,43.267158681990935,43.235238527157605C42.91160312643538,43.324127416046494,42.91160312643538,43.235238527157605,42.378269793102035,43.05746074937983C42.378269793102035,43.05746074937983,42.378269793102035,43.05746074937983,42.378269793102035,43.05746074937983M44.600492015324264,40.83523852715761C44.600492015324264,38.25746074937983,46.86715868199093,37.67968297160205,49.48938090421315,37.546349638268715C50.95604757087982,37.50190519382427,51.48938090421315,38.25746074937983,52.11160312643537,39.10190519382427C52.15604757087982,39.72412741604649,52.20049201532426,40.83523852715761,51.80049201532427,40.96857186049094C50.733825348657604,40.87968297160205,48.55604757087983,41.546349638268715,47.40049201532426,41.45746074937983C47.31160312643537,41.546349638268715,47.31160312643537,41.59079408271316,47.31160312643537,41.59079408271316C47.31160312643537,41.72412741604649,47.844936459768704,41.94634963826872,48.95604757087982,42.25746074937983C49.889380904213155,42.25746074937983,52.02271423754648,42.65746074937983,50.3338253486576,43.235238527157605C49.93382534865759,43.857460749379825,48.82271423754649,43.50190519382427,47.844936459768704,43.50190519382427C46.644936459768715,43.27968297160205,44.600492015324264,42.25746074937983,44.600492015324264,40.83523852715761C44.600492015324264,40.83523852715761,44.600492015324264,40.83523852715761,44.600492015324264,40.83523852715761M49.889380904213155,38.83523852715761C48.91160312643538,38.924127416046495,46.86715868199093,39.05746074937983,47.00049201532427,39.990794082713165C48.06715868199093,39.90190519382427,49.93382534865759,40.21301630493539,50.511603126435375,39.72412741604649C50.28938090421315,39.14634963826872,50.467158681990924,39.14634963826872,49.889380904213155,38.83523852715761C49.889380904213155,38.83523852715761,49.889380904213155,38.83523852715761,49.889380904213155,38.83523852715761M57.889380904213155,37.324127416046494C59.5338253486576,37.59079408271316,60.6449364597687,39.72412741604649,60.6449364597687,42.25746074937983C60.6449364597687,43.67968297160205,59.93382534865759,43.36857186049094,59.267158681990935,43.013016304935384C58.467158681990924,41.67968297160205,59.04493645976871,41.013016304935384,58.28938090421315,39.235238527157605C56.644936459768715,38.65746074937983,55.133825348657595,41.67968297160205,54.20049201532426,42.1241274160465C53.31160312643537,41.990794082713165,52.467158681990924,40.390794082713164,53.267158681990935,39.36857186049094C53.356047570879824,38.83523852715761,53.40049201532426,38.701905193824274,53.756047570879815,38.0352385271576C54.28938090421315,37.67968297160205,54.644936459768715,38.5241274160465,55.04493645976871,38.56857186049094C55.04493645976871,38.56857186049094,57.889380904213155,37.324127416046494,57.889380904213155,37.324127416046494M64.91160312643538,36.701905193824274C65.35604757087984,34.87968297160205,66.46715868199094,31.101905193824273,67.80049201532428,30.74634963826872C67.97826979310206,30.790794082713163,68.86715868199094,31.59079408271316,68.28938090421316,32.34634963826872C67.53382534865761,33.324127416046494,67.00049201532428,34.87968297160205,66.68938090421317,36.96857186049094C67.84493645976872,37.324127416046494,68.91160312643538,36.65746074937983,69.9338253486576,37.19079408271316C70.55604757087983,37.19079408271316,70.91160312643538,37.324127416046494,70.91160312643538,37.59079408271316C70.86715868199094,38.43523852715761,68.95604757087983,38.390794082713164,68.37826979310205,38.613016304935385C67.9338253486576,38.65746074937983,66.33382534865761,38.613016304935385,65.97826979310206,39.05746074937983C65.53382534865761,40.1241274160465,65.80049201532428,42.03523852715761,65.08938090421316,43.41301630493538C64.15604757087984,43.27968297160205,63.93382534865761,43.45746074937983,63.93382534865761,42.5241274160465C63.93382534865761,42.1241274160465,64.0227142375465,40.924127416046495,64.28938090421316,38.924127416046495C63.622714237546504,38.34634963826872,60.689380904213166,39.324127416046494,60.867158681990944,37.72412741604649C61.04493645976872,36.0352385271576,64.0227142375465,37.99079408271316,64.91160312643538,36.701905193824274C64.91160312643538,36.701905193824274,64.91160312643538,36.701905193824274,64.91160312643538,36.701905193824274" style="-webkit-tap-highlight-color: rgba(0, 0, 0, 0);"></path><path fill="#ffffff" stroke="#000000" d="M10,147.49794392003565C30.720267638637278,144.66147979497825,46.12431219706284,150.33440804509306,80.91160312643538,147.49794392003565C79.56748148658365,173.26684318271543,82.25572476628712,171.90033151257137,80.91160312643538,181.10098491632905C51.70661867834071,183.93744904138646,43.738842984175925,178.26452079127165,10,181.10098491632905C8.655878360148265,166.35484863020588,11.344121639851735,181.32138577393334,10,147.49794392003565" stroke-width="2" style="-webkit-tap-highlight-color: rgba(0, 0, 0, 0);"></path><rect x="20" y="157.49794392003565" width="50.91160312643538" height="13.603040996293373" rx="0" ry="0" fill="#ffffff" stroke="none" style="-webkit-tap-highlight-color: rgba(0, 0, 0, 0);"></rect><path fill="#000000" stroke="none" d="M21.88938090421316,165.79984911385995C21.356047570879827,169.1331824471933,26.156047570879824,169.17762689163771,29.26715868199094,168.95540466941551C29.26715868199094,168.95540466941551,35.71160312643538,168.51096022497106,35.71160312643538,168.51096022497106C36.111603126435384,168.59984911385993,36.111603126435384,168.7331824471933,36.111603126435384,169.31096022497107C34.46715868199094,170.11096022497105,32.3338253486576,170.5554046694155,31.26715868199094,170.28873800274883C30.46715868199094,170.7331824471933,29.17826979310205,170.7331824471933,28.11160312643538,170.7331824471933C26.822714237546496,170.7331824471933,25.08938090421316,170.7776268916377,23.444936459768716,170.24429355830438C23.17826979310205,170.19984911385995,23.000492015324273,170.11096022497105,23.000492015324273,169.88873800274882C21.533825348657604,169.31096022497107,20.86715868199094,168.42207133608215,20.067158681990936,167.26651578052662C19.222714237546494,162.19984911385995,26.55604757087983,160.59984911385993,30.02271423754649,159.39984911385994C31.57826979310205,159.39984911385994,33.93382534865761,158.02207133608218,34.42271423754649,159.71096022497105C34.37826979310205,160.99984911385994,32.24493645976871,160.33318244719328,31.044936459768717,160.9554046694155C28.600492015324267,161.31096022497107,25.933825348657603,162.51096022497106,23.26715868199094,164.11096022497105C22.689380904213163,164.4665157805266,22.244936459768713,165.0442935583044,21.88938090421316,165.79984911385995C21.88938090421316,165.79984911385995,21.88938090421316,165.79984911385995,21.88938090421316,165.79984911385995M39.267158681990935,157.53318244719327C40.20049201532426,157.26651578052662,40.91160312643538,158.5554046694155,40.600492015324264,159.97762689163773C40.15604757087982,162.24429355830438,39.356047570879824,165.97762689163773,39.356047570879824,169.22207133608217C39.356047570879824,169.71096022497105,39.62271423754649,170.82207133608216,38.77826979310204,170.8665157805266C37.48938090421315,170.64429355830438,37.44493645976871,168.7331824471933,37.66715868199093,167.17762689163771C37.66715868199093,167.17762689163771,38.91160312643538,159.31096022497107,38.91160312643538,159.31096022497107C38.644936459768715,158.5554046694155,38.95604757087982,158.02207133608218,39.267158681990935,157.53318244719327C39.267158681990935,157.53318244719327,39.267158681990935,157.53318244719327,39.267158681990935,157.53318244719327M43.62271423754649,161.57762689163772C43.93382534865759,162.37762689163773,44.02271423754648,162.59984911385993,43.40049201532426,163.26651578052662C42.378269793102035,162.99984911385994,42.467158681990924,162.4665157805266,42.91160312643538,161.66651578052662C43.00049201532427,161.66651578052662,43.267158681990935,161.62207133608217,43.62271423754649,161.57762689163772C43.62271423754649,161.57762689163772,43.62271423754649,161.57762689163772,43.62271423754649,161.57762689163772M42.378269793102035,170.5554046694155C41.57826979310204,169.62207133608217,42.02271423754648,167.31096022497107,42.3338253486576,165.8442935583044C42.6449364597687,165.39984911385994,43.222714237546484,165.48873800274885,43.356047570879824,166.11096022497105C43.31160312643537,167.71096022497105,43.66715868199093,169.31096022497107,43.267158681990935,170.7331824471933C42.91160312643538,170.82207133608216,42.91160312643538,170.7331824471933,42.378269793102035,170.5554046694155C42.378269793102035,170.5554046694155,42.378269793102035,170.5554046694155,42.378269793102035,170.5554046694155M44.600492015324264,168.33318244719328C44.600492015324264,165.7554046694155,46.86715868199093,165.17762689163771,49.48938090421315,165.0442935583044C50.95604757087982,164.99984911385994,51.48938090421315,165.7554046694155,52.11160312643537,166.59984911385993C52.15604757087982,167.22207133608217,52.20049201532426,168.33318244719328,51.80049201532427,168.4665157805266C50.733825348657604,168.37762689163773,48.55604757087983,169.0442935583044,47.40049201532426,168.95540466941551C47.31160312643537,169.0442935583044,47.31160312643537,169.08873800274884,47.31160312643537,169.08873800274884C47.31160312643537,169.22207133608217,47.844936459768704,169.4442935583044,48.95604757087982,169.7554046694155C49.889380904213155,169.7554046694155,52.02271423754648,170.1554046694155,50.3338253486576,170.7331824471933C49.93382534865759,171.3554046694155,48.82271423754649,170.99984911385994,47.844936459768704,170.99984911385994C46.644936459768715,170.7776268916377,44.600492015324264,169.7554046694155,44.600492015324264,168.33318244719328C44.600492015324264,168.33318244719328,44.600492015324264,168.33318244719328,44.600492015324264,168.33318244719328M49.889380904213155,166.33318244719328C48.91160312643538,166.42207133608215,46.86715868199093,166.5554046694155,47.00049201532427,167.48873800274885C48.06715868199093,167.39984911385994,49.93382534865759,167.71096022497105,50.511603126435375,167.22207133608217C50.28938090421315,166.64429355830438,50.467158681990924,166.64429355830438,49.889380904213155,166.33318244719328C49.889380904213155,166.33318244719328,49.889380904213155,166.33318244719328,49.889380904213155,166.33318244719328M57.889380904213155,164.82207133608216C59.5338253486576,165.08873800274884,60.6449364597687,167.22207133608217,60.6449364597687,169.7554046694155C60.6449364597687,171.17762689163771,59.93382534865759,170.8665157805266,59.267158681990935,170.51096022497106C58.467158681990924,169.17762689163771,59.04493645976871,168.51096022497106,58.28938090421315,166.7331824471933C56.644936459768715,166.1554046694155,55.133825348657595,169.17762689163771,54.20049201532426,169.62207133608217C53.31160312643537,169.48873800274885,52.467158681990924,167.88873800274882,53.267158681990935,166.8665157805266C53.356047570879824,166.33318244719328,53.40049201532426,166.19984911385995,53.756047570879815,165.53318244719327C54.28938090421315,165.17762689163771,54.644936459768715,166.02207133608218,55.04493645976871,166.0665157805266C55.04493645976871,166.0665157805266,57.889380904213155,164.82207133608216,57.889380904213155,164.82207133608216M64.91160312643538,164.19984911385995C65.35604757087984,162.37762689163773,66.46715868199094,158.59984911385993,67.80049201532428,158.24429355830438C67.97826979310206,158.28873800274883,68.86715868199094,159.08873800274884,68.28938090421316,159.8442935583044C67.53382534865761,160.82207133608216,67.00049201532428,162.37762689163773,66.68938090421317,164.4665157805266C67.84493645976872,164.82207133608216,68.91160312643538,164.1554046694155,69.9338253486576,164.68873800274883C70.55604757087983,164.68873800274883,70.91160312643538,164.82207133608216,70.91160312643538,165.08873800274884C70.86715868199094,165.93318244719327,68.95604757087983,165.88873800274882,68.37826979310205,166.11096022497105C67.9338253486576,166.1554046694155,66.33382534865761,166.11096022497105,65.97826979310206,166.5554046694155C65.53382534865761,167.62207133608217,65.80049201532428,169.53318244719327,65.08938090421316,170.91096022497106C64.15604757087984,170.7776268916377,63.93382534865761,170.95540466941551,63.93382534865761,170.02207133608218C63.93382534865761,169.62207133608217,64.0227142375465,168.42207133608215,64.28938090421316,166.42207133608215C63.622714237546504,165.8442935583044,60.689380904213166,166.82207133608216,60.867158681990944,165.22207133608217C61.04493645976872,163.53318244719327,64.0227142375465,165.48873800274885,64.91160312643538,164.19984911385995C64.91160312643538,164.19984911385995,64.91160312643538,164.19984911385995,64.91160312643538,164.19984911385995" style="-webkit-tap-highlight-color: rgba(0, 0, 0, 0);"></path><path fill="none" stroke="#000000" d="M45.45580156321769,53.60304099629341C41.700005446268,90.68841491510037,49.21159768016738,83.5494400214441,45.45580156321769,147.49794392003565" stroke-width="2" style="-webkit-tap-highlight-color: rgba(0, 0, 0, 0);"></path><path fill="#ffffff" stroke="#000000" d="M100.91160312643538,20C115.57862146299682,16.916803254674974,114.72087030189611,23.083196745325026,177.99152175956107,20C176.64740011970932,40.98885105952011,179.33564339941282,25.608887961070426,177.99152175956107,53.60304099629341C148.84316998308842,56.686237741618434,103.56496594866215,50.51984425096838,100.91160312643538,53.60304099629341C99.56748148658365,38.083979772589025,102.25572476628712,38.150900956364985,100.91160312643538,20" stroke-width="2" style="-webkit-tap-highlight-color: rgba(0, 0, 0, 0);"></path><rect x="110.91160312643538" y="30.59539704135658" width="57.079918633125686" height="12.412246913580244" rx="0" ry="0" fill="#ffffff" stroke="none" style="-webkit-tap-highlight-color: rgba(0, 0, 0, 0);"></rect><path fill="#000000" stroke="none" d="M111.48117254448545,42.63984148580103C111.17006143337434,42.50650815246769,110.50339476670766,41.839841485801024,111.25895032226322,41.66206370802325C114.28117254448543,40.99539704135658,116.54783921115211,40.23984148580102,118.10339476670765,39.66206370802325C120.37006143337433,38.817619263578806,119.836728100041,38.150952596912134,118.236728100041,37.306508152467686C116.19228365559655,36.19539704135658,114.59228365559656,35.97317481913436,112.85895032226321,34.46206370802325C111.39228365559654,33.17317481913436,110.63672810004098,32.906508152467694,111.7478392111521,31.88428593024547C113.39228365559654,30.99539704135658,117.03672810004099,30.59539704135658,119.79228365559655,30.59539704135658C121.08117254448544,30.59539704135658,121.7478392111521,30.862063708023246,121.7478392111521,31.395397041356578C121.34783921115212,32.55095259691214,118.99228365559657,31.662063708023247,117.12561698892989,32.0176192635788C116.37006143337433,32.10650815246769,113.92561698892987,32.284285930245474,113.03672810004099,32.72873037468992C114.68117254448543,35.08428593024547,118.90339476670766,35.306508152467686,121.03672810004099,37.66206370802325C121.39228365559654,38.062063708023246,121.5256169889299,38.55095259691214,121.5256169889299,38.99539704135658C121.34783921115212,39.750952596912136,120.50339476670766,40.55095259691214,119.65895032226322,40.50650815246769C118.72561698892989,41.2176192635788,118.90339476670766,40.55095259691214,117.48117254448545,41.26206370802325C116.85895032226321,41.57317481913436,115.65895032226322,41.66206370802325,114.99228365559657,42.150952596912134C113.88117254448545,42.0176192635788,112.81450587781876,42.59539704135658,111.48117254448545,42.63984148580103C111.48117254448545,42.63984148580103,111.48117254448545,42.63984148580103,111.48117254448545,42.63984148580103M121.48117254448545,40.23984148580102C121.48117254448545,37.66206370802325,123.74783921115213,37.08428593024547,126.37006143337433,36.95095259691213C127.836728100041,36.906508152467694,128.37006143337433,37.66206370802325,128.99228365559657,38.50650815246769C129.036728100041,39.12873037468991,129.08117254448544,40.23984148580102,128.68117254448543,40.37317481913436C127.61450587781877,40.284285930245474,125.436728100041,40.95095259691213,124.28117254448546,40.86206370802324C124.19228365559655,40.95095259691213,124.19228365559655,40.99539704135658,124.19228365559655,40.99539704135658C124.19228365559655,41.12873037468991,124.72561698892989,41.35095259691214,125.836728100041,41.66206370802325C126.77006143337434,41.66206370802325,128.90339476670766,42.062063708023246,127.2145058778188,42.63984148580103C126.81450587781879,43.26206370802325,125.70339476670767,42.906508152467694,124.72561698892989,42.906508152467694C123.5256169889299,42.684285930245466,121.48117254448545,41.66206370802325,121.48117254448545,40.23984148580102C121.48117254448545,40.23984148580102,121.48117254448545,40.23984148580102,121.48117254448545,40.23984148580102M126.77006143337434,38.23984148580102C125.79228365559655,38.32873037468991,123.74783921115213,38.46206370802325,123.88117254448545,39.39539704135658C124.94783921115211,39.306508152467686,126.81450587781879,39.6176192635788,127.39228365559657,39.12873037468991C127.17006143337434,38.55095259691214,127.34783921115212,38.55095259691214,126.77006143337434,38.23984148580102C126.77006143337434,38.23984148580102,126.77006143337434,38.23984148580102,126.77006143337434,38.23984148580102M140.1478392111521,37.57317481913436C140.23672810004098,38.55095259691214,140.37006143337433,38.0176192635788,139.52561698892987,38.59539704135658C136.28117254448543,38.284285930245474,132.1478392111521,37.57317481913436,131.79228365559655,41.08428593024547C131.436728100041,41.35095259691214,131.65895032226322,41.97317481913436,131.436728100041,42.684285930245466C130.1478392111521,43.12873037468991,129.65895032226322,42.284285930245474,129.97006143337433,40.63984148580103C130.23672810004098,39.26206370802325,130.28117254448543,37.57317481913436,131.39228365559654,38.19539704135658C133.97006143337433,36.55095259691214,134.32561698892988,36.32873037468991,139.17006143337431,37.35095259691214C139.30339476670764,37.57317481913436,139.836728100041,37.528730374689914,140.1478392111521,37.57317481913436C140.1478392111521,37.57317481913436,140.1478392111521,37.57317481913436,140.1478392111521,37.57317481913436M140.636728100041,37.12873037468991C140.636728100041,37.12873037468991,142.94783921115211,40.284285930245474,142.94783921115211,40.284285930245474C144.8145058778188,39.57317481913436,146.05895032226323,37.88428593024547,148.45895032226323,37.395397041356574C148.68117254448546,37.57317481913436,148.8145058778188,37.70650815246769,148.8145058778188,37.88428593024547C148.45895032226323,38.72873037468992,148.636728100041,38.23984148580102,147.34783921115212,39.306508152467686C147.34783921115212,39.35095259691214,147.30339476670767,39.439841485801026,147.30339476670767,39.528730374689914C144.59228365559656,41.528730374689914,143.17006143337434,42.55095259691214,142.99228365559657,42.55095259691214C141.2145058778188,41.88428593024547,140.77006143337434,39.35095259691214,139.97006143337435,38.10650815246769C140.236728100041,37.48428593024547,140.41450587781878,37.12873037468991,140.636728100041,37.12873037468991C140.636728100041,37.12873037468991,140.636728100041,37.12873037468991,140.636728100041,37.12873037468991M149.25895032226322,40.23984148580102C149.25895032226322,37.66206370802325,151.5256169889299,37.08428593024547,154.1478392111521,36.95095259691213C155.61450587781877,36.906508152467694,156.1478392111521,37.66206370802325,156.77006143337434,38.50650815246769C156.81450587781876,39.12873037468991,156.8589503222632,40.23984148580102,156.4589503222632,40.37317481913436C155.39228365559654,40.284285930245474,153.21450587781877,40.95095259691213,152.05895032226323,40.86206370802324C151.97006143337433,40.95095259691213,151.97006143337433,40.99539704135658,151.97006143337433,40.99539704135658C151.97006143337433,41.12873037468991,152.50339476670766,41.35095259691214,153.61450587781877,41.66206370802325C154.5478392111521,41.66206370802325,156.68117254448543,42.062063708023246,154.99228365559657,42.63984148580103C154.59228365559656,43.26206370802325,153.48117254448545,42.906508152467694,152.50339476670766,42.906508152467694C151.30339476670767,42.684285930245466,149.25895032226322,41.66206370802325,149.25895032226322,40.23984148580102C149.25895032226322,40.23984148580102,149.25895032226322,40.23984148580102,149.25895032226322,40.23984148580102M154.5478392111521,38.23984148580102C153.57006143337432,38.32873037468991,151.5256169889299,38.46206370802325,151.65895032226322,39.39539704135658C152.7256169889299,39.306508152467686,154.59228365559656,39.6176192635788,155.17006143337434,39.12873037468991C154.94783921115211,38.55095259691214,155.1256169889299,38.55095259691214,154.5478392111521,38.23984148580102C154.5478392111521,38.23984148580102,154.5478392111521,38.23984148580102,154.5478392111521,38.23984148580102M167.92561698892987,37.57317481913436C168.01450587781875,38.55095259691214,168.1478392111521,38.0176192635788,167.30339476670764,38.59539704135658C164.0589503222632,38.284285930245474,159.92561698892987,37.57317481913436,159.57006143337432,41.08428593024547C159.21450587781877,41.35095259691214,159.436728100041,41.97317481913436,159.21450587781877,42.684285930245466C157.92561698892987,43.12873037468991,157.436728100041,42.284285930245474,157.7478392111521,40.63984148580103C158.01450587781875,39.26206370802325,158.0589503222632,37.57317481913436,159.17006143337431,38.19539704135658C161.7478392111521,36.55095259691214,162.10339476670765,36.32873037468991,166.9478392111521,37.35095259691214C167.0811725444854,37.57317481913436,167.61450587781877,37.528730374689914,167.92561698892987,37.57317481913436C167.92561698892987,37.57317481913436,167.92561698892987,37.57317481913436,167.92561698892987,37.57317481913436" style="-webkit-tap-highlight-color: rgba(0, 0, 0, 0);"></path><path fill="#ffffff" stroke="#000000" d="M100.91160312643538,147.49794392003565C117.97394548453903,150.5811406653607,115.43800563337697,144.4147471747106,177.99152175956107,147.49794392003565C179.33564339941282,166.48922910043413,176.64740011970932,171.6127830946042,177.99152175956107,181.10098491632905C120.71586215943188,178.017788171004,150.56182667385428,184.1841816616541,100.91160312643538,181.10098491632905C99.56748148658365,163.22405344846698,102.25572476628712,180.65123482337194,100.91160312643538,147.49794392003565" stroke-width="2" style="-webkit-tap-highlight-color: rgba(0, 0, 0, 0);"></path><rect x="110.91160312643538" y="158.09334096139224" width="57.079918633125686" height="12.412246913580248" rx="0" ry="0" fill="#ffffff" stroke="none" style="-webkit-tap-highlight-color: rgba(0, 0, 0, 0);"></rect><path fill="#000000" stroke="none" d="M111.48117254448545,170.13778540583672C111.17006143337434,170.00445207250334,110.50339476670766,169.3377854058367,111.25895032226322,169.1600076280589C114.28117254448543,168.49334096139228,116.54783921115211,167.7377854058367,118.10339476670765,167.1600076280589C120.37006143337433,166.31556318361447,119.836728100041,165.6488965169478,118.236728100041,164.80445207250335C116.19228365559655,163.69334096139227,114.59228365559656,163.47111873917004,112.85895032226321,161.96000762805892C111.39228365559654,160.67111873917003,110.63672810004098,160.40445207250337,111.7478392111521,159.38222985028113C113.39228365559654,158.49334096139228,117.03672810004099,158.09334096139224,119.79228365559655,158.09334096139224C121.08117254448544,158.09334096139224,121.7478392111521,158.3600076280589,121.7478392111521,158.89334096139225C121.34783921115212,160.04889651694782,118.99228365559657,159.1600076280589,117.12561698892989,159.51556318361446C116.37006143337433,159.60445207250336,113.92561698892987,159.78222985028117,113.03672810004099,160.22667429472557C114.68117254448543,162.58222985028112,118.90339476670766,162.80445207250335,121.03672810004099,165.1600076280589C121.39228365559654,165.56000762805894,121.5256169889299,166.04889651694782,121.5256169889299,166.49334096139228C121.34783921115212,167.2488965169478,120.50339476670766,168.04889651694782,119.65895032226322,168.00445207250334C118.72561698892989,168.7155631836145,118.90339476670766,168.04889651694782,117.48117254448545,168.76000762805893C116.85895032226321,169.07111873917006,115.65895032226322,169.1600076280589,114.99228365559657,169.6488965169478C113.88117254448545,169.51556318361446,112.81450587781876,170.09334096139224,111.48117254448545,170.13778540583672C111.48117254448545,170.13778540583672,111.48117254448545,170.13778540583672,111.48117254448545,170.13778540583672M121.48117254448545,167.7377854058367C121.48117254448545,165.1600076280589,123.74783921115213,164.58222985028112,126.37006143337433,164.4488965169478C127.836728100041,164.40445207250337,128.37006143337433,165.1600076280589,128.99228365559657,166.00445207250334C129.036728100041,166.6266742947256,129.08117254448544,167.7377854058367,128.68117254448543,167.87111873917002C127.61450587781877,167.78222985028117,125.436728100041,168.4488965169478,124.28117254448546,168.36000762805895C124.19228365559655,168.4488965169478,124.19228365559655,168.49334096139228,124.19228365559655,168.49334096139228C124.19228365559655,168.6266742947256,124.72561698892989,168.84889651694783,125.836728100041,169.1600076280589C126.77006143337434,169.1600076280589,128.90339476670766,169.56000762805894,127.2145058778188,170.13778540583672C126.81450587781879,170.76000762805893,125.70339476670767,170.40445207250337,124.72561698892989,170.40445207250337C123.5256169889299,170.18222985028115,121.48117254448545,169.1600076280589,121.48117254448545,167.7377854058367C121.48117254448545,167.7377854058367,121.48117254448545,167.7377854058367,121.48117254448545,167.7377854058367M126.77006143337434,165.7377854058367C125.79228365559655,165.8266742947256,123.74783921115213,165.96000762805892,123.88117254448545,166.89334096139225C124.94783921115211,166.80445207250335,126.81450587781879,167.11556318361448,127.39228365559657,166.6266742947256C127.17006143337434,166.04889651694782,127.34783921115212,166.04889651694782,126.77006143337434,165.7377854058367C126.77006143337434,165.7377854058367,126.77006143337434,165.7377854058367,126.77006143337434,165.7377854058367M140.1478392111521,165.07111873917006C140.23672810004098,166.04889651694782,140.37006143337433,165.51556318361446,139.52561698892987,166.09334096139224C136.28117254448543,165.78222985028117,132.1478392111521,165.07111873917006,131.79228365559655,168.58222985028112C131.436728100041,168.84889651694783,131.65895032226322,169.47111873917004,131.436728100041,170.18222985028115C130.1478392111521,170.6266742947256,129.65895032226322,169.78222985028117,129.97006143337433,168.13778540583672C130.23672810004098,166.76000762805893,130.28117254448543,165.07111873917006,131.39228365559654,165.69334096139227C133.97006143337433,164.04889651694782,134.32561698892988,163.8266742947256,139.17006143337431,164.84889651694783C139.30339476670764,165.07111873917006,139.836728100041,165.02667429472558,140.1478392111521,165.07111873917006C140.1478392111521,165.07111873917006,140.1478392111521,165.07111873917006,140.1478392111521,165.07111873917006M140.636728100041,164.6266742947256C140.636728100041,164.6266742947256,142.94783921115211,167.78222985028117,142.94783921115211,167.78222985028117C144.8145058778188,167.07111873917006,146.05895032226323,165.38222985028113,148.45895032226323,164.89334096139225C148.68117254448546,165.07111873917006,148.8145058778188,165.2044520725034,148.8145058778188,165.38222985028113C148.45895032226323,166.22667429472557,148.636728100041,165.7377854058367,147.34783921115212,166.80445207250335C147.34783921115212,166.84889651694783,147.30339476670767,166.93778540583668,147.30339476670767,167.02667429472558C144.59228365559656,169.02667429472558,143.17006143337434,170.04889651694782,142.99228365559657,170.04889651694782C141.2145058778188,169.38222985028113,140.77006143337434,166.84889651694783,139.97006143337435,165.60445207250336C140.236728100041,164.98222985028116,140.41450587781878,164.6266742947256,140.636728100041,164.6266742947256C140.636728100041,164.6266742947256,140.636728100041,164.6266742947256,140.636728100041,164.6266742947256M149.25895032226322,167.7377854058367C149.25895032226322,165.1600076280589,151.5256169889299,164.58222985028112,154.1478392111521,164.4488965169478C155.61450587781877,164.40445207250337,156.1478392111521,165.1600076280589,156.77006143337434,166.00445207250334C156.81450587781876,166.6266742947256,156.8589503222632,167.7377854058367,156.4589503222632,167.87111873917002C155.39228365559654,167.78222985028117,153.21450587781877,168.4488965169478,152.05895032226323,168.36000762805895C151.97006143337433,168.4488965169478,151.97006143337433,168.49334096139228,151.97006143337433,168.49334096139228C151.97006143337433,168.6266742947256,152.50339476670766,168.84889651694783,153.61450587781877,169.1600076280589C154.5478392111521,169.1600076280589,156.68117254448543,169.56000762805894,154.99228365559657,170.13778540583672C154.59228365559656,170.76000762805893,153.48117254448545,170.40445207250337,152.50339476670766,170.40445207250337C151.30339476670767,170.18222985028115,149.25895032226322,169.1600076280589,149.25895032226322,167.7377854058367C149.25895032226322,167.7377854058367,149.25895032226322,167.7377854058367,149.25895032226322,167.7377854058367M154.5478392111521,165.7377854058367C153.57006143337432,165.8266742947256,151.5256169889299,165.96000762805892,151.65895032226322,166.89334096139225C152.7256169889299,166.80445207250335,154.59228365559656,167.11556318361448,155.17006143337434,166.6266742947256C154.94783921115211,166.04889651694782,155.1256169889299,166.04889651694782,154.5478392111521,165.7377854058367C154.5478392111521,165.7377854058367,154.5478392111521,165.7377854058367,154.5478392111521,165.7377854058367M167.92561698892987,165.07111873917006C168.01450587781875,166.04889651694782,168.1478392111521,165.51556318361446,167.30339476670764,166.09334096139224C164.0589503222632,165.78222985028117,159.92561698892987,165.07111873917006,159.57006143337432,168.58222985028112C159.21450587781877,168.84889651694783,159.436728100041,169.47111873917004,159.21450587781877,170.18222985028115C157.92561698892987,170.6266742947256,157.436728100041,169.78222985028117,157.7478392111521,168.13778540583672C158.01450587781875,166.76000762805893,158.0589503222632,165.07111873917006,159.17006143337431,165.69334096139227C161.7478392111521,164.04889651694782,162.10339476670765,163.8266742947256,166.9478392111521,164.84889651694783C167.0811725444854,165.07111873917006,167.61450587781877,165.02667429472558,167.92561698892987,165.07111873917006C167.92561698892987,165.07111873917006,167.92561698892987,165.07111873917006,167.92561698892987,165.07111873917006" style="-webkit-tap-highlight-color: rgba(0, 0, 0, 0);"></path><path fill="none" stroke="#000000" d="M139.45156244299824,53.60304099629341C135.69576632604856,111.92056379810249,143.20735855994792,80.32342576593578,139.45156244299824,147.49794392003565" stroke-width="2" style="-webkit-tap-highlight-color: rgba(0, 0, 0, 0);"></path><rect x="64.57565821766804" y="68.5667006455334" width="55.75604757087984" height="20.072680701520014" rx="0" ry="0" fill="#ffffff" stroke="none" style="-webkit-tap-highlight-color: rgba(0, 0, 0, 0);"></rect><path fill="#000000" stroke="none" d="M66.4650391218812,75.49631842331118C65.93170578854787,78.82965175664451,70.73170578854788,78.87409620108896,73.842816899659,78.65187397886673C73.842816899659,78.65187397886673,80.28726134410343,78.20742953442229,80.28726134410343,78.20742953442229C80.68726134410343,78.29631842331118,80.68726134410343,78.4296517566445,80.68726134410343,79.00742953442229C79.04281689965899,79.80742953442228,76.90948356632566,80.25187397886673,75.842816899659,79.98520731220006C75.04281689965899,80.4296517566445,73.7539280107701,80.4296517566445,72.68726134410343,80.4296517566445C71.39837245521454,80.4296517566445,69.66503912188122,80.47409620108895,68.02059467743678,79.94076286775562C67.7539280107701,79.89631842331117,67.57615023299232,79.80742953442228,67.57615023299232,79.58520731220007C66.10948356632565,79.00742953442229,65.442816899659,78.1185406455334,64.64281689965898,76.96298508997785C63.79837245521454,71.89631842331117,71.13170578854789,70.29631842331118,74.59837245521456,69.09631842331117C76.1539280107701,69.09631842331117,78.50948356632566,67.7185406455334,78.99837245521454,69.40742953442228C78.95392801077011,70.69631842331117,76.82059467743676,70.02965175664451,75.62059467743677,70.65187397886673C73.17615023299231,71.00742953442229,70.50948356632566,72.20742953442229,67.842816899659,73.80742953442228C67.26503912188122,74.16298508997784,66.82059467743676,74.74076286775562,66.4650391218812,75.49631842331118C66.4650391218812,75.49631842331118,66.4650391218812,75.49631842331118,66.4650391218812,75.49631842331118M85.70948356632564,74.38520731220007C88.02059467743678,73.3185406455334,90.33170578854788,75.18520731220006,90.33170578854788,77.18520731220006C90.33170578854788,79.80742953442228,87.39837245521454,80.16298508997784,85.26503912188122,80.87409620108896C82.95392801077011,80.78520731220007,80.1539280107701,78.65187397886673,81.70948356632564,76.20742953442229C82.73170578854788,75.40742953442229,84.02059467743678,74.65187397886673,85.70948356632564,74.38520731220007C85.70948356632564,74.38520731220007,85.70948356632564,74.38520731220007,85.70948356632564,74.38520731220007M82.90948356632566,77.89631842331117C83.62059467743677,80.29631842331118,88.4650391218812,78.6074295344223,88.73170578854788,76.87409620108896C88.19837245521455,74.25187397886673,82.99837245521454,76.51854064553339,82.90948356632566,77.89631842331117C82.90948356632566,77.89631842331117,82.90948356632566,77.89631842331117,82.90948356632566,77.89631842331117M95.93170578854787,74.51854064553339C97.57615023299232,74.78520731220007,98.68726134410343,76.9185406455334,98.68726134410343,79.45187397886673C98.68726134410343,80.87409620108896,97.97615023299232,80.56298508997784,97.30948356632567,80.20742953442229C96.50948356632566,78.87409620108896,97.08726134410344,78.20742953442229,96.33170578854788,76.4296517566445C94.68726134410343,75.85187397886673,93.17615023299231,78.87409620108896,92.24281689965898,79.3185406455334C91.35392801077009,79.18520731220006,90.50948356632566,77.58520731220007,91.30948356632567,76.56298508997784C91.39837245521454,76.02965175664451,91.442816899659,75.89631842331117,91.79837245521455,75.22965175664451C92.33170578854788,74.87409620108896,92.68726134410343,75.7185406455334,93.08726134410344,75.76298508997785C93.08726134410344,75.76298508997785,95.93170578854787,74.51854064553339,95.93170578854787,74.51854064553339M99.44281689965902,77.94076286775562C99.70948356632567,76.65187397886673,101.79837245521458,77.76298508997785,101.79837245521458,76.02965175664451C101.79837245521458,73.18520731220006,103.08726134410344,70.78520731220006,105.5317057885479,69.36298508997784C107.5317057885479,68.25187397886673,112.95392801077011,68.29631842331118,112.42059467743678,71.6296517566445C112.37615023299233,71.7185406455334,112.10948356632568,71.89631842331117,112.42059467743678,71.89631842331117C112.42059467743678,71.89631842331117,111.97615023299235,71.98520731220006,111.97615023299235,71.98520731220006C109.97615023299235,69.40742953442228,104.64281689965901,70.25187397886673,103.70948356632567,73.7185406455334C103.39837245521457,74.87409620108896,103.2205946774368,75.58520731220007,103.30948356632567,76.47409620108895C105.26503912188124,76.82965175664451,107.5317057885479,75.54076286775562,109.30948356632567,76.16298508997784C108.77615023299234,77.27409620108895,107.57615023299235,77.09631842331117,105.9317057885479,77.49631842331118C105.08726134410344,77.7185406455334,105.13170578854789,77.80742953442228,103.5317057885479,78.34076286775561C103.44281689965902,78.69631842331118,104.19837245521455,79.76298508997785,104.28726134410346,79.89631842331117C104.02059467743678,81.00742953442229,103.13170578854789,81.05187397886674,102.50948356632568,79.67409620108896C102.50948356632568,79.67409620108896,101.842816899659,78.6074295344223,101.842816899659,78.6074295344223C100.02059467743678,79.05187397886674,99.88726134410345,79.14076286775563,99.44281689965902,77.94076286775562C99.44281689965902,77.94076286775562,99.44281689965902,77.94076286775562,99.44281689965902,77.94076286775562M112.33170578854788,71.27409620108895C112.64281689965898,72.07409620108895,112.73170578854788,72.29631842331118,112.10948356632565,72.96298508997785C111.08726134410344,72.69631842331117,111.17615023299231,72.16298508997784,111.62059467743677,71.36298508997784C111.70948356632564,71.36298508997784,111.97615023299232,71.3185406455334,112.33170578854788,71.27409620108895C112.33170578854788,71.27409620108895,112.33170578854788,71.27409620108895,112.33170578854788,71.27409620108895M111.08726134410344,80.25187397886673C110.28726134410343,79.3185406455334,110.73170578854788,77.00742953442229,111.04281689965899,75.54076286775562C111.35392801077009,75.09631842331117,111.93170578854787,75.18520731220006,112.0650391218812,75.80742953442228C112.02059467743678,77.40742953442229,112.37615023299233,79.00742953442229,111.97615023299232,80.4296517566445C111.62059467743677,80.51854064553339,111.62059467743677,80.4296517566445,111.08726134410344,80.25187397886673C111.08726134410344,80.25187397886673,111.08726134410344,80.25187397886673,111.08726134410344,80.25187397886673M118.99837245521456,76.25187397886673C120.33170578854788,77.45187397886673,119.9317057885479,79.58520731220007,120.33170578854788,81.45187397886673C119.79837245521455,82.82965175664451,119.842816899659,84.38520731220007,118.73170578854788,86.02965175664451C117.30948356632567,88.07409620108895,114.06503912188123,89.7185406455334,111.30948356632567,87.76298508997785C109.9317057885479,86.82965175664451,109.13170578854789,86.47409620108895,109.04281689965899,84.4296517566445C108.95392801077011,82.78520731220007,112.46503912188123,82.20742953442229,114.42059467743678,81.89631842331117C116.06503912188123,81.6296517566445,117.442816899659,81.45187397886673,118.64281689965901,81.40742953442229C118.95392801077011,81.14076286775563,118.77615023299234,79.98520731220006,118.82059467743679,79.36298508997784C118.82059467743679,79.36298508997784,118.77615023299234,79.40742953442229,118.77615023299234,79.45187397886673C118.77615023299234,78.65187397886673,118.55392801077011,78.07409620108895,118.1539280107701,77.45187397886673C116.19837245521455,77.67409620108896,114.64281689965901,78.34076286775561,113.97615023299232,76.65187397886673C114.10948356632568,74.25187397886673,117.2205946774368,74.25187397886673,119.5317057885479,74.4296517566445C120.06503912188123,74.74076286775562,120.06503912188123,75.00742953442229,119.70948356632567,75.54076286775562C118.37615023299233,75.05187397886674,116.33170578854788,75.89631842331117,115.70948356632567,76.4296517566445C116.73170578854788,76.56298508997784,117.9317057885479,75.7185406455334,118.99837245521456,76.25187397886673C118.99837245521456,76.25187397886673,118.99837245521456,76.25187397886673,118.99837245521456,76.25187397886673M111.62059467743677,85.94076286775562C114.28726134410346,88.29631842331118,119.08726134410344,85.98520731220006,118.68726134410343,82.1185406455334C116.59837245521456,81.80742953442228,114.55392801077011,83.18520731220006,112.37615023299233,83.45187397886673C111.842816899659,83.76298508997785,110.37615023299233,84.29631842331118,110.50948356632566,84.74076286775562C110.50948356632566,85.18520731220006,110.86503912188121,85.58520731220007,111.62059467743677,85.94076286775562C111.62059467743677,85.94076286775562,111.62059467743677,85.94076286775562,111.62059467743677,85.94076286775562" style="-webkit-tap-highlight-color: rgba(0, 0, 0, 0);"></path><path fill="none" stroke="#000000" d="M45.45580156321769,93.67572169781343C88.31270732889791,97.32218810499046,82.77964762640202,90.35909313337544,134.4622505674131,93.36577397889191" stroke-width="2" marker-end="url(#raphael-marker-endblock55-obj960)" stroke-dasharray="0" style="-webkit-tap-highlight-color: rgba(0, 0, 0, 0);"></path><rect x="71.19963326967668" y="111.7646105867023" width="42.508097466862566" height="13.822222222222251" rx="0" ry="0" fill="#ffffff" stroke="none" style="-webkit-tap-highlight-color: rgba(0, 0, 0, 0);"></rect><path fill="#000000" stroke="none" d="M75.26328629209479,121.8534994755912C74.24106406987258,121.40905503114675,73.52995295876147,123.5423883644801,72.95217518098369,124.52016614225786C72.59661962542813,124.78683280892454,72.59661962542813,124.78683280892454,71.9743974032059,125.32016614225788C70.99661962542814,125.00905503114677,70.95217518098369,123.67572169781343,71.79661962542812,123.1423883644801C72.10773073653922,122.78683280892454,72.285508514317,122.47572169781344,72.46328629209478,122.12016614225789C72.46328629209478,122.12016614225789,72.41884184765036,122.16461058670231,72.41884184765036,122.16461058670231C71.79661962542812,121.00905503114677,73.44106406987257,120.87572169781342,73.79661962542812,120.38683280892454C73.84106406987257,120.34238836448009,74.46328629209478,119.09794392003565,74.95217518098369,118.78683280892454C75.70773073653925,117.40905503114675,76.68550851431701,116.20905503114676,77.35217518098369,114.69794392003564C78.0632862920948,113.80905503114676,78.24106406987258,112.43127725336899,79.17439740320592,111.7646105867023C80.46328629209478,111.98683280892453,80.68550851431701,114.52016614225786,81.17439740320592,115.8534994755912C81.5743974032059,118.69794392003564,82.10773073653922,120.43127725336899,83.35217518098369,122.74238836448009C83.21884184765034,123.8534994755912,81.39661962542812,123.23127725336897,80.95217518098369,122.74238836448009C79.44106406987257,122.20905503114676,76.64106406987256,121.4534994755912,75.26328629209479,121.8534994755912C75.26328629209479,121.8534994755912,75.26328629209479,121.8534994755912,75.26328629209479,121.8534994755912M75.70773073653925,120.20905503114676C76.59661962542813,120.47572169781344,79.26328629209479,120.65349947559122,80.64106406987258,120.96461058670232C80.90773073653924,120.65349947559122,80.46328629209478,120.29794392003566,80.32995295876145,119.89794392003566C79.84106406987257,118.65349947559122,79.92995295876145,115.80905503114676,78.99661962542814,114.69794392003564C78.59661962542813,115.09794392003565,78.15217518098368,116.65349947559122,77.48550851431702,117.1423883644801C77.08550851431701,118.16461058670231,76.285508514317,118.92016614225787,75.70773073653925,120.20905503114676C75.70773073653925,120.20905503114676,75.70773073653925,120.20905503114676,75.70773073653925,120.20905503114676M86.285508514317,120.38683280892454C85.75217518098367,123.72016614225788,90.55217518098368,123.76461058670233,93.6632862920948,123.5423883644801C93.6632862920948,123.5423883644801,100.10773073653922,123.09794392003565,100.10773073653922,123.09794392003565C100.50773073653923,123.18683280892455,100.50773073653923,123.32016614225788,100.50773073653923,123.89794392003566C98.86328629209478,124.69794392003564,96.72995295876146,125.1423883644801,95.6632862920948,124.87572169781342C94.86328629209478,125.32016614225788,93.5743974032059,125.32016614225788,92.50773073653923,125.32016614225788C91.21884184765034,125.32016614225788,89.48550851431702,125.36461058670233,87.84106406987257,124.831277253369C87.5743974032059,124.78683280892454,87.39661962542812,124.69794392003564,87.39661962542812,124.47572169781344C85.92995295876145,123.89794392003566,85.26328629209479,123.00905503114677,84.46328629209478,121.8534994755912C83.61884184765034,116.78683280892454,90.95217518098369,115.18683280892455,94.41884184765036,113.98683280892453C95.9743974032059,113.98683280892453,98.32995295876145,112.60905503114677,98.81884184765033,114.29794392003566C98.77439740320591,115.58683280892453,96.64106406987256,114.92016614225787,95.44106406987257,115.5423883644801C92.99661962542811,115.89794392003566,90.32995295876145,117.09794392003565,87.6632862920948,118.69794392003564C87.08550851431701,119.0534994755912,86.64106406987256,119.63127725336898,86.285508514317,120.38683280892454C86.285508514317,120.38683280892454,86.285508514317,120.38683280892454,86.285508514317,120.38683280892454M110.15217518098368,115.72016614225788C110.90773073653924,115.49794392003565,113.70773073653925,113.0534994755912,113.70773073653925,114.87572169781342C113.70773073653925,115.27572169781342,113.61884184765034,115.49794392003565,113.48550851431702,115.58683280892453C113.48550851431702,115.58683280892453,107.61884184765034,119.0534994755912,107.61884184765034,119.0534994755912C106.10773073653922,120.07572169781344,105.21884184765034,120.47572169781344,106.68550851431701,121.27572169781342C108.41884184765036,122.20905503114676,109.9743974032059,122.29794392003566,112.19661962542813,123.09794392003565C112.41884184765036,123.18683280892455,112.50773073653923,123.32016614225788,112.50773073653923,123.49794392003565C112.32995295876145,124.56461058670232,110.0632862920948,124.16461058670231,108.99661962542814,123.8534994755912C106.01884184765035,123.00905503114677,104.64106406987258,122.25349947559121,103.84106406987257,120.16461058670231C104.24106406987258,119.09794392003565,105.52995295876147,118.60905503114677,106.77439740320591,117.4534994755912C107.08550851431701,117.27572169781342,108.95217518098369,116.12016614225789,110.15217518098368,115.72016614225788C110.15217518098368,115.72016614225788,110.15217518098368,115.72016614225788,110.15217518098368,115.72016614225788M102.81884184765036,116.831277253369C103.30773073653924,115.94238836448011,103.30773073653924,114.831277253369,104.19661962542813,114.38683280892454C104.285508514317,114.47572169781344,104.3743974032059,114.52016614225786,104.46328629209478,114.38683280892454C105.75217518098367,116.12016614225789,103.52995295876147,118.65349947559122,103.6632862920948,120.07572169781344C102.90773073653924,121.1423883644801,102.99661962542814,122.831277253369,102.3743974032059,125.09794392003565C102.19661962542813,125.23127725336897,101.92995295876145,125.40905503114675,101.52995295876144,125.58683280892456C100.99661962542811,125.00905503114677,101.08550851431701,124.34238836448009,101.17439740320589,123.23127725336897C101.30773073653924,121.8534994755912,101.92995295876145,119.72016614225788,102.81884184765036,116.831277253369C102.81884184765036,116.831277253369,102.81884184765036,116.831277253369,102.81884184765036,116.831277253369" style="-webkit-tap-highlight-color: rgba(0, 0, 0, 0);"></path><path fill="none" stroke="#000000" d="M139.45156244299824,127.49794392003565C73.52921493907593,123.87901533342887,90.84394809553848,130.71000809889526,50.44531030269121,127.87431336362795" stroke-width="2" marker-end="url(#raphael-marker-endblock55-obj963)" stroke-dasharray="0" style="-webkit-tap-highlight-color: rgba(0, 0, 0, 0);"></path></svg>