<?xml version="1.0" encoding="utf-8" standalone="no"?><!DOCTYPE svg PUBLIC "-//W3C//DTD SVG 20010904//EN" "http://www.w3.org/TR/2001/REC-SVG-20010904/DTD/svg10.dtd"><svg xmlns="http://www.w3.org/2000/svg" width="207" height="294" xmlns:xlink="http://www.w3.org/1999/xlink"><source><![CDATA[Client->Server: Data
Client->Server: Data
Server->Client: Data
Client->Server: Data
Server->Client: Data
]]></source><desc style="-webkit-tap-highlight-color: rgba(0, 0, 0, 0);">Created with Raphaël 2.1.2</desc><defs style="-webkit-tap-highlight-color: rgba(0, 0, 0, 0);"><path stroke-linecap="round" d="M5,0 0,2.5 5,5z" id="raphael-marker-block" style="-webkit-tap-highlight-color: rgba(0, 0, 0, 0);"></path><marker id="raphael-marker-endblock55-obj1011" markerHeight="5" markerWidth="5" orient="auto" refX="2.5" refY="2.5" style="-webkit-tap-highlight-color: rgba(0, 0, 0, 0);"><use xmlns:xlink="http://www.w3.org/1999/xlink" xlink:href="#raphael-marker-block" transform="rotate(180 2.5 2.5) scale(1,1)" stroke-width="1.0000" fill="#000" stroke="none" style="-webkit-tap-highlight-color: rgba(0, 0, 0, 0);"></use></marker><marker id="raphael-marker-endblock55-obj1014" markerHeight="5" markerWidth="5" orient="auto" refX="2.5" refY="2.5" style="-webkit-tap-highlight-color: rgba(0, 0, 0, 0);"><use xmlns:xlink="http://www.w3.org/1999/xlink" xlink:href="#raphael-marker-block" transform="rotate(180 2.5 2.5) scale(1,1)" stroke-width="1.0000" fill="#000" stroke="none" style="-webkit-tap-highlight-color: rgba(0, 0, 0, 0);"></use></marker><marker id="raphael-marker-endblock55-obj1017" markerHeight="5" markerWidth="5" orient="auto" refX="2.5" refY="2.5" style="-webkit-tap-highlight-color: rgba(0, 0, 0, 0);"><use xmlns:xlink="http://www.w3.org/1999/xlink" xlink:href="#raphael-marker-block" transform="rotate(180 2.5 2.5) scale(1,1)" stroke-width="1.0000" fill="#000" stroke="none" style="-webkit-tap-highlight-color: rgba(0, 0, 0, 0);"></use></marker><marker id="raphael-marker-endblock55-obj1020" markerHeight="5" markerWidth="5" orient="auto" refX="2.5" refY="2.5" style="-webkit-tap-highlight-color: rgba(0, 0, 0, 0);"><use xmlns:xlink="http://www.w3.org/1999/xlink" xlink:href="#raphael-marker-block" transform="rotate(180 2.5 2.5) scale(1,1)" stroke-width="1.0000" fill="#000" stroke="none" style="-webkit-tap-highlight-color: rgba(0, 0, 0, 0);"></use></marker><marker id="raphael-marker-endblock55-obj1023" markerHeight="5" markerWidth="5" orient="auto" refX="2.5" refY="2.5" style="-webkit-tap-highlight-color: rgba(0, 0, 0, 0);"><use xmlns:xlink="http://www.w3.org/1999/xlink" xlink:href="#raphael-marker-block" transform="rotate(180 2.5 2.5) scale(1,1)" stroke-width="1.0000" fill="#000" stroke="none" style="-webkit-tap-highlight-color: rgba(0, 0, 0, 0);"></use></marker></defs><path fill="#ffffff" stroke="#000000" d="M10,20C20.983727828243516,22.836464125057415,42.3019441989785,17.163535874942585,80.91160312643538,20C82.25572476628712,36.75179022990779,79.56748148658365,32.14177664404113,80.91160312643538,53.60304099629341C57.963015302332806,56.43950512135083,19.911141614426025,50.76657687123599,10,53.60304099629341C8.655878360148265,29.436141848738846,11.344121639851735,25.67160054899476,10,20" stroke-width="2" style="-webkit-tap-highlight-color: rgba(0, 0, 0, 0);"></path><rect x="20" y="29.999999999999996" width="50.91160312643538" height="13.603040996293405" rx="0" ry="0" fill="#ffffff" stroke="none" style="-webkit-tap-highlight-color: rgba(0, 0, 0, 0);"></rect><path fill="#000000" stroke="none" d="M21.88938090421316,38.301905193824275C21.356047570879827,41.635238527157604,26.156047570879824,41.67968297160205,29.26715868199094,41.45746074937983C29.26715868199094,41.45746074937983,35.71160312643538,41.013016304935384,35.71160312643538,41.013016304935384C36.111603126435384,41.10190519382427,36.111603126435384,41.235238527157605,36.111603126435384,41.81301630493538C34.46715868199094,42.613016304935385,32.3338253486576,43.05746074937983,31.26715868199094,42.79079408271316C30.46715868199094,43.235238527157605,29.17826979310205,43.235238527157605,28.11160312643538,43.235238527157605C26.822714237546496,43.235238527157605,25.08938090421316,43.27968297160205,23.444936459768716,42.74634963826872C23.17826979310205,42.701905193824274,23.000492015324273,42.613016304935385,23.000492015324273,42.390794082713164C21.533825348657604,41.81301630493538,20.86715868199094,40.924127416046495,20.067158681990936,39.76857186049094C19.222714237546494,34.701905193824274,26.55604757087983,33.10190519382427,30.02271423754649,31.90190519382427C31.57826979310205,31.90190519382427,33.93382534865761,30.524127416046497,34.42271423754649,32.21301630493538C34.37826979310205,33.50190519382427,32.24493645976871,32.83523852715761,31.044936459768717,33.45746074937983C28.600492015324267,33.81301630493538,25.933825348657603,35.013016304935384,23.26715868199094,36.613016304935385C22.689380904213163,36.96857186049094,22.244936459768713,37.546349638268715,21.88938090421316,38.301905193824275C21.88938090421316,38.301905193824275,21.88938090421316,38.301905193824275,21.88938090421316,38.301905193824275M39.267158681990935,30.035238527157603C40.20049201532426,29.768571860490937,40.91160312643538,31.05746074937983,40.600492015324264,32.47968297160205C40.15604757087982,34.74634963826872,39.356047570879824,38.47968297160205,39.356047570879824,41.72412741604649C39.356047570879824,42.21301630493539,39.62271423754649,43.324127416046494,38.77826979310204,43.36857186049094C37.48938090421315,43.14634963826872,37.44493645976871,41.235238527157605,37.66715868199093,39.67968297160205C37.66715868199093,39.67968297160205,38.91160312643538,31.81301630493538,38.91160312643538,31.81301630493538C38.644936459768715,31.05746074937983,38.95604757087982,30.524127416046497,39.267158681990935,30.035238527157603C39.267158681990935,30.035238527157603,39.267158681990935,30.035238527157603,39.267158681990935,30.035238527157603M43.62271423754649,34.07968297160205C43.93382534865759,34.87968297160205,44.02271423754648,35.10190519382427,43.40049201532426,35.76857186049094C42.378269793102035,35.50190519382427,42.467158681990924,34.96857186049094,42.91160312643538,34.168571860490935C43.00049201532427,34.168571860490935,43.267158681990935,34.12412741604649,43.62271423754649,34.07968297160205C43.62271423754649,34.07968297160205,43.62271423754649,34.07968297160205,43.62271423754649,34.07968297160205M42.378269793102035,43.05746074937983C41.57826979310204,42.1241274160465,42.02271423754648,39.81301630493538,42.3338253486576,38.34634963826872C42.6449364597687,37.90190519382427,43.222714237546484,37.99079408271316,43.356047570879824,38.613016304935385C43.31160312643537,40.21301630493539,43.66715868199093,41.81301630493538,43.267158681990935,43.235238527157605C42.91160312643538,43.324127416046494,42.91160312643538,43.235238527157605,42.378269793102035,43.05746074937983C42.378269793102035,43.05746074937983,42.378269793102035,43.05746074937983,42.378269793102035,43.05746074937983M44.600492015324264,40.83523852715761C44.600492015324264,38.25746074937983,46.86715868199093,37.67968297160205,49.48938090421315,37.546349638268715C50.95604757087982,37.50190519382427,51.48938090421315,38.25746074937983,52.11160312643537,39.10190519382427C52.15604757087982,39.72412741604649,52.20049201532426,40.83523852715761,51.80049201532427,40.96857186049094C50.733825348657604,40.87968297160205,48.55604757087983,41.546349638268715,47.40049201532426,41.45746074937983C47.31160312643537,41.546349638268715,47.31160312643537,41.59079408271316,47.31160312643537,41.59079408271316C47.31160312643537,41.72412741604649,47.844936459768704,41.94634963826872,48.95604757087982,42.25746074937983C49.889380904213155,42.25746074937983,52.02271423754648,42.65746074937983,50.3338253486576,43.235238527157605C49.93382534865759,43.857460749379825,48.82271423754649,43.50190519382427,47.844936459768704,43.50190519382427C46.644936459768715,43.27968297160205,44.600492015324264,42.25746074937983,44.600492015324264,40.83523852715761C44.600492015324264,40.83523852715761,44.600492015324264,40.83523852715761,44.600492015324264,40.83523852715761M49.889380904213155,38.83523852715761C48.91160312643538,38.924127416046495,46.86715868199093,39.05746074937983,47.00049201532427,39.990794082713165C48.06715868199093,39.90190519382427,49.93382534865759,40.21301630493539,50.511603126435375,39.72412741604649C50.28938090421315,39.14634963826872,50.467158681990924,39.14634963826872,49.889380904213155,38.83523852715761C49.889380904213155,38.83523852715761,49.889380904213155,38.83523852715761,49.889380904213155,38.83523852715761M57.889380904213155,37.324127416046494C59.5338253486576,37.59079408271316,60.6449364597687,39.72412741604649,60.6449364597687,42.25746074937983C60.6449364597687,43.67968297160205,59.93382534865759,43.36857186049094,59.267158681990935,43.013016304935384C58.467158681990924,41.67968297160205,59.04493645976871,41.013016304935384,58.28938090421315,39.235238527157605C56.644936459768715,38.65746074937983,55.133825348657595,41.67968297160205,54.20049201532426,42.1241274160465C53.31160312643537,41.990794082713165,52.467158681990924,40.390794082713164,53.267158681990935,39.36857186049094C53.356047570879824,38.83523852715761,53.40049201532426,38.701905193824274,53.756047570879815,38.0352385271576C54.28938090421315,37.67968297160205,54.644936459768715,38.5241274160465,55.04493645976871,38.56857186049094C55.04493645976871,38.56857186049094,57.889380904213155,37.324127416046494,57.889380904213155,37.324127416046494M64.91160312643538,36.701905193824274C65.35604757087984,34.87968297160205,66.46715868199094,31.101905193824273,67.80049201532428,30.74634963826872C67.97826979310206,30.790794082713163,68.86715868199094,31.59079408271316,68.28938090421316,32.34634963826872C67.53382534865761,33.324127416046494,67.00049201532428,34.87968297160205,66.68938090421317,36.96857186049094C67.84493645976872,37.324127416046494,68.91160312643538,36.65746074937983,69.9338253486576,37.19079408271316C70.55604757087983,37.19079408271316,70.91160312643538,37.324127416046494,70.91160312643538,37.59079408271316C70.86715868199094,38.43523852715761,68.95604757087983,38.390794082713164,68.37826979310205,38.613016304935385C67.9338253486576,38.65746074937983,66.33382534865761,38.613016304935385,65.97826979310206,39.05746074937983C65.53382534865761,40.1241274160465,65.80049201532428,42.03523852715761,65.08938090421316,43.41301630493538C64.15604757087984,43.27968297160205,63.93382534865761,43.45746074937983,63.93382534865761,42.5241274160465C63.93382534865761,42.1241274160465,64.0227142375465,40.924127416046495,64.28938090421316,38.924127416046495C63.622714237546504,38.34634963826872,60.689380904213166,39.324127416046494,60.867158681990944,37.72412741604649C61.04493645976872,36.0352385271576,64.0227142375465,37.99079408271316,64.91160312643538,36.701905193824274C64.91160312643538,36.701905193824274,64.91160312643538,36.701905193824274,64.91160312643538,36.701905193824274" style="-webkit-tap-highlight-color: rgba(0, 0, 0, 0);"></path><path fill="#ffffff" stroke="#000000" d="M10,241.1322567695618C65.13032497880492,238.2957926445044,68.03042294239292,243.9687208946192,80.91160312643538,241.1322567695618C79.56748148658365,265.24661311663834,82.25572476628712,255.94033790886004,80.91160312643538,274.7352977658552C30.0994539859955,271.89883364079776,54.694862176835144,277.5717618909126,10,274.7352977658552C11.344121639851735,247.70608977122447,8.655878360148265,260.03710911961525,10,241.1322567695618" stroke-width="2" style="-webkit-tap-highlight-color: rgba(0, 0, 0, 0);"></path><rect x="20" y="251.1322567695618" width="50.91160312643538" height="13.603040996293402" rx="0" ry="0" fill="#ffffff" stroke="none" style="-webkit-tap-highlight-color: rgba(0, 0, 0, 0);"></rect><path fill="#000000" stroke="none" d="M21.88938090421316,259.4341619633861C21.356047570879827,262.7674952967194,26.156047570879824,262.8119397411638,29.26715868199094,262.58971751894165C29.26715868199094,262.58971751894165,35.71160312643538,262.1452730744972,35.71160312643538,262.1452730744972C36.111603126435384,262.23416196338604,36.111603126435384,262.3674952967194,36.111603126435384,262.9452730744972C34.46715868199094,263.74527307449716,32.3338253486576,264.1897175189416,31.26715868199094,263.92305085227497C30.46715868199094,264.3674952967194,29.17826979310205,264.3674952967194,28.11160312643538,264.3674952967194C26.822714237546496,264.3674952967194,25.08938090421316,264.41193974116385,23.444936459768716,263.8786064078305C23.17826979310205,263.83416196338607,23.000492015324273,263.74527307449716,23.000492015324273,263.52305085227493C21.533825348657604,262.9452730744972,20.86715868199094,262.0563841856083,20.067158681990936,260.90082863005273C19.222714237546494,255.83416196338607,26.55604757087983,254.23416196338604,30.02271423754649,253.03416196338605C31.57826979310205,253.03416196338605,33.93382534865761,251.65638418560832,34.42271423754649,253.3452730744972C34.37826979310205,254.63416196338608,32.24493645976871,253.9674952967194,31.044936459768717,254.5897175189416C28.600492015324267,254.9452730744972,25.933825348657603,256.1452730744972,23.26715868199094,257.74527307449716C22.689380904213163,258.1008286300527,22.244936459768713,258.6786064078305,21.88938090421316,259.4341619633861C21.88938090421316,259.4341619633861,21.88938090421316,259.4341619633861,21.88938090421316,259.4341619633861M39.267158681990935,251.16749529671938C40.20049201532426,250.90082863005273,40.91160312643538,252.18971751894162,40.600492015324264,253.61193974116384C40.15604757087982,255.8786064078305,39.356047570879824,259.61193974116384,39.356047570879824,262.8563841856083C39.356047570879824,263.3452730744972,39.62271423754649,264.4563841856083,38.77826979310204,264.50082863005275C37.48938090421315,264.2786064078305,37.44493645976871,262.3674952967194,37.66715868199093,260.8119397411638C37.66715868199093,260.8119397411638,38.91160312643538,252.9452730744972,38.91160312643538,252.9452730744972C38.644936459768715,252.18971751894162,38.95604757087982,251.65638418560832,39.267158681990935,251.16749529671938C39.267158681990935,251.16749529671938,39.267158681990935,251.16749529671938,39.267158681990935,251.16749529671938M43.62271423754649,255.21193974116386C43.93382534865759,256.01193974116387,44.02271423754648,256.23416196338604,43.40049201532426,256.90082863005273C42.378269793102035,256.6341619633861,42.467158681990924,256.1008286300527,42.91160312643538,255.30082863005276C43.00049201532427,255.30082863005276,43.267158681990935,255.25638418560828,43.62271423754649,255.21193974116386C43.62271423754649,255.21193974116386,43.62271423754649,255.21193974116386,43.62271423754649,255.21193974116386M42.378269793102035,264.1897175189416C41.57826979310204,263.2563841856083,42.02271423754648,260.9452730744972,42.3338253486576,259.4786064078305C42.6449364597687,259.03416196338605,43.222714237546484,259.12305085227496,43.356047570879824,259.74527307449716C43.31160312643537,261.3452730744972,43.66715868199093,262.9452730744972,43.267158681990935,264.3674952967194C42.91160312643538,264.4563841856083,42.91160312643538,264.3674952967194,42.378269793102035,264.1897175189416C42.378269793102035,264.1897175189416,42.378269793102035,264.1897175189416,42.378269793102035,264.1897175189416M44.600492015324264,261.9674952967194C44.600492015324264,259.3897175189416,46.86715868199093,258.8119397411638,49.48938090421315,258.6786064078305C50.95604757087982,258.6341619633861,51.48938090421315,259.3897175189416,52.11160312643537,260.23416196338604C52.15604757087982,260.8563841856083,52.20049201532426,261.9674952967194,51.80049201532427,262.1008286300527C50.733825348657604,262.01193974116387,48.55604757087983,262.6786064078305,47.40049201532426,262.58971751894165C47.31160312643537,262.6786064078305,47.31160312643537,262.723050852275,47.31160312643537,262.723050852275C47.31160312643537,262.8563841856083,47.844936459768704,263.07860640783053,48.95604757087982,263.3897175189416C49.889380904213155,263.3897175189416,52.02271423754648,263.78971751894164,50.3338253486576,264.3674952967194C49.93382534865759,264.98971751894163,48.82271423754649,264.6341619633861,47.844936459768704,264.6341619633861C46.644936459768715,264.41193974116385,44.600492015324264,263.3897175189416,44.600492015324264,261.9674952967194C44.600492015324264,261.9674952967194,44.600492015324264,261.9674952967194,44.600492015324264,261.9674952967194M49.889380904213155,259.9674952967194C48.91160312643538,260.0563841856083,46.86715868199093,260.1897175189416,47.00049201532427,261.12305085227496C48.06715868199093,261.03416196338605,49.93382534865759,261.3452730744972,50.511603126435375,260.8563841856083C50.28938090421315,260.2786064078305,50.467158681990924,260.2786064078305,49.889380904213155,259.9674952967194C49.889380904213155,259.9674952967194,49.889380904213155,259.9674952967194,49.889380904213155,259.9674952967194M57.889380904213155,258.4563841856083C59.5338253486576,258.723050852275,60.6449364597687,260.8563841856083,60.6449364597687,263.3897175189416C60.6449364597687,264.8119397411638,59.93382534865759,264.50082863005275,59.267158681990935,264.1452730744972C58.467158681990924,262.8119397411638,59.04493645976871,262.1452730744972,58.28938090421315,260.3674952967194C56.644936459768715,259.78971751894164,55.133825348657595,262.8119397411638,54.20049201532426,263.2563841856083C53.31160312643537,263.12305085227496,52.467158681990924,261.52305085227493,53.267158681990935,260.50082863005275C53.356047570879824,259.9674952967194,53.40049201532426,259.83416196338607,53.756047570879815,259.1674952967194C54.28938090421315,258.8119397411638,54.644936459768715,259.6563841856083,55.04493645976871,259.70082863005274C55.04493645976871,259.70082863005274,57.889380904213155,258.4563841856083,57.889380904213155,258.4563841856083M64.91160312643538,257.83416196338607C65.35604757087984,256.01193974116387,66.46715868199094,252.23416196338604,67.80049201532428,251.8786064078305C67.97826979310206,251.92305085227497,68.86715868199094,252.72305085227498,68.28938090421316,253.4786064078305C67.53382534865761,254.45638418560827,67.00049201532428,256.01193974116387,66.68938090421317,258.1008286300527C67.84493645976872,258.4563841856083,68.91160312643538,257.78971751894164,69.9338253486576,258.32305085227495C70.55604757087983,258.32305085227495,70.91160312643538,258.4563841856083,70.91160312643538,258.723050852275C70.86715868199094,259.5674952967194,68.95604757087983,259.52305085227493,68.37826979310205,259.74527307449716C67.9338253486576,259.78971751894164,66.33382534865761,259.74527307449716,65.97826979310206,260.1897175189416C65.53382534865761,261.2563841856083,65.80049201532428,263.1674952967194,65.08938090421316,264.5452730744972C64.15604757087984,264.41193974116385,63.93382534865761,264.58971751894165,63.93382534865761,263.6563841856083C63.93382534865761,263.2563841856083,64.0227142375465,262.0563841856083,64.28938090421316,260.0563841856083C63.622714237546504,259.4786064078305,60.689380904213166,260.4563841856083,60.867158681990944,258.8563841856083C61.04493645976872,257.1674952967194,64.0227142375465,259.12305085227496,64.91160312643538,257.83416196338607C64.91160312643538,257.83416196338607,64.91160312643538,257.83416196338607,64.91160312643538,257.83416196338607" style="-webkit-tap-highlight-color: rgba(0, 0, 0, 0);"></path><path fill="none" stroke="#000000" d="M45.45580156321769,53.60304099629341C52.956970194148425,204.35863671817475,37.954632932286955,164.16216520637326,45.45580156321769,241.1322567695618" stroke-width="2" style="-webkit-tap-highlight-color: rgba(0, 0, 0, 0);"></path><path fill="#ffffff" stroke="#000000" d="M100.91160312643538,20C104.29656919676395,16.916803254674974,136.65968437438767,23.083196745325026,177.99152175956107,20C176.64740011970932,31.00279794426274,179.33564339941282,24.191012228350736,177.99152175956107,53.60304099629341C134.22677736928495,56.686237741618434,126.92660200647076,50.51984425096838,100.91160312643538,53.60304099629341C99.56748148658365,38.73626613732681,102.25572476628712,24.188033440326627,100.91160312643538,20" stroke-width="2" style="-webkit-tap-highlight-color: rgba(0, 0, 0, 0);"></path><rect x="110.91160312643538" y="30.59539704135658" width="57.079918633125686" height="12.412246913580244" rx="0" ry="0" fill="#ffffff" stroke="none" style="-webkit-tap-highlight-color: rgba(0, 0, 0, 0);"></rect><path fill="#000000" stroke="none" d="M111.48117254448545,42.63984148580103C111.17006143337434,42.50650815246769,110.50339476670766,41.839841485801024,111.25895032226322,41.66206370802325C114.28117254448543,40.99539704135658,116.54783921115211,40.23984148580102,118.10339476670765,39.66206370802325C120.37006143337433,38.817619263578806,119.836728100041,38.150952596912134,118.236728100041,37.306508152467686C116.19228365559655,36.19539704135658,114.59228365559656,35.97317481913436,112.85895032226321,34.46206370802325C111.39228365559654,33.17317481913436,110.63672810004098,32.906508152467694,111.7478392111521,31.88428593024547C113.39228365559654,30.99539704135658,117.03672810004099,30.59539704135658,119.79228365559655,30.59539704135658C121.08117254448544,30.59539704135658,121.7478392111521,30.862063708023246,121.7478392111521,31.395397041356578C121.34783921115212,32.55095259691214,118.99228365559657,31.662063708023247,117.12561698892989,32.0176192635788C116.37006143337433,32.10650815246769,113.92561698892987,32.284285930245474,113.03672810004099,32.72873037468992C114.68117254448543,35.08428593024547,118.90339476670766,35.306508152467686,121.03672810004099,37.66206370802325C121.39228365559654,38.062063708023246,121.5256169889299,38.55095259691214,121.5256169889299,38.99539704135658C121.34783921115212,39.750952596912136,120.50339476670766,40.55095259691214,119.65895032226322,40.50650815246769C118.72561698892989,41.2176192635788,118.90339476670766,40.55095259691214,117.48117254448545,41.26206370802325C116.85895032226321,41.57317481913436,115.65895032226322,41.66206370802325,114.99228365559657,42.150952596912134C113.88117254448545,42.0176192635788,112.81450587781876,42.59539704135658,111.48117254448545,42.63984148580103C111.48117254448545,42.63984148580103,111.48117254448545,42.63984148580103,111.48117254448545,42.63984148580103M121.48117254448545,40.23984148580102C121.48117254448545,37.66206370802325,123.74783921115213,37.08428593024547,126.37006143337433,36.95095259691213C127.836728100041,36.906508152467694,128.37006143337433,37.66206370802325,128.99228365559657,38.50650815246769C129.036728100041,39.12873037468991,129.08117254448544,40.23984148580102,128.68117254448543,40.37317481913436C127.61450587781877,40.284285930245474,125.436728100041,40.95095259691213,124.28117254448546,40.86206370802324C124.19228365559655,40.95095259691213,124.19228365559655,40.99539704135658,124.19228365559655,40.99539704135658C124.19228365559655,41.12873037468991,124.72561698892989,41.35095259691214,125.836728100041,41.66206370802325C126.77006143337434,41.66206370802325,128.90339476670766,42.062063708023246,127.2145058778188,42.63984148580103C126.81450587781879,43.26206370802325,125.70339476670767,42.906508152467694,124.72561698892989,42.906508152467694C123.5256169889299,42.684285930245466,121.48117254448545,41.66206370802325,121.48117254448545,40.23984148580102C121.48117254448545,40.23984148580102,121.48117254448545,40.23984148580102,121.48117254448545,40.23984148580102M126.77006143337434,38.23984148580102C125.79228365559655,38.32873037468991,123.74783921115213,38.46206370802325,123.88117254448545,39.39539704135658C124.94783921115211,39.306508152467686,126.81450587781879,39.6176192635788,127.39228365559657,39.12873037468991C127.17006143337434,38.55095259691214,127.34783921115212,38.55095259691214,126.77006143337434,38.23984148580102C126.77006143337434,38.23984148580102,126.77006143337434,38.23984148580102,126.77006143337434,38.23984148580102M140.1478392111521,37.57317481913436C140.23672810004098,38.55095259691214,140.37006143337433,38.0176192635788,139.52561698892987,38.59539704135658C136.28117254448543,38.284285930245474,132.1478392111521,37.57317481913436,131.79228365559655,41.08428593024547C131.436728100041,41.35095259691214,131.65895032226322,41.97317481913436,131.436728100041,42.684285930245466C130.1478392111521,43.12873037468991,129.65895032226322,42.284285930245474,129.97006143337433,40.63984148580103C130.23672810004098,39.26206370802325,130.28117254448543,37.57317481913436,131.39228365559654,38.19539704135658C133.97006143337433,36.55095259691214,134.32561698892988,36.32873037468991,139.17006143337431,37.35095259691214C139.30339476670764,37.57317481913436,139.836728100041,37.528730374689914,140.1478392111521,37.57317481913436C140.1478392111521,37.57317481913436,140.1478392111521,37.57317481913436,140.1478392111521,37.57317481913436M140.636728100041,37.12873037468991C140.636728100041,37.12873037468991,142.94783921115211,40.284285930245474,142.94783921115211,40.284285930245474C144.8145058778188,39.57317481913436,146.05895032226323,37.88428593024547,148.45895032226323,37.395397041356574C148.68117254448546,37.57317481913436,148.8145058778188,37.70650815246769,148.8145058778188,37.88428593024547C148.45895032226323,38.72873037468992,148.636728100041,38.23984148580102,147.34783921115212,39.306508152467686C147.34783921115212,39.35095259691214,147.30339476670767,39.439841485801026,147.30339476670767,39.528730374689914C144.59228365559656,41.528730374689914,143.17006143337434,42.55095259691214,142.99228365559657,42.55095259691214C141.2145058778188,41.88428593024547,140.77006143337434,39.35095259691214,139.97006143337435,38.10650815246769C140.236728100041,37.48428593024547,140.41450587781878,37.12873037468991,140.636728100041,37.12873037468991C140.636728100041,37.12873037468991,140.636728100041,37.12873037468991,140.636728100041,37.12873037468991M149.25895032226322,40.23984148580102C149.25895032226322,37.66206370802325,151.5256169889299,37.08428593024547,154.1478392111521,36.95095259691213C155.61450587781877,36.906508152467694,156.1478392111521,37.66206370802325,156.77006143337434,38.50650815246769C156.81450587781876,39.12873037468991,156.8589503222632,40.23984148580102,156.4589503222632,40.37317481913436C155.39228365559654,40.284285930245474,153.21450587781877,40.95095259691213,152.05895032226323,40.86206370802324C151.97006143337433,40.95095259691213,151.97006143337433,40.99539704135658,151.97006143337433,40.99539704135658C151.97006143337433,41.12873037468991,152.50339476670766,41.35095259691214,153.61450587781877,41.66206370802325C154.5478392111521,41.66206370802325,156.68117254448543,42.062063708023246,154.99228365559657,42.63984148580103C154.59228365559656,43.26206370802325,153.48117254448545,42.906508152467694,152.50339476670766,42.906508152467694C151.30339476670767,42.684285930245466,149.25895032226322,41.66206370802325,149.25895032226322,40.23984148580102C149.25895032226322,40.23984148580102,149.25895032226322,40.23984148580102,149.25895032226322,40.23984148580102M154.5478392111521,38.23984148580102C153.57006143337432,38.32873037468991,151.5256169889299,38.46206370802325,151.65895032226322,39.39539704135658C152.7256169889299,39.306508152467686,154.59228365559656,39.6176192635788,155.17006143337434,39.12873037468991C154.94783921115211,38.55095259691214,155.1256169889299,38.55095259691214,154.5478392111521,38.23984148580102C154.5478392111521,38.23984148580102,154.5478392111521,38.23984148580102,154.5478392111521,38.23984148580102M167.92561698892987,37.57317481913436C168.01450587781875,38.55095259691214,168.1478392111521,38.0176192635788,167.30339476670764,38.59539704135658C164.0589503222632,38.284285930245474,159.92561698892987,37.57317481913436,159.57006143337432,41.08428593024547C159.21450587781877,41.35095259691214,159.436728100041,41.97317481913436,159.21450587781877,42.684285930245466C157.92561698892987,43.12873037468991,157.436728100041,42.284285930245474,157.7478392111521,40.63984148580103C158.01450587781875,39.26206370802325,158.0589503222632,37.57317481913436,159.17006143337431,38.19539704135658C161.7478392111521,36.55095259691214,162.10339476670765,36.32873037468991,166.9478392111521,37.35095259691214C167.0811725444854,37.57317481913436,167.61450587781877,37.528730374689914,167.92561698892987,37.57317481913436C167.92561698892987,37.57317481913436,167.92561698892987,37.57317481913436,167.92561698892987,37.57317481913436" style="-webkit-tap-highlight-color: rgba(0, 0, 0, 0);"></path><path fill="#ffffff" stroke="#000000" d="M100.91160312643538,241.1322567695618C149.4781561986533,238.04906002423675,135.92005819226495,244.21545351488683,177.99152175956107,241.1322567695618C176.64740011970932,268.2345569906618,179.33564339941282,270.6734013578079,177.99152175956107,274.7352977658552C105.23696820259181,277.81849451118023,138.20291495737052,271.65210102053015,100.91160312643538,274.7352977658552C99.56748148658365,271.2587312685184,102.25572476628712,266.6567815449632,100.91160312643538,241.1322567695618" stroke-width="2" style="-webkit-tap-highlight-color: rgba(0, 0, 0, 0);"></path><rect x="110.91160312643538" y="251.72765381091835" width="57.079918633125686" height="12.41224691358019" rx="0" ry="0" fill="#ffffff" stroke="none" style="-webkit-tap-highlight-color: rgba(0, 0, 0, 0);"></rect><path fill="#000000" stroke="none" d="M111.48117254448545,263.77209825536283C111.17006143337434,263.63876492202945,110.50339476670766,262.97209825536277,111.25895032226322,262.794320477585C114.28117254448543,262.12765381091833,116.54783921115211,261.3720982553628,118.10339476670765,260.794320477585C120.37006143337433,259.9498760331406,119.836728100041,259.2832093664739,118.236728100041,258.43876492202946C116.19228365559655,257.3276538109184,114.59228365559656,257.1054315886961,112.85895032226321,255.59432047758503C111.39228365559654,254.30543158869614,110.63672810004098,254.03876492202946,111.7478392111521,253.01654269980725C113.39228365559654,252.12765381091836,117.03672810004099,251.72765381091835,119.79228365559655,251.72765381091835C121.08117254448544,251.72765381091835,121.7478392111521,251.994320477585,121.7478392111521,252.52765381091837C121.34783921115212,253.6832093664739,118.99228365559657,252.79432047758502,117.12561698892989,253.14987603314057C116.37006143337433,253.23876492202947,113.92561698892987,253.41654269980725,113.03672810004099,253.86098714425168C114.68117254448543,256.21654269980723,118.90339476670766,256.43876492202946,121.03672810004099,258.794320477585C121.39228365559654,259.19432047758505,121.5256169889299,259.6832093664739,121.5256169889299,260.12765381091833C121.34783921115212,260.8832093664739,120.50339476670766,261.6832093664739,119.65895032226322,261.63876492202945C118.72561698892989,262.3498760331406,118.90339476670766,261.6832093664739,117.48117254448545,262.394320477585C116.85895032226321,262.7054315886961,115.65895032226322,262.794320477585,114.99228365559657,263.2832093664739C113.88117254448545,263.1498760331406,112.81450587781876,263.72765381091835,111.48117254448545,263.77209825536283C111.48117254448545,263.77209825536283,111.48117254448545,263.77209825536283,111.48117254448545,263.77209825536283M121.48117254448545,261.3720982553628C121.48117254448545,258.794320477585,123.74783921115213,258.21654269980723,126.37006143337433,258.0832093664739C127.836728100041,258.0387649220295,128.37006143337433,258.794320477585,128.99228365559657,259.63876492202945C129.036728100041,260.26098714425166,129.08117254448544,261.3720982553628,128.68117254448543,261.5054315886961C127.61450587781877,261.4165426998072,125.436728100041,262.0832093664739,124.28117254448546,261.994320477585C124.19228365559655,262.0832093664739,124.19228365559655,262.12765381091833,124.19228365559655,262.12765381091833C124.19228365559655,262.26098714425166,124.72561698892989,262.48320936647394,125.836728100041,262.794320477585C126.77006143337434,262.794320477585,128.90339476670766,263.19432047758505,127.2145058778188,263.77209825536283C126.81450587781879,264.394320477585,125.70339476670767,264.0387649220295,124.72561698892989,264.0387649220295C123.5256169889299,263.8165426998072,121.48117254448545,262.794320477585,121.48117254448545,261.3720982553628C121.48117254448545,261.3720982553628,121.48117254448545,261.3720982553628,121.48117254448545,261.3720982553628M126.77006143337434,259.3720982553628C125.79228365559655,259.4609871442517,123.74783921115213,259.59432047758503,123.88117254448545,260.52765381091837C124.94783921115211,260.43876492202946,126.81450587781879,260.7498760331406,127.39228365559657,260.26098714425166C127.17006143337434,259.6832093664739,127.34783921115212,259.6832093664739,126.77006143337434,259.3720982553628C126.77006143337434,259.3720982553628,126.77006143337434,259.3720982553628,126.77006143337434,259.3720982553628M140.1478392111521,258.7054315886961C140.23672810004098,259.6832093664739,140.37006143337433,259.1498760331406,139.52561698892987,259.72765381091835C136.28117254448543,259.4165426998072,132.1478392111521,258.7054315886961,131.79228365559655,262.21654269980723C131.436728100041,262.48320936647394,131.65895032226322,263.1054315886961,131.436728100041,263.8165426998072C130.1478392111521,264.26098714425166,129.65895032226322,263.4165426998072,129.97006143337433,261.77209825536283C130.23672810004098,260.394320477585,130.28117254448543,258.7054315886961,131.39228365559654,259.3276538109184C133.97006143337433,257.6832093664739,134.32561698892988,257.4609871442517,139.17006143337431,258.48320936647394C139.30339476670764,258.7054315886961,139.836728100041,258.6609871442517,140.1478392111521,258.7054315886961C140.1478392111521,258.7054315886961,140.1478392111521,258.7054315886961,140.1478392111521,258.7054315886961M140.636728100041,258.26098714425166C140.636728100041,258.26098714425166,142.94783921115211,261.4165426998072,142.94783921115211,261.4165426998072C144.8145058778188,260.7054315886961,146.05895032226323,259.01654269980725,148.45895032226323,258.52765381091837C148.68117254448546,258.7054315886961,148.8145058778188,258.83876492202944,148.8145058778188,259.01654269980725C148.45895032226323,259.8609871442517,148.636728100041,259.3720982553628,147.34783921115212,260.43876492202946C147.34783921115212,260.48320936647394,147.30339476670767,260.5720982553628,147.30339476670767,260.6609871442517C144.59228365559656,262.6609871442517,143.17006143337434,263.6832093664739,142.99228365559657,263.6832093664739C141.2145058778188,263.01654269980725,140.77006143337434,260.48320936647394,139.97006143337435,259.2387649220295C140.236728100041,258.61654269980727,140.41450587781878,258.26098714425166,140.636728100041,258.26098714425166C140.636728100041,258.26098714425166,140.636728100041,258.26098714425166,140.636728100041,258.26098714425166M149.25895032226322,261.3720982553628C149.25895032226322,258.794320477585,151.5256169889299,258.21654269980723,154.1478392111521,258.0832093664739C155.61450587781877,258.0387649220295,156.1478392111521,258.794320477585,156.77006143337434,259.63876492202945C156.81450587781876,260.26098714425166,156.8589503222632,261.3720982553628,156.4589503222632,261.5054315886961C155.39228365559654,261.4165426998072,153.21450587781877,262.0832093664739,152.05895032226323,261.994320477585C151.97006143337433,262.0832093664739,151.97006143337433,262.12765381091833,151.97006143337433,262.12765381091833C151.97006143337433,262.26098714425166,152.50339476670766,262.48320936647394,153.61450587781877,262.794320477585C154.5478392111521,262.794320477585,156.68117254448543,263.19432047758505,154.99228365559657,263.77209825536283C154.59228365559656,264.394320477585,153.48117254448545,264.0387649220295,152.50339476670766,264.0387649220295C151.30339476670767,263.8165426998072,149.25895032226322,262.794320477585,149.25895032226322,261.3720982553628C149.25895032226322,261.3720982553628,149.25895032226322,261.3720982553628,149.25895032226322,261.3720982553628M154.5478392111521,259.3720982553628C153.57006143337432,259.4609871442517,151.5256169889299,259.59432047758503,151.65895032226322,260.52765381091837C152.7256169889299,260.43876492202946,154.59228365559656,260.7498760331406,155.17006143337434,260.26098714425166C154.94783921115211,259.6832093664739,155.1256169889299,259.6832093664739,154.5478392111521,259.3720982553628C154.5478392111521,259.3720982553628,154.5478392111521,259.3720982553628,154.5478392111521,259.3720982553628M167.92561698892987,258.7054315886961C168.01450587781875,259.6832093664739,168.1478392111521,259.1498760331406,167.30339476670764,259.72765381091835C164.0589503222632,259.4165426998072,159.92561698892987,258.7054315886961,159.57006143337432,262.21654269980723C159.21450587781877,262.48320936647394,159.436728100041,263.1054315886961,159.21450587781877,263.8165426998072C157.92561698892987,264.26098714425166,157.436728100041,263.4165426998072,157.7478392111521,261.77209825536283C158.01450587781875,260.394320477585,158.0589503222632,258.7054315886961,159.17006143337431,259.3276538109184C161.7478392111521,257.6832093664739,162.10339476670765,257.4609871442517,166.9478392111521,258.48320936647394C167.0811725444854,258.7054315886961,167.61450587781877,258.6609871442517,167.92561698892987,258.7054315886961C167.92561698892987,258.7054315886961,167.92561698892987,258.7054315886961,167.92561698892987,258.7054315886961" style="-webkit-tap-highlight-color: rgba(0, 0, 0, 0);"></path><path fill="none" stroke="#000000" d="M139.45156244299824,53.60304099629341C146.952731073929,125.98006708042887,131.9503938120675,236.51010290518914,139.45156244299824,241.1322567695618" stroke-width="2" style="-webkit-tap-highlight-color: rgba(0, 0, 0, 0);"></path><rect x="71.20710262489655" y="71.85011941896654" width="42.493158756422815" height="13.505843154653675" rx="0" ry="0" fill="#ffffff" stroke="none" style="-webkit-tap-highlight-color: rgba(0, 0, 0, 0);"></rect><path fill="#000000" stroke="none" d="M84.89599151378545,81.39944631223867C84.80710262489654,81.44389075668312,84.7626581804521,81.71055742334977,84.45154706934099,81.6216685344609C84.71821373600767,81.48833520112754,84.89599151378545,81.44389075668312,84.89599151378545,81.39944631223867C84.89599151378545,81.39944631223867,84.89599151378545,81.39944631223867,84.89599151378545,81.39944631223867M71.20710262489655,73.66611297890532C71.29599151378544,72.46611297890533,74.89599151378543,71.97722409001645,75.91821373600766,71.932779645572C81.69599151378544,71.62166853446088,87.78488040267433,71.97722409001645,88.851547069341,76.77722409001643C88.851547069341,76.77722409001643,88.7626581804521,77.13277964557199,88.71821373600767,77.88833520112755C88.49599151378544,78.28833520112755,88.54043595822989,79.13277964557199,87.69599151378544,79.39944631223867C87.51821373600767,79.57722409001644,87.60710262489656,79.6216685344609,87.38488040267433,79.39944631223867C87.251547069341,79.53277964557199,86.71821373600767,79.71055742334977,87.1626581804521,79.8438907566831C87.1626581804521,79.8438907566831,86.71821373600767,80.46611297890533,86.58488040267433,79.932779645572C86.09599151378544,79.97722409001645,86.22932484711878,80.15500186779423,85.69599151378544,80.5550018677942C85.74043595822988,80.6438907566831,86.00710262489655,80.68833520112756,86.09599151378544,80.59944631223865C85.91821373600766,81.17722409001644,85.11821373600766,81.17722409001644,85.60710262489656,80.77722409001643C85.60710262489656,80.6438907566831,85.65154706934099,80.51055742334978,85.47376929156322,80.5550018677942C83.69599151378544,81.8438907566831,80.89599151378545,82.2438907566831,79.20710262489655,83.44389075668312C79.65154706934099,83.71055742334977,80.18488040267432,83.13277964557199,80.71821373600767,83.31055742334976C78.89599151378545,84.19944631223865,75.07376929156322,85.26611297890534,73.11821373600766,85.35500186779421C72.18488040267432,85.39944631223867,71.02932484711877,83.88833520112755,72.62932484711877,83.6216685344609C73.29599151378544,83.53277964557199,74.54043595822988,83.35500186779421,75.11821373600766,83.13277964557199C74.40710262489655,78.6438907566831,74.89599151378543,77.35500186779421,75.51821373600767,73.932779645572C75.60710262489656,73.932779645572,75.69599151378544,73.88833520112755,75.78488040267433,73.79944631223867C75.07376929156322,73.04389075668311,71.74043595822988,75.48833520112754,71.20710262489655,73.66611297890532C71.20710262489655,73.66611297890532,71.20710262489655,73.66611297890532,71.20710262489655,73.66611297890532M84.22932484711878,81.79944631223867C83.91821373600766,81.932779645572,83.47376929156322,82.15500186779423,83.11821373600766,82.11055742334977C83.16265818045211,82.15500186779423,83.251547069341,82.19944631223865,83.34043595822989,82.19944631223865C83.16265818045211,82.28833520112755,82.851547069341,82.42166853446088,82.31821373600766,82.59944631223865C82.49599151378544,82.11055742334977,83.65154706934099,81.66611297890532,84.22932484711878,81.79944631223867C84.22932484711878,81.79944631223867,84.22932484711878,81.79944631223867,84.22932484711878,81.79944631223867M81.69599151378544,82.59944631223865C82.14043595822989,82.59944631223865,82.22932484711878,82.68833520112756,81.69599151378544,82.86611297890533C81.69599151378544,82.86611297890533,81.69599151378544,82.59944631223865,81.69599151378544,82.59944631223865C81.69599151378544,82.59944631223865,81.69599151378544,82.59944631223865,81.69599151378544,82.59944631223865M80.80710262489654,83.26611297890534C80.7626581804521,83.13277964557199,80.98488040267432,82.99944631223866,81.07376929156322,83.13277964557199C81.07376929156322,83.17722409001644,80.98488040267432,83.17722409001644,80.80710262489654,83.26611297890534C80.80710262489654,83.26611297890534,80.80710262489654,83.26611297890534,80.80710262489654,83.26611297890534M76.58488040267433,82.73277964557198C77.29599151378544,82.99944631223866,82.67376929156322,80.68833520112756,83.47376929156322,80.37722409001643C84.7626581804521,79.57722409001644,87.96265818045211,78.42166853446088,87.11821373600766,76.2438907566831C86.18488040267432,73.88833520112755,83.38488040267433,73.53277964557199,79.65154706934099,73.26611297890533C78.7626581804521,73.57722409001644,77.42932484711878,73.39944631223867,76.22932484711878,73.62166853446088C77.69599151378544,76.02166853446087,75.69599151378544,79.48833520112754,76.58488040267433,82.73277964557198C76.58488040267433,82.73277964557198,76.58488040267433,82.73277964557198,76.58488040267433,82.73277964557198M78.09599151378544,83.88833520112755C77.91821373600766,83.8438907566831,77.42932484711878,83.66611297890532,77.42932484711878,83.97722409001645C77.74043595822988,83.932779645572,77.96265818045211,83.88833520112755,78.09599151378544,83.88833520112755C78.09599151378544,83.88833520112755,78.09599151378544,83.88833520112755,78.09599151378544,83.88833520112755M93.47376929156322,82.37722409001643C93.91821373600766,82.5550018677942,96.09599151378544,84.19944631223865,96.36265818045212,84.59944631223865C96.40710262489655,84.91055742334979,96.09599151378544,85.35500186779421,95.82932484711878,85.35500186779421C95.82932484711878,85.35500186779421,93.16265818045211,84.02166853446087,93.16265818045211,84.02166853446087C92.18488040267434,84.11055742334977,91.29599151378544,84.95500186779421,90.27376929156323,84.86611297890533C88.80710262489656,85.04389075668311,87.251547069341,81.88833520112755,89.60710262489656,81.26611297890534C91.42932484711878,80.06611297890532,93.87376929156322,79.53277964557199,94.49599151378544,81.66611297890532C94.49599151378544,81.932779645572,94.31821373600766,82.19944631223865,94.00710262489656,82.37722409001643C92.54043595822989,81.26611297890534,91.02932484711877,82.15500186779423,90.09599151378545,82.91055742334979C90.54043595822989,83.6216685344609,92.80710262489656,82.11055742334977,93.47376929156322,82.37722409001643C93.47376929156322,82.37722409001643,93.47376929156322,82.37722409001643,93.47376929156322,82.37722409001643M100.45154706934099,78.19944631223865C100.89599151378545,76.37722409001643,102.00710262489655,72.59944631223865,103.34043595822988,72.2438907566831C103.51821373600765,72.28833520112755,104.40710262489654,73.08833520112755,103.82932484711878,73.8438907566831C103.07376929156322,74.82166853446088,102.54043595822989,76.37722409001643,102.22932484711878,78.46611297890533C103.38488040267433,78.82166853446088,104.45154706934099,78.15500186779423,105.47376929156323,78.68833520112756C106.09599151378544,78.68833520112756,106.45154706934099,78.82166853446088,106.45154706934099,79.08833520112756C106.40710262489654,79.932779645572,104.49599151378544,79.88833520112755,103.91821373600766,80.11055742334977C103.47376929156323,80.15500186779423,101.87376929156322,80.11055742334977,101.51821373600767,80.5550018677942C101.07376929156322,81.6216685344609,101.34043595822989,83.53277964557199,100.62932484711877,84.91055742334979C99.69599151378544,84.77722409001643,99.47376929156322,84.95500186779421,99.47376929156322,84.02166853446087C99.47376929156322,83.6216685344609,99.5626581804521,82.42166853446088,99.82932484711877,80.42166853446088C99.16265818045211,79.8438907566831,96.22932484711878,80.82166853446088,96.40710262489655,79.22166853446089C96.58488040267433,77.53277964557199,99.5626581804521,79.48833520112754,100.45154706934099,78.19944631223865C100.45154706934099,78.19944631223865,100.45154706934099,78.19944631223865,100.45154706934099,78.19944631223865M110.80710262489657,82.37722409001643C111.251547069341,82.5550018677942,113.42932484711878,84.19944631223865,113.69599151378546,84.59944631223865C113.74043595822991,84.91055742334979,113.42932484711878,85.35500186779421,113.16265818045213,85.35500186779421C113.16265818045213,85.35500186779421,110.49599151378544,84.02166853446087,110.49599151378544,84.02166853446087C109.51821373600768,84.11055742334977,108.6293248471188,84.95500186779421,107.60710262489656,84.86611297890533C106.14043595822989,85.04389075668311,104.58488040267434,81.88833520112755,106.9404359582299,81.26611297890534C108.76265818045212,80.06611297890532,111.20710262489655,79.53277964557199,111.82932484711878,81.66611297890532C111.82932484711878,81.932779645572,111.651547069341,82.19944631223865,111.3404359582299,82.37722409001643C109.87376929156324,81.26611297890534,108.36265818045212,82.15500186779423,107.42932484711878,82.91055742334979C107.87376929156324,83.6216685344609,110.14043595822989,82.11055742334977,110.80710262489657,82.37722409001643C110.80710262489657,82.37722409001643,110.80710262489657,82.37722409001643,110.80710262489657,82.37722409001643" style="-webkit-tap-highlight-color: rgba(0, 0, 0, 0);"></path><path fill="none" stroke="#000000" d="M45.45580156321769,87.10888415094709C93.07678915126935,84.23393568341318,124.2322115020096,87.95396177665774,135.18666602702103,88.18328844417776" stroke-width="2" marker-end="url(#raphael-marker-endblock55-obj1011)" stroke-dasharray="0" style="-webkit-tap-highlight-color: rgba(0, 0, 0, 0);"></path><rect x="71.20710262489655" y="105.35596257362026" width="42.493158756422815" height="13.50584315465369" rx="0" ry="0" fill="#ffffff" stroke="none" style="-webkit-tap-highlight-color: rgba(0, 0, 0, 0);"></rect><path fill="#000000" stroke="none" d="M84.89599151378545,114.90528946689236C84.80710262489654,114.9497339113368,84.7626581804521,115.21640057800347,84.45154706934099,115.12751168911458C84.71821373600767,114.99417835578124,84.89599151378545,114.9497339113368,84.89599151378545,114.90528946689236C84.89599151378545,114.90528946689236,84.89599151378545,114.90528946689236,84.89599151378545,114.90528946689236M71.20710262489655,107.17195613355902C71.29599151378544,105.97195613355902,74.89599151378543,105.48306724467014,75.91821373600766,105.43862280022569C81.69599151378544,105.12751168911458,87.78488040267433,105.48306724467014,88.851547069341,110.28306724467014C88.851547069341,110.28306724467014,88.7626581804521,110.63862280022569,88.71821373600767,111.39417835578125C88.49599151378544,111.79417835578124,88.54043595822989,112.63862280022569,87.69599151378544,112.90528946689236C87.51821373600767,113.08306724467013,87.60710262489656,113.12751168911458,87.38488040267433,112.90528946689236C87.251547069341,113.0386228002257,86.71821373600767,113.21640057800347,87.1626581804521,113.3497339113368C87.1626581804521,113.3497339113368,86.71821373600767,113.97195613355902,86.58488040267433,113.43862280022569C86.09599151378544,113.48306724467014,86.22932484711878,113.66084502244792,85.69599151378544,114.06084502244791C85.74043595822988,114.1497339113368,86.00710262489655,114.19417835578125,86.09599151378544,114.10528946689236C85.91821373600766,114.68306724467014,85.11821373600766,114.68306724467014,85.60710262489656,114.28306724467014C85.60710262489656,114.1497339113368,85.65154706934099,114.01640057800347,85.47376929156322,114.06084502244791C83.69599151378544,115.3497339113368,80.89599151378545,115.7497339113368,79.20710262489655,116.9497339113368C79.65154706934099,117.21640057800347,80.18488040267432,116.63862280022569,80.71821373600767,116.81640057800347C78.89599151378545,117.70528946689235,75.07376929156322,118.77195613355903,73.11821373600766,118.86084502244792C72.18488040267432,118.90528946689236,71.02932484711877,117.39417835578125,72.62932484711877,117.12751168911458C73.29599151378544,117.0386228002257,74.54043595822988,116.86084502244792,75.11821373600766,116.63862280022569C74.40710262489655,112.1497339113368,74.89599151378543,110.86084502244792,75.51821373600767,107.43862280022569C75.60710262489656,107.43862280022569,75.69599151378544,107.39417835578125,75.78488040267433,107.30528946689236C75.07376929156322,106.5497339113368,71.74043595822988,108.99417835578124,71.20710262489655,107.17195613355902C71.20710262489655,107.17195613355902,71.20710262489655,107.17195613355902,71.20710262489655,107.17195613355902M84.22932484711878,115.30528946689236C83.91821373600766,115.43862280022569,83.47376929156322,115.66084502244792,83.11821373600766,115.61640057800346C83.16265818045211,115.66084502244792,83.251547069341,115.70528946689235,83.34043595822989,115.70528946689235C83.16265818045211,115.79417835578124,82.851547069341,115.92751168911458,82.31821373600766,116.10528946689236C82.49599151378544,115.61640057800346,83.65154706934099,115.17195613355902,84.22932484711878,115.30528946689236C84.22932484711878,115.30528946689236,84.22932484711878,115.30528946689236,84.22932484711878,115.30528946689236M81.69599151378544,116.10528946689236C82.14043595822989,116.10528946689236,82.22932484711878,116.19417835578125,81.69599151378544,116.37195613355902C81.69599151378544,116.37195613355902,81.69599151378544,116.10528946689236,81.69599151378544,116.10528946689236C81.69599151378544,116.10528946689236,81.69599151378544,116.10528946689236,81.69599151378544,116.10528946689236M80.80710262489654,116.77195613355903C80.7626581804521,116.63862280022569,80.98488040267432,116.50528946689236,81.07376929156322,116.63862280022569C81.07376929156322,116.68306724467014,80.98488040267432,116.68306724467014,80.80710262489654,116.77195613355903C80.80710262489654,116.77195613355903,80.80710262489654,116.77195613355903,80.80710262489654,116.77195613355903M76.58488040267433,116.23862280022568C77.29599151378544,116.50528946689236,82.67376929156322,114.19417835578125,83.47376929156322,113.88306724467013C84.7626581804521,113.08306724467013,87.96265818045211,111.92751168911458,87.11821373600766,109.7497339113368C86.18488040267432,107.39417835578125,83.38488040267433,107.0386228002257,79.65154706934099,106.77195613355903C78.7626581804521,107.08306724467013,77.42932484711878,106.90528946689236,76.22932484711878,107.12751168911458C77.69599151378544,109.52751168911458,75.69599151378544,112.99417835578124,76.58488040267433,116.23862280022568C76.58488040267433,116.23862280022568,76.58488040267433,116.23862280022568,76.58488040267433,116.23862280022568M78.09599151378544,117.39417835578125C77.91821373600766,117.3497339113368,77.42932484711878,117.17195613355902,77.42932484711878,117.48306724467014C77.74043595822988,117.43862280022569,77.96265818045211,117.39417835578125,78.09599151378544,117.39417835578125C78.09599151378544,117.39417835578125,78.09599151378544,117.39417835578125,78.09599151378544,117.39417835578125M93.47376929156322,115.88306724467013C93.91821373600766,116.06084502244791,96.09599151378544,117.70528946689235,96.36265818045212,118.10528946689236C96.40710262489655,118.41640057800348,96.09599151378544,118.86084502244792,95.82932484711878,118.86084502244792C95.82932484711878,118.86084502244792,93.16265818045211,117.52751168911458,93.16265818045211,117.52751168911458C92.18488040267434,117.61640057800346,91.29599151378544,118.46084502244791,90.27376929156323,118.37195613355902C88.80710262489656,118.5497339113368,87.251547069341,115.39417835578125,89.60710262489656,114.77195613355903C91.42932484711878,113.57195613355903,93.87376929156322,113.0386228002257,94.49599151378544,115.17195613355902C94.49599151378544,115.43862280022569,94.31821373600766,115.70528946689235,94.00710262489656,115.88306724467013C92.54043595822989,114.77195613355903,91.02932484711877,115.66084502244792,90.09599151378545,116.41640057800348C90.54043595822989,117.12751168911458,92.80710262489656,115.61640057800346,93.47376929156322,115.88306724467013C93.47376929156322,115.88306724467013,93.47376929156322,115.88306724467013,93.47376929156322,115.88306724467013M100.45154706934099,111.70528946689235C100.89599151378545,109.88306724467013,102.00710262489655,106.10528946689236,103.34043595822988,105.7497339113368C103.51821373600765,105.79417835578124,104.40710262489654,106.59417835578125,103.82932484711878,107.3497339113368C103.07376929156322,108.32751168911457,102.54043595822989,109.88306724467013,102.22932484711878,111.97195613355902C103.38488040267433,112.32751168911457,104.45154706934099,111.66084502244792,105.47376929156323,112.19417835578125C106.09599151378544,112.19417835578125,106.45154706934099,112.32751168911457,106.45154706934099,112.59417835578125C106.40710262489654,113.43862280022569,104.49599151378544,113.39417835578125,103.91821373600766,113.61640057800346C103.47376929156323,113.66084502244792,101.87376929156322,113.61640057800346,101.51821373600767,114.06084502244791C101.07376929156322,115.12751168911458,101.34043595822989,117.0386228002257,100.62932484711877,118.41640057800348C99.69599151378544,118.28306724467014,99.47376929156322,118.46084502244791,99.47376929156322,117.52751168911458C99.47376929156322,117.12751168911458,99.5626581804521,115.92751168911458,99.82932484711877,113.92751168911458C99.16265818045211,113.3497339113368,96.22932484711878,114.32751168911457,96.40710262489655,112.72751168911458C96.58488040267433,111.0386228002257,99.5626581804521,112.99417835578124,100.45154706934099,111.70528946689235C100.45154706934099,111.70528946689235,100.45154706934099,111.70528946689235,100.45154706934099,111.70528946689235M110.80710262489657,115.88306724467013C111.251547069341,116.06084502244791,113.42932484711878,117.70528946689235,113.69599151378546,118.10528946689236C113.74043595822991,118.41640057800348,113.42932484711878,118.86084502244792,113.16265818045213,118.86084502244792C113.16265818045213,118.86084502244792,110.49599151378544,117.52751168911458,110.49599151378544,117.52751168911458C109.51821373600768,117.61640057800346,108.6293248471188,118.46084502244791,107.60710262489656,118.37195613355902C106.14043595822989,118.5497339113368,104.58488040267434,115.39417835578125,106.9404359582299,114.77195613355903C108.76265818045212,113.57195613355903,111.20710262489655,113.0386228002257,111.82932484711878,115.17195613355902C111.82932484711878,115.43862280022569,111.651547069341,115.70528946689235,111.3404359582299,115.88306724467013C109.87376929156324,114.77195613355903,108.36265818045212,115.66084502244792,107.42932484711878,116.41640057800348C107.87376929156324,117.12751168911458,110.14043595822989,115.61640057800346,110.80710262489657,115.88306724467013C110.80710262489657,115.88306724467013,110.80710262489657,115.88306724467013,110.80710262489657,115.88306724467013" style="-webkit-tap-highlight-color: rgba(0, 0, 0, 0);"></path><path fill="none" stroke="#000000" d="M45.45580156321769,120.61472730560075C71.85377535938058,116.98707840914673,89.79979834668528,123.8597726075069,134.46141353570547,120.97042908490698" stroke-width="2" marker-end="url(#raphael-marker-endblock55-obj1014)" stroke-dasharray="0" style="-webkit-tap-highlight-color: rgba(0, 0, 0, 0);"></path><rect x="71.20710262489655" y="138.8618057282739" width="42.493158756422815" height="13.505843154653661" rx="0" ry="0" fill="#ffffff" stroke="none" style="-webkit-tap-highlight-color: rgba(0, 0, 0, 0);"></rect><path fill="#000000" stroke="none" d="M84.89599151378545,148.41113262154602C84.80710262489654,148.45557706599047,84.7626581804521,148.72224373265712,84.45154706934099,148.63335484376825C84.71821373600767,148.50002151043492,84.89599151378545,148.45557706599047,84.89599151378545,148.41113262154602C84.89599151378545,148.41113262154602,84.89599151378545,148.41113262154602,84.89599151378545,148.41113262154602M71.20710262489655,140.6777992882127C71.29599151378544,139.47779928821268,74.89599151378543,138.9889103993238,75.91821373600766,138.94446595487935C81.69599151378544,138.63335484376825,87.78488040267433,138.9889103993238,88.851547069341,143.7889103993238C88.851547069341,143.7889103993238,88.7626581804521,144.14446595487937,88.71821373600767,144.9000215104349C88.49599151378544,145.3000215104349,88.54043595822989,146.14446595487937,87.69599151378544,146.41113262154602C87.51821373600767,146.5889103993238,87.60710262489656,146.63335484376825,87.38488040267433,146.41113262154602C87.251547069341,146.54446595487934,86.71821373600767,146.72224373265712,87.1626581804521,146.85557706599047C87.1626581804521,146.85557706599047,86.71821373600767,147.47779928821268,86.58488040267433,146.94446595487935C86.09599151378544,146.9889103993238,86.22932484711878,147.16668817710158,85.69599151378544,147.56668817710158C85.74043595822988,147.65557706599046,86.00710262489655,147.7000215104349,86.09599151378544,147.611132621546C85.91821373600766,148.1889103993238,85.11821373600766,148.1889103993238,85.60710262489656,147.78891039932378C85.60710262489656,147.65557706599046,85.65154706934099,147.52224373265713,85.47376929156322,147.56668817710158C83.69599151378544,148.85557706599047,80.89599151378545,149.25557706599045,79.20710262489655,150.45557706599047C79.65154706934099,150.72224373265712,80.18488040267432,150.14446595487937,80.71821373600767,150.32224373265714C78.89599151378545,151.21113262154603,75.07376929156322,152.2777992882127,73.11821373600766,152.36668817710157C72.18488040267432,152.41113262154602,71.02932484711877,150.9000215104349,72.62932484711877,150.63335484376825C73.29599151378544,150.54446595487934,74.54043595822988,150.36668817710157,75.11821373600766,150.14446595487937C74.40710262489655,145.65557706599046,74.89599151378543,144.36668817710157,75.51821373600767,140.94446595487935C75.60710262489656,140.94446595487935,75.69599151378544,140.9000215104349,75.78488040267433,140.81113262154602C75.07376929156322,140.05557706599046,71.74043595822988,142.50002151043492,71.20710262489655,140.6777992882127C71.20710262489655,140.6777992882127,71.20710262489655,140.6777992882127,71.20710262489655,140.6777992882127M84.22932484711878,148.81113262154602C83.91821373600766,148.94446595487935,83.47376929156322,149.16668817710158,83.11821373600766,149.12224373265713C83.16265818045211,149.16668817710158,83.251547069341,149.21113262154603,83.34043595822989,149.21113262154603C83.16265818045211,149.3000215104349,82.851547069341,149.43335484376823,82.31821373600766,149.611132621546C82.49599151378544,149.12224373265713,83.65154706934099,148.6777992882127,84.22932484711878,148.81113262154602C84.22932484711878,148.81113262154602,84.22932484711878,148.81113262154602,84.22932484711878,148.81113262154602M81.69599151378544,149.611132621546C82.14043595822989,149.611132621546,82.22932484711878,149.7000215104349,81.69599151378544,149.87779928821269C81.69599151378544,149.87779928821269,81.69599151378544,149.611132621546,81.69599151378544,149.611132621546C81.69599151378544,149.611132621546,81.69599151378544,149.611132621546,81.69599151378544,149.611132621546M80.80710262489654,150.2777992882127C80.7626581804521,150.14446595487937,80.98488040267432,150.011132621546,81.07376929156322,150.14446595487937C81.07376929156322,150.1889103993238,80.98488040267432,150.1889103993238,80.80710262489654,150.2777992882127C80.80710262489654,150.2777992882127,80.80710262489654,150.2777992882127,80.80710262489654,150.2777992882127M76.58488040267433,149.74446595487936C77.29599151378544,150.011132621546,82.67376929156322,147.7000215104349,83.47376929156322,147.3889103993238C84.7626581804521,146.5889103993238,87.96265818045211,145.43335484376823,87.11821373600766,143.25557706599045C86.18488040267432,140.9000215104349,83.38488040267433,140.54446595487934,79.65154706934099,140.2777992882127C78.7626581804521,140.5889103993238,77.42932484711878,140.41113262154602,76.22932484711878,140.63335484376825C77.69599151378544,143.03335484376825,75.69599151378544,146.50002151043492,76.58488040267433,149.74446595487936C76.58488040267433,149.74446595487936,76.58488040267433,149.74446595487936,76.58488040267433,149.74446595487936M78.09599151378544,150.9000215104349C77.91821373600766,150.85557706599047,77.42932484711878,150.6777992882127,77.42932484711878,150.9889103993238C77.74043595822988,150.94446595487935,77.96265818045211,150.9000215104349,78.09599151378544,150.9000215104349C78.09599151378544,150.9000215104349,78.09599151378544,150.9000215104349,78.09599151378544,150.9000215104349M93.47376929156322,149.3889103993238C93.91821373600766,149.56668817710158,96.09599151378544,151.21113262154603,96.36265818045212,151.611132621546C96.40710262489655,151.92224373265714,96.09599151378544,152.36668817710157,95.82932484711878,152.36668817710157C95.82932484711878,152.36668817710157,93.16265818045211,151.03335484376825,93.16265818045211,151.03335484376825C92.18488040267434,151.12224373265713,91.29599151378544,151.9666881771016,90.27376929156323,151.87779928821269C88.80710262489656,152.05557706599046,87.251547069341,148.9000215104349,89.60710262489656,148.2777992882127C91.42932484711878,147.07779928821267,93.87376929156322,146.54446595487934,94.49599151378544,148.6777992882127C94.49599151378544,148.94446595487935,94.31821373600766,149.21113262154603,94.00710262489656,149.3889103993238C92.54043595822989,148.2777992882127,91.02932484711877,149.16668817710158,90.09599151378545,149.92224373265714C90.54043595822989,150.63335484376825,92.80710262489656,149.12224373265713,93.47376929156322,149.3889103993238C93.47376929156322,149.3889103993238,93.47376929156322,149.3889103993238,93.47376929156322,149.3889103993238M100.45154706934099,145.21113262154603C100.89599151378545,143.3889103993238,102.00710262489655,139.611132621546,103.34043595822988,139.25557706599048C103.51821373600765,139.3000215104349,104.40710262489654,140.1000215104349,103.82932484711878,140.85557706599047C103.07376929156322,141.83335484376823,102.54043595822989,143.3889103993238,102.22932484711878,145.47779928821268C103.38488040267433,145.83335484376823,104.45154706934099,145.16668817710158,105.47376929156323,145.7000215104349C106.09599151378544,145.7000215104349,106.45154706934099,145.83335484376823,106.45154706934099,146.1000215104349C106.40710262489654,146.94446595487935,104.49599151378544,146.9000215104349,103.91821373600766,147.12224373265713C103.47376929156323,147.16668817710158,101.87376929156322,147.12224373265713,101.51821373600767,147.56668817710158C101.07376929156322,148.63335484376825,101.34043595822989,150.54446595487934,100.62932484711877,151.92224373265714C99.69599151378544,151.78891039932378,99.47376929156322,151.9666881771016,99.47376929156322,151.03335484376825C99.47376929156322,150.63335484376825,99.5626581804521,149.43335484376823,99.82932484711877,147.43335484376823C99.16265818045211,146.85557706599047,96.22932484711878,147.83335484376823,96.40710262489655,146.23335484376824C96.58488040267433,144.54446595487934,99.5626581804521,146.50002151043492,100.45154706934099,145.21113262154603C100.45154706934099,145.21113262154603,100.45154706934099,145.21113262154603,100.45154706934099,145.21113262154603M110.80710262489657,149.3889103993238C111.251547069341,149.56668817710158,113.42932484711878,151.21113262154603,113.69599151378546,151.611132621546C113.74043595822991,151.92224373265714,113.42932484711878,152.36668817710157,113.16265818045213,152.36668817710157C113.16265818045213,152.36668817710157,110.49599151378544,151.03335484376825,110.49599151378544,151.03335484376825C109.51821373600768,151.12224373265713,108.6293248471188,151.9666881771016,107.60710262489656,151.87779928821269C106.14043595822989,152.05557706599046,104.58488040267434,148.9000215104349,106.9404359582299,148.2777992882127C108.76265818045212,147.07779928821267,111.20710262489655,146.54446595487934,111.82932484711878,148.6777992882127C111.82932484711878,148.94446595487935,111.651547069341,149.21113262154603,111.3404359582299,149.3889103993238C109.87376929156324,148.2777992882127,108.36265818045212,149.16668817710158,107.42932484711878,149.92224373265714C107.87376929156324,150.63335484376825,110.14043595822989,149.12224373265713,110.80710262489657,149.3889103993238C110.80710262489657,149.3889103993238,110.80710262489657,149.3889103993238,110.80710262489657,149.3889103993238" style="-webkit-tap-highlight-color: rgba(0, 0, 0, 0);"></path><path fill="none" stroke="#000000" d="M139.45156244299824,154.12057046025444C115.51526290522241,157.7853954144783,113.17638320808176,150.73355999535835,50.45672288221935,153.85679591215978" stroke-width="2" marker-end="url(#raphael-marker-endblock55-obj1017)" stroke-dasharray="0" style="-webkit-tap-highlight-color: rgba(0, 0, 0, 0);"></path><rect x="71.20710262489655" y="172.3676488829276" width="42.493158756422815" height="13.505843154653661" rx="0" ry="0" fill="#ffffff" stroke="none" style="-webkit-tap-highlight-color: rgba(0, 0, 0, 0);"></rect><path fill="#000000" stroke="none" d="M84.89599151378545,181.9169757761997C84.80710262489654,181.96142022064416,84.7626581804521,182.2280868873108,84.45154706934099,182.13919799842193C84.71821373600767,182.0058646650886,84.89599151378545,181.96142022064416,84.89599151378545,181.9169757761997C84.89599151378545,181.9169757761997,84.89599151378545,181.9169757761997,84.89599151378545,181.9169757761997M71.20710262489655,174.1836424428664C71.29599151378544,172.98364244286637,74.89599151378543,172.4947535539775,75.91821373600766,172.45030910953304C81.69599151378544,172.13919799842193,87.78488040267433,172.4947535539775,88.851547069341,177.2947535539775C88.851547069341,177.2947535539775,88.7626581804521,177.65030910953305,88.71821373600767,178.4058646650886C88.49599151378544,178.8058646650886,88.54043595822989,179.65030910953305,87.69599151378544,179.9169757761997C87.51821373600767,180.09475355397748,87.60710262489656,180.13919799842193,87.38488040267433,179.9169757761997C87.251547069341,180.05030910953303,86.71821373600767,180.2280868873108,87.1626581804521,180.36142022064416C87.1626581804521,180.36142022064416,86.71821373600767,180.98364244286637,86.58488040267433,180.45030910953304C86.09599151378544,180.4947535539775,86.22932484711878,180.67253133175527,85.69599151378544,181.07253133175527C85.74043595822988,181.16142022064415,86.00710262489655,181.2058646650886,86.09599151378544,181.1169757761997C85.91821373600766,181.69475355397748,85.11821373600766,181.69475355397748,85.60710262489656,181.29475355397747C85.60710262489656,181.16142022064415,85.65154706934099,181.02808688731082,85.47376929156322,181.07253133175527C83.69599151378544,182.36142022064416,80.89599151378545,182.76142022064414,79.20710262489655,183.96142022064416C79.65154706934099,184.2280868873108,80.18488040267432,183.65030910953305,80.71821373600767,183.82808688731083C78.89599151378545,184.71697577619972,75.07376929156322,185.78364244286638,73.11821373600766,185.87253133175525C72.18488040267432,185.9169757761997,71.02932484711877,184.4058646650886,72.62932484711877,184.13919799842193C73.29599151378544,184.05030910953303,74.54043595822988,183.87253133175525,75.11821373600766,183.65030910953305C74.40710262489655,179.16142022064415,74.89599151378543,177.87253133175525,75.51821373600767,174.45030910953304C75.60710262489656,174.45030910953304,75.69599151378544,174.4058646650886,75.78488040267433,174.3169757761997C75.07376929156322,173.56142022064415,71.74043595822988,176.0058646650886,71.20710262489655,174.1836424428664C71.20710262489655,174.1836424428664,71.20710262489655,174.1836424428664,71.20710262489655,174.1836424428664M84.22932484711878,182.3169757761997C83.91821373600766,182.45030910953304,83.47376929156322,182.67253133175527,83.11821373600766,182.62808688731081C83.16265818045211,182.67253133175527,83.251547069341,182.71697577619972,83.34043595822989,182.71697577619972C83.16265818045211,182.8058646650886,82.851547069341,182.93919799842192,82.31821373600766,183.1169757761997C82.49599151378544,182.62808688731081,83.65154706934099,182.1836424428664,84.22932484711878,182.3169757761997C84.22932484711878,182.3169757761997,84.22932484711878,182.3169757761997,84.22932484711878,182.3169757761997M81.69599151378544,183.1169757761997C82.14043595822989,183.1169757761997,82.22932484711878,183.2058646650886,81.69599151378544,183.38364244286637C81.69599151378544,183.38364244286637,81.69599151378544,183.1169757761997,81.69599151378544,183.1169757761997C81.69599151378544,183.1169757761997,81.69599151378544,183.1169757761997,81.69599151378544,183.1169757761997M80.80710262489654,183.78364244286638C80.7626581804521,183.65030910953305,80.98488040267432,183.5169757761997,81.07376929156322,183.65030910953305C81.07376929156322,183.69475355397748,80.98488040267432,183.69475355397748,80.80710262489654,183.78364244286638C80.80710262489654,183.78364244286638,80.80710262489654,183.78364244286638,80.80710262489654,183.78364244286638M76.58488040267433,183.25030910953305C77.29599151378544,183.5169757761997,82.67376929156322,181.2058646650886,83.47376929156322,180.8947535539775C84.7626581804521,180.09475355397748,87.96265818045211,178.93919799842192,87.11821373600766,176.76142022064414C86.18488040267432,174.4058646650886,83.38488040267433,174.05030910953303,79.65154706934099,173.78364244286638C78.7626581804521,174.09475355397748,77.42932484711878,173.9169757761997,76.22932484711878,174.13919799842193C77.69599151378544,176.53919799842194,75.69599151378544,180.0058646650886,76.58488040267433,183.25030910953305C76.58488040267433,183.25030910953305,76.58488040267433,183.25030910953305,76.58488040267433,183.25030910953305M78.09599151378544,184.4058646650886C77.91821373600766,184.36142022064416,77.42932484711878,184.1836424428664,77.42932484711878,184.4947535539775C77.74043595822988,184.45030910953304,77.96265818045211,184.4058646650886,78.09599151378544,184.4058646650886C78.09599151378544,184.4058646650886,78.09599151378544,184.4058646650886,78.09599151378544,184.4058646650886M93.47376929156322,182.8947535539775C93.91821373600766,183.07253133175527,96.09599151378544,184.71697577619972,96.36265818045212,185.1169757761997C96.40710262489655,185.42808688731083,96.09599151378544,185.87253133175525,95.82932484711878,185.87253133175525C95.82932484711878,185.87253133175525,93.16265818045211,184.53919799842194,93.16265818045211,184.53919799842194C92.18488040267434,184.62808688731081,91.29599151378544,185.47253133175528,90.27376929156323,185.38364244286637C88.80710262489656,185.56142022064415,87.251547069341,182.4058646650886,89.60710262489656,181.78364244286638C91.42932484711878,180.58364244286636,93.87376929156322,180.05030910953303,94.49599151378544,182.1836424428664C94.49599151378544,182.45030910953304,94.31821373600766,182.71697577619972,94.00710262489656,182.8947535539775C92.54043595822989,181.78364244286638,91.02932484711877,182.67253133175527,90.09599151378545,183.42808688731083C90.54043595822989,184.13919799842193,92.80710262489656,182.62808688731081,93.47376929156322,182.8947535539775C93.47376929156322,182.8947535539775,93.47376929156322,182.8947535539775,93.47376929156322,182.8947535539775M100.45154706934099,178.71697577619972C100.89599151378545,176.8947535539775,102.00710262489655,173.1169757761997,103.34043595822988,172.76142022064414C103.51821373600765,172.8058646650886,104.40710262489654,173.6058646650886,103.82932484711878,174.36142022064416C103.07376929156322,175.33919799842192,102.54043595822989,176.8947535539775,102.22932484711878,178.98364244286637C103.38488040267433,179.33919799842192,104.45154706934099,178.67253133175527,105.47376929156323,179.2058646650886C106.09599151378544,179.2058646650886,106.45154706934099,179.33919799842192,106.45154706934099,179.6058646650886C106.40710262489654,180.45030910953304,104.49599151378544,180.4058646650886,103.91821373600766,180.62808688731081C103.47376929156323,180.67253133175527,101.87376929156322,180.62808688731081,101.51821373600767,181.07253133175527C101.07376929156322,182.13919799842193,101.34043595822989,184.05030910953303,100.62932484711877,185.42808688731083C99.69599151378544,185.29475355397747,99.47376929156322,185.47253133175528,99.47376929156322,184.53919799842194C99.47376929156322,184.13919799842193,99.5626581804521,182.93919799842192,99.82932484711877,180.93919799842192C99.16265818045211,180.36142022064416,96.22932484711878,181.33919799842192,96.40710262489655,179.73919799842193C96.58488040267433,178.05030910953303,99.5626581804521,180.0058646650886,100.45154706934099,178.71697577619972C100.45154706934099,178.71697577619972,100.45154706934099,178.71697577619972,100.45154706934099,178.71697577619972M110.80710262489657,182.8947535539775C111.251547069341,183.07253133175527,113.42932484711878,184.71697577619972,113.69599151378546,185.1169757761997C113.74043595822991,185.42808688731083,113.42932484711878,185.87253133175525,113.16265818045213,185.87253133175525C113.16265818045213,185.87253133175525,110.49599151378544,184.53919799842194,110.49599151378544,184.53919799842194C109.51821373600768,184.62808688731081,108.6293248471188,185.47253133175528,107.60710262489656,185.38364244286637C106.14043595822989,185.56142022064415,104.58488040267434,182.4058646650886,106.9404359582299,181.78364244286638C108.76265818045212,180.58364244286636,111.20710262489655,180.05030910953303,111.82932484711878,182.1836424428664C111.82932484711878,182.45030910953304,111.651547069341,182.71697577619972,111.3404359582299,182.8947535539775C109.87376929156324,181.78364244286638,108.36265818045212,182.67253133175527,107.42932484711878,183.42808688731083C107.87376929156324,184.13919799842193,110.14043595822989,182.62808688731081,110.80710262489657,182.8947535539775C110.80710262489657,182.8947535539775,110.80710262489657,182.8947535539775,110.80710262489657,182.8947535539775" style="-webkit-tap-highlight-color: rgba(0, 0, 0, 0);"></path><path fill="none" stroke="#000000" d="M45.45580156321769,187.62641361490813C95.16456461911753,191.06405154942743,116.64483825687957,185.0725239091605,134.50490370613508,186.89412809526675" stroke-width="2" marker-end="url(#raphael-marker-endblock55-obj1020)" stroke-dasharray="0" style="-webkit-tap-highlight-color: rgba(0, 0, 0, 0);"></path><rect x="71.20710262489655" y="205.87349203758131" width="42.493158756422815" height="13.50584315465369" rx="0" ry="0" fill="#ffffff" stroke="none" style="-webkit-tap-highlight-color: rgba(0, 0, 0, 0);"></rect><path fill="#000000" stroke="none" d="M84.89599151378545,215.4228189308534C84.80710262489654,215.46726337529788,84.7626581804521,215.73393004196453,84.45154706934099,215.64504115307562C84.71821373600767,215.5117078197423,84.89599151378545,215.46726337529788,84.89599151378545,215.4228189308534C84.89599151378545,215.4228189308534,84.89599151378545,215.4228189308534,84.89599151378545,215.4228189308534M71.20710262489655,207.6894855975201C71.29599151378544,206.48948559752006,74.89599151378543,206.00059670863118,75.91821373600766,205.95615226418676C81.69599151378544,205.64504115307562,87.78488040267433,206.00059670863118,88.851547069341,210.8005967086312C88.851547069341,210.8005967086312,88.7626581804521,211.15615226418674,88.71821373600767,211.91170781974228C88.49599151378544,212.3117078197423,88.54043595822989,213.15615226418674,87.69599151378544,213.4228189308534C87.51821373600767,213.6005967086312,87.60710262489656,213.64504115307562,87.38488040267433,213.4228189308534C87.251547069341,213.55615226418672,86.71821373600767,213.73393004196453,87.1626581804521,213.86726337529785C87.1626581804521,213.86726337529785,86.71821373600767,214.48948559752006,86.58488040267433,213.95615226418676C86.09599151378544,214.00059670863118,86.22932484711878,214.17837448640898,85.69599151378544,214.57837448640896C85.74043595822988,214.66726337529786,86.00710262489655,214.7117078197423,86.09599151378544,214.62281893085338C85.91821373600766,215.20059670863117,85.11821373600766,215.20059670863117,85.60710262489656,214.8005967086312C85.60710262489656,214.66726337529786,85.65154706934099,214.53393004196454,85.47376929156322,214.57837448640896C83.69599151378544,215.86726337529785,80.89599151378545,216.26726337529783,79.20710262489655,217.46726337529788C79.65154706934099,217.73393004196453,80.18488040267432,217.15615226418674,80.71821373600767,217.33393004196455C78.89599151378545,218.2228189308534,75.07376929156322,219.28948559752007,73.11821373600766,219.37837448640897C72.18488040267432,219.4228189308534,71.02932484711877,217.91170781974228,72.62932484711877,217.64504115307562C73.29599151378544,217.55615226418672,74.54043595822988,217.37837448640897,75.11821373600766,217.15615226418674C74.40710262489655,212.66726337529786,74.89599151378543,211.37837448640897,75.51821373600767,207.95615226418676C75.60710262489656,207.95615226418676,75.69599151378544,207.91170781974228,75.78488040267433,207.82281893085343C75.07376929156322,207.06726337529784,71.74043595822988,209.5117078197423,71.20710262489655,207.6894855975201C71.20710262489655,207.6894855975201,71.20710262489655,207.6894855975201,71.20710262489655,207.6894855975201M84.22932484711878,215.82281893085343C83.91821373600766,215.95615226418676,83.47376929156322,216.17837448640898,83.11821373600766,216.1339300419645C83.16265818045211,216.17837448640898,83.251547069341,216.2228189308534,83.34043595822989,216.2228189308534C83.16265818045211,216.3117078197423,82.851547069341,216.44504115307564,82.31821373600766,216.62281893085338C82.49599151378544,216.1339300419645,83.65154706934099,215.6894855975201,84.22932484711878,215.82281893085343C84.22932484711878,215.82281893085343,84.22932484711878,215.82281893085343,84.22932484711878,215.82281893085343M81.69599151378544,216.62281893085338C82.14043595822989,216.62281893085338,82.22932484711878,216.7117078197423,81.69599151378544,216.8894855975201C81.69599151378544,216.8894855975201,81.69599151378544,216.62281893085338,81.69599151378544,216.62281893085338C81.69599151378544,216.62281893085338,81.69599151378544,216.62281893085338,81.69599151378544,216.62281893085338M80.80710262489654,217.28948559752007C80.7626581804521,217.15615226418674,80.98488040267432,217.02281893085342,81.07376929156322,217.15615226418674C81.07376929156322,217.20059670863117,80.98488040267432,217.20059670863117,80.80710262489654,217.28948559752007C80.80710262489654,217.28948559752007,80.80710262489654,217.28948559752007,80.80710262489654,217.28948559752007M76.58488040267433,216.75615226418677C77.29599151378544,217.02281893085342,82.67376929156322,214.7117078197423,83.47376929156322,214.4005967086312C84.7626581804521,213.6005967086312,87.96265818045211,212.44504115307564,87.11821373600766,210.26726337529783C86.18488040267432,207.91170781974228,83.38488040267433,207.55615226418672,79.65154706934099,207.28948559752007C78.7626581804521,207.6005967086312,77.42932484711878,207.4228189308534,76.22932484711878,207.64504115307562C77.69599151378544,210.04504115307566,75.69599151378544,213.5117078197423,76.58488040267433,216.75615226418677C76.58488040267433,216.75615226418677,76.58488040267433,216.75615226418677,76.58488040267433,216.75615226418677M78.09599151378544,217.91170781974228C77.91821373600766,217.86726337529785,77.42932484711878,217.6894855975201,77.42932484711878,218.00059670863118C77.74043595822988,217.95615226418676,77.96265818045211,217.91170781974228,78.09599151378544,217.91170781974228C78.09599151378544,217.91170781974228,78.09599151378544,217.91170781974228,78.09599151378544,217.91170781974228M93.47376929156322,216.4005967086312C93.91821373600766,216.57837448640896,96.09599151378544,218.2228189308534,96.36265818045212,218.62281893085338C96.40710262489655,218.93393004196452,96.09599151378544,219.37837448640897,95.82932484711878,219.37837448640897C95.82932484711878,219.37837448640897,93.16265818045211,218.04504115307566,93.16265818045211,218.04504115307566C92.18488040267434,218.1339300419645,91.29599151378544,218.978374486409,90.27376929156323,218.8894855975201C88.80710262489656,219.06726337529784,87.251547069341,215.91170781974228,89.60710262489656,215.28948559752007C91.42932484711878,214.08948559752008,93.87376929156322,213.55615226418672,94.49599151378544,215.6894855975201C94.49599151378544,215.95615226418676,94.31821373600766,216.2228189308534,94.00710262489656,216.4005967086312C92.54043595822989,215.28948559752007,91.02932484711877,216.17837448640898,90.09599151378545,216.93393004196452C90.54043595822989,217.64504115307562,92.80710262489656,216.1339300419645,93.47376929156322,216.4005967086312C93.47376929156322,216.4005967086312,93.47376929156322,216.4005967086312,93.47376929156322,216.4005967086312M100.45154706934099,212.2228189308534C100.89599151378545,210.4005967086312,102.00710262489655,206.62281893085338,103.34043595822988,206.26726337529783C103.51821373600765,206.3117078197423,104.40710262489654,207.11170781974232,103.82932484711878,207.86726337529785C103.07376929156322,208.8450411530756,102.54043595822989,210.4005967086312,102.22932484711878,212.48948559752006C103.38488040267433,212.8450411530756,104.45154706934099,212.17837448640898,105.47376929156323,212.7117078197423C106.09599151378544,212.7117078197423,106.45154706934099,212.8450411530756,106.45154706934099,213.11170781974232C106.40710262489654,213.95615226418676,104.49599151378544,213.91170781974228,103.91821373600766,214.1339300419645C103.47376929156323,214.17837448640898,101.87376929156322,214.1339300419645,101.51821373600767,214.57837448640896C101.07376929156322,215.64504115307562,101.34043595822989,217.55615226418672,100.62932484711877,218.93393004196452C99.69599151378544,218.8005967086312,99.47376929156322,218.978374486409,99.47376929156322,218.04504115307566C99.47376929156322,217.64504115307562,99.5626581804521,216.44504115307564,99.82932484711877,214.44504115307564C99.16265818045211,213.86726337529785,96.22932484711878,214.8450411530756,96.40710262489655,213.24504115307565C96.58488040267433,211.55615226418672,99.5626581804521,213.5117078197423,100.45154706934099,212.2228189308534C100.45154706934099,212.2228189308534,100.45154706934099,212.2228189308534,100.45154706934099,212.2228189308534M110.80710262489657,216.4005967086312C111.251547069341,216.57837448640896,113.42932484711878,218.2228189308534,113.69599151378546,218.62281893085338C113.74043595822991,218.93393004196452,113.42932484711878,219.37837448640897,113.16265818045213,219.37837448640897C113.16265818045213,219.37837448640897,110.49599151378544,218.04504115307566,110.49599151378544,218.04504115307566C109.51821373600768,218.1339300419645,108.6293248471188,218.978374486409,107.60710262489656,218.8894855975201C106.14043595822989,219.06726337529784,104.58488040267434,215.91170781974228,106.9404359582299,215.28948559752007C108.76265818045212,214.08948559752008,111.20710262489655,213.55615226418672,111.82932484711878,215.6894855975201C111.82932484711878,215.95615226418676,111.651547069341,216.2228189308534,111.3404359582299,216.4005967086312C109.87376929156324,215.28948559752007,108.36265818045212,216.17837448640898,107.42932484711878,216.93393004196452C107.87376929156324,217.64504115307562,110.14043595822989,216.1339300419645,110.80710262489657,216.4005967086312C110.80710262489657,216.4005967086312,110.80710262489657,216.4005967086312,110.80710262489657,216.4005967086312" style="-webkit-tap-highlight-color: rgba(0, 0, 0, 0);"></path><path fill="none" stroke="#000000" d="M139.45156244299824,221.13225676956182C105.75379993114832,217.52847398426866,87.94357428358148,224.28732636625645,50.44114392696165,221.54372325793486" stroke-width="2" marker-end="url(#raphael-marker-endblock55-obj1023)" stroke-dasharray="0" style="-webkit-tap-highlight-color: rgba(0, 0, 0, 0);"></path></svg>