<?xml version="1.0" encoding="utf-8" standalone="no"?><!DOCTYPE svg PUBLIC "-//W3C//DTD SVG 20010904//EN" "http://www.w3.org/TR/2001/REC-SVG-20010904/DTD/svg10.dtd"><svg xmlns="http://www.w3.org/2000/svg" width="207" height="208" xmlns:xlink="http://www.w3.org/1999/xlink"><source><![CDATA[Client->Server: Ping
Server->Client: Pong
]]></source><desc style="-webkit-tap-highlight-color: rgba(0, 0, 0, 0);">Created with Raphaël 2.1.2</desc><defs style="-webkit-tap-highlight-color: rgba(0, 0, 0, 0);"><path stroke-linecap="round" d="M5,0 0,2.5 5,5z" id="raphael-marker-block" style="-webkit-tap-highlight-color: rgba(0, 0, 0, 0);"></path><marker id="raphael-marker-endblock55-obj984" markerHeight="5" markerWidth="5" orient="auto" refX="2.5" refY="2.5" style="-webkit-tap-highlight-color: rgba(0, 0, 0, 0);"><use xmlns:xlink="http://www.w3.org/1999/xlink" xlink:href="#raphael-marker-block" transform="rotate(180 2.5 2.5) scale(1,1)" stroke-width="1.0000" fill="#000" stroke="none" style="-webkit-tap-highlight-color: rgba(0, 0, 0, 0);"></use></marker><marker id="raphael-marker-endblock55-obj987" markerHeight="5" markerWidth="5" orient="auto" refX="2.5" refY="2.5" style="-webkit-tap-highlight-color: rgba(0, 0, 0, 0);"><use xmlns:xlink="http://www.w3.org/1999/xlink" xlink:href="#raphael-marker-block" transform="rotate(180 2.5 2.5) scale(1,1)" stroke-width="1.0000" fill="#000" stroke="none" style="-webkit-tap-highlight-color: rgba(0, 0, 0, 0);"></use></marker></defs><path fill="#ffffff" stroke="#000000" d="M10,20C24.659513688153382,22.836464125057415,51.486368973662564,17.163535874942585,80.91160312643538,20C79.56748148658365,22.725871887815806,82.25572476628712,45.33330120574237,80.91160312643538,53.60304099629341C39.514002397742686,56.43950512135083,36.33087268345351,50.76657687123599,10,53.60304099629341C8.655878360148265,30.040948804732647,11.344121639851735,46.513664258755604,10,20" stroke-width="2" style="-webkit-tap-highlight-color: rgba(0, 0, 0, 0);"></path><rect x="20" y="29.999999999999996" width="50.91160312643538" height="13.603040996293405" rx="0" ry="0" fill="#ffffff" stroke="none" style="-webkit-tap-highlight-color: rgba(0, 0, 0, 0);"></rect><path fill="#000000" stroke="none" d="M21.88938090421316,38.301905193824275C21.356047570879827,41.635238527157604,26.156047570879824,41.67968297160205,29.26715868199094,41.45746074937983C29.26715868199094,41.45746074937983,35.71160312643538,41.013016304935384,35.71160312643538,41.013016304935384C36.111603126435384,41.10190519382427,36.111603126435384,41.235238527157605,36.111603126435384,41.81301630493538C34.46715868199094,42.613016304935385,32.3338253486576,43.05746074937983,31.26715868199094,42.79079408271316C30.46715868199094,43.235238527157605,29.17826979310205,43.235238527157605,28.11160312643538,43.235238527157605C26.822714237546496,43.235238527157605,25.08938090421316,43.27968297160205,23.444936459768716,42.74634963826872C23.17826979310205,42.701905193824274,23.000492015324273,42.613016304935385,23.000492015324273,42.390794082713164C21.533825348657604,41.81301630493538,20.86715868199094,40.924127416046495,20.067158681990936,39.76857186049094C19.222714237546494,34.701905193824274,26.55604757087983,33.10190519382427,30.02271423754649,31.90190519382427C31.57826979310205,31.90190519382427,33.93382534865761,30.524127416046497,34.42271423754649,32.21301630493538C34.37826979310205,33.50190519382427,32.24493645976871,32.83523852715761,31.044936459768717,33.45746074937983C28.600492015324267,33.81301630493538,25.933825348657603,35.013016304935384,23.26715868199094,36.613016304935385C22.689380904213163,36.96857186049094,22.244936459768713,37.546349638268715,21.88938090421316,38.301905193824275C21.88938090421316,38.301905193824275,21.88938090421316,38.301905193824275,21.88938090421316,38.301905193824275M39.267158681990935,30.035238527157603C40.20049201532426,29.768571860490937,40.91160312643538,31.05746074937983,40.600492015324264,32.47968297160205C40.15604757087982,34.74634963826872,39.356047570879824,38.47968297160205,39.356047570879824,41.72412741604649C39.356047570879824,42.21301630493539,39.62271423754649,43.324127416046494,38.77826979310204,43.36857186049094C37.48938090421315,43.14634963826872,37.44493645976871,41.235238527157605,37.66715868199093,39.67968297160205C37.66715868199093,39.67968297160205,38.91160312643538,31.81301630493538,38.91160312643538,31.81301630493538C38.644936459768715,31.05746074937983,38.95604757087982,30.524127416046497,39.267158681990935,30.035238527157603C39.267158681990935,30.035238527157603,39.267158681990935,30.035238527157603,39.267158681990935,30.035238527157603M43.62271423754649,34.07968297160205C43.93382534865759,34.87968297160205,44.02271423754648,35.10190519382427,43.40049201532426,35.76857186049094C42.378269793102035,35.50190519382427,42.467158681990924,34.96857186049094,42.91160312643538,34.168571860490935C43.00049201532427,34.168571860490935,43.267158681990935,34.12412741604649,43.62271423754649,34.07968297160205C43.62271423754649,34.07968297160205,43.62271423754649,34.07968297160205,43.62271423754649,34.07968297160205M42.378269793102035,43.05746074937983C41.57826979310204,42.1241274160465,42.02271423754648,39.81301630493538,42.3338253486576,38.34634963826872C42.6449364597687,37.90190519382427,43.222714237546484,37.99079408271316,43.356047570879824,38.613016304935385C43.31160312643537,40.21301630493539,43.66715868199093,41.81301630493538,43.267158681990935,43.235238527157605C42.91160312643538,43.324127416046494,42.91160312643538,43.235238527157605,42.378269793102035,43.05746074937983C42.378269793102035,43.05746074937983,42.378269793102035,43.05746074937983,42.378269793102035,43.05746074937983M44.600492015324264,40.83523852715761C44.600492015324264,38.25746074937983,46.86715868199093,37.67968297160205,49.48938090421315,37.546349638268715C50.95604757087982,37.50190519382427,51.48938090421315,38.25746074937983,52.11160312643537,39.10190519382427C52.15604757087982,39.72412741604649,52.20049201532426,40.83523852715761,51.80049201532427,40.96857186049094C50.733825348657604,40.87968297160205,48.55604757087983,41.546349638268715,47.40049201532426,41.45746074937983C47.31160312643537,41.546349638268715,47.31160312643537,41.59079408271316,47.31160312643537,41.59079408271316C47.31160312643537,41.72412741604649,47.844936459768704,41.94634963826872,48.95604757087982,42.25746074937983C49.889380904213155,42.25746074937983,52.02271423754648,42.65746074937983,50.3338253486576,43.235238527157605C49.93382534865759,43.857460749379825,48.82271423754649,43.50190519382427,47.844936459768704,43.50190519382427C46.644936459768715,43.27968297160205,44.600492015324264,42.25746074937983,44.600492015324264,40.83523852715761C44.600492015324264,40.83523852715761,44.600492015324264,40.83523852715761,44.600492015324264,40.83523852715761M49.889380904213155,38.83523852715761C48.91160312643538,38.924127416046495,46.86715868199093,39.05746074937983,47.00049201532427,39.990794082713165C48.06715868199093,39.90190519382427,49.93382534865759,40.21301630493539,50.511603126435375,39.72412741604649C50.28938090421315,39.14634963826872,50.467158681990924,39.14634963826872,49.889380904213155,38.83523852715761C49.889380904213155,38.83523852715761,49.889380904213155,38.83523852715761,49.889380904213155,38.83523852715761M57.889380904213155,37.324127416046494C59.5338253486576,37.59079408271316,60.6449364597687,39.72412741604649,60.6449364597687,42.25746074937983C60.6449364597687,43.67968297160205,59.93382534865759,43.36857186049094,59.267158681990935,43.013016304935384C58.467158681990924,41.67968297160205,59.04493645976871,41.013016304935384,58.28938090421315,39.235238527157605C56.644936459768715,38.65746074937983,55.133825348657595,41.67968297160205,54.20049201532426,42.1241274160465C53.31160312643537,41.990794082713165,52.467158681990924,40.390794082713164,53.267158681990935,39.36857186049094C53.356047570879824,38.83523852715761,53.40049201532426,38.701905193824274,53.756047570879815,38.0352385271576C54.28938090421315,37.67968297160205,54.644936459768715,38.5241274160465,55.04493645976871,38.56857186049094C55.04493645976871,38.56857186049094,57.889380904213155,37.324127416046494,57.889380904213155,37.324127416046494M64.91160312643538,36.701905193824274C65.35604757087984,34.87968297160205,66.46715868199094,31.101905193824273,67.80049201532428,30.74634963826872C67.97826979310206,30.790794082713163,68.86715868199094,31.59079408271316,68.28938090421316,32.34634963826872C67.53382534865761,33.324127416046494,67.00049201532428,34.87968297160205,66.68938090421317,36.96857186049094C67.84493645976872,37.324127416046494,68.91160312643538,36.65746074937983,69.9338253486576,37.19079408271316C70.55604757087983,37.19079408271316,70.91160312643538,37.324127416046494,70.91160312643538,37.59079408271316C70.86715868199094,38.43523852715761,68.95604757087983,38.390794082713164,68.37826979310205,38.613016304935385C67.9338253486576,38.65746074937983,66.33382534865761,38.613016304935385,65.97826979310206,39.05746074937983C65.53382534865761,40.1241274160465,65.80049201532428,42.03523852715761,65.08938090421316,43.41301630493538C64.15604757087984,43.27968297160205,63.93382534865761,43.45746074937983,63.93382534865761,42.5241274160465C63.93382534865761,42.1241274160465,64.0227142375465,40.924127416046495,64.28938090421316,38.924127416046495C63.622714237546504,38.34634963826872,60.689380904213166,39.324127416046494,60.867158681990944,37.72412741604649C61.04493645976872,36.0352385271576,64.0227142375465,37.99079408271316,64.91160312643538,36.701905193824274C64.91160312643538,36.701905193824274,64.91160312643538,36.701905193824274,64.91160312643538,36.701905193824274" style="-webkit-tap-highlight-color: rgba(0, 0, 0, 0);"></path><path fill="#ffffff" stroke="#000000" d="M10,154.8379926825803C57.353218455236586,152.0015285575229,15.715826438147655,157.6744568076377,80.91160312643538,154.8379926825803C79.56748148658365,166.5108226944986,82.25572476628712,163.46954287107363,80.91160312643538,188.4410336788737C55.924559457027236,191.2774978039311,26.632563570030054,185.6045695538163,10,188.4410336788737C8.655878360148265,168.53395814558198,11.344121639851735,175.84205447297478,10,154.8379926825803" stroke-width="2" style="-webkit-tap-highlight-color: rgba(0, 0, 0, 0);"></path><rect x="20" y="164.83799268258028" width="50.91160312643538" height="13.60304099629343" rx="0" ry="0" fill="#ffffff" stroke="none" style="-webkit-tap-highlight-color: rgba(0, 0, 0, 0);"></rect><path fill="#000000" stroke="none" d="M21.88938090421316,173.1398978764046C21.356047570879827,176.47323120973795,26.156047570879824,176.51767565418237,29.26715868199094,176.29545343196017C29.26715868199094,176.29545343196017,35.71160312643538,175.8510089875157,35.71160312643538,175.8510089875157C36.111603126435384,175.9398978764046,36.111603126435384,176.07323120973794,36.111603126435384,176.65100898751572C34.46715868199094,177.4510089875157,32.3338253486576,177.89545343196016,31.26715868199094,177.62878676529348C30.46715868199094,178.07323120973794,29.17826979310205,178.07323120973794,28.11160312643538,178.07323120973794C26.822714237546496,178.07323120973794,25.08938090421316,178.11767565418236,23.444936459768716,177.58434232084903C23.17826979310205,177.5398978764046,23.000492015324273,177.4510089875157,23.000492015324273,177.22878676529348C21.533825348657604,176.65100898751572,20.86715868199094,175.7621200986268,20.067158681990936,174.60656454307127C19.222714237546494,169.5398978764046,26.55604757087983,167.9398978764046,30.02271423754649,166.7398978764046C31.57826979310205,166.7398978764046,33.93382534865761,165.36212009862683,34.42271423754649,167.0510089875157C34.37826979310205,168.3398978764046,32.24493645976871,167.67323120973793,31.044936459768717,168.29545343196014C28.600492015324267,168.65100898751572,25.933825348657603,169.8510089875157,23.26715868199094,171.4510089875157C22.689380904213163,171.80656454307126,22.244936459768713,172.38434232084904,21.88938090421316,173.1398978764046C21.88938090421316,173.1398978764046,21.88938090421316,173.1398978764046,21.88938090421316,173.1398978764046M39.267158681990935,164.87323120973792C40.20049201532426,164.60656454307127,40.91160312643538,165.89545343196016,40.600492015324264,167.31767565418238C40.15604757087982,169.58434232084903,39.356047570879824,173.31767565418238,39.356047570879824,176.56212009862682C39.356047570879824,177.0510089875157,39.62271423754649,178.16212009862681,38.77826979310204,178.20656454307127C37.48938090421315,177.98434232084904,37.44493645976871,176.07323120973794,37.66715868199093,174.51767565418237C37.66715868199093,174.51767565418237,38.91160312643538,166.65100898751572,38.91160312643538,166.65100898751572C38.644936459768715,165.89545343196016,38.95604757087982,165.36212009862683,39.267158681990935,164.87323120973792C39.267158681990935,164.87323120973792,39.267158681990935,164.87323120973792,39.267158681990935,164.87323120973792M43.62271423754649,168.91767565418237C43.93382534865759,169.7176756541824,44.02271423754648,169.9398978764046,43.40049201532426,170.60656454307127C42.378269793102035,170.3398978764046,42.467158681990924,169.80656454307126,42.91160312643538,169.00656454307128C43.00049201532427,169.00656454307128,43.267158681990935,168.96212009862683,43.62271423754649,168.91767565418237C43.62271423754649,168.91767565418237,43.62271423754649,168.91767565418237,43.62271423754649,168.91767565418237M42.378269793102035,177.89545343196016C41.57826979310204,176.96212009862683,42.02271423754648,174.65100898751572,42.3338253486576,173.18434232084905C42.6449364597687,172.7398978764046,43.222714237546484,172.8287867652935,43.356047570879824,173.4510089875157C43.31160312643537,175.0510089875157,43.66715868199093,176.65100898751572,43.267158681990935,178.07323120973794C42.91160312643538,178.16212009862681,42.91160312643538,178.07323120973794,42.378269793102035,177.89545343196016C42.378269793102035,177.89545343196016,42.378269793102035,177.89545343196016,42.378269793102035,177.89545343196016M44.600492015324264,175.67323120973793C44.600492015324264,173.09545343196015,46.86715868199093,172.51767565418237,49.48938090421315,172.38434232084904C50.95604757087982,172.3398978764046,51.48938090421315,173.09545343196015,52.11160312643537,173.9398978764046C52.15604757087982,174.56212009862682,52.20049201532426,175.67323120973793,51.80049201532427,175.80656454307126C50.733825348657604,175.7176756541824,48.55604757087983,176.38434232084904,47.40049201532426,176.29545343196017C47.31160312643537,176.38434232084904,47.31160312643537,176.4287867652935,47.31160312643537,176.4287867652935C47.31160312643537,176.56212009862682,47.844936459768704,176.78434232084905,48.95604757087982,177.09545343196015C49.889380904213155,177.09545343196015,52.02271423754648,177.49545343196016,50.3338253486576,178.07323120973794C49.93382534865759,178.69545343196015,48.82271423754649,178.3398978764046,47.844936459768704,178.3398978764046C46.644936459768715,178.11767565418236,44.600492015324264,177.09545343196015,44.600492015324264,175.67323120973793C44.600492015324264,175.67323120973793,44.600492015324264,175.67323120973793,44.600492015324264,175.67323120973793M49.889380904213155,173.67323120973793C48.91160312643538,173.7621200986268,46.86715868199093,173.89545343196016,47.00049201532427,174.8287867652935C48.06715868199093,174.7398978764046,49.93382534865759,175.0510089875157,50.511603126435375,174.56212009862682C50.28938090421315,173.98434232084904,50.467158681990924,173.98434232084904,49.889380904213155,173.67323120973793C49.889380904213155,173.67323120973793,49.889380904213155,173.67323120973793,49.889380904213155,173.67323120973793M57.889380904213155,172.16212009862681C59.5338253486576,172.4287867652935,60.6449364597687,174.56212009862682,60.6449364597687,177.09545343196015C60.6449364597687,178.51767565418237,59.93382534865759,178.20656454307127,59.267158681990935,177.8510089875157C58.467158681990924,176.51767565418237,59.04493645976871,175.8510089875157,58.28938090421315,174.07323120973794C56.644936459768715,173.49545343196016,55.133825348657595,176.51767565418237,54.20049201532426,176.96212009862683C53.31160312643537,176.8287867652935,52.467158681990924,175.22878676529348,53.267158681990935,174.20656454307127C53.356047570879824,173.67323120973793,53.40049201532426,173.5398978764046,53.756047570879815,172.87323120973792C54.28938090421315,172.51767565418237,54.644936459768715,173.36212009862683,55.04493645976871,173.40656454307126C55.04493645976871,173.40656454307126,57.889380904213155,172.16212009862681,57.889380904213155,172.16212009862681M64.91160312643538,171.5398978764046C65.35604757087984,169.7176756541824,66.46715868199094,165.9398978764046,67.80049201532428,165.58434232084903C67.97826979310206,165.62878676529348,68.86715868199094,166.4287867652935,68.28938090421316,167.18434232084905C67.53382534865761,168.16212009862681,67.00049201532428,169.7176756541824,66.68938090421317,171.80656454307126C67.84493645976872,172.16212009862681,68.91160312643538,171.49545343196016,69.9338253486576,172.0287867652935C70.55604757087983,172.0287867652935,70.91160312643538,172.16212009862681,70.91160312643538,172.4287867652935C70.86715868199094,173.27323120973793,68.95604757087983,173.22878676529348,68.37826979310205,173.4510089875157C67.9338253486576,173.49545343196016,66.33382534865761,173.4510089875157,65.97826979310206,173.89545343196016C65.53382534865761,174.96212009862683,65.80049201532428,176.87323120973792,65.08938090421316,178.25100898751572C64.15604757087984,178.11767565418236,63.93382534865761,178.29545343196017,63.93382534865761,177.36212009862683C63.93382534865761,176.96212009862683,64.0227142375465,175.7621200986268,64.28938090421316,173.7621200986268C63.622714237546504,173.18434232084905,60.689380904213166,174.16212009862681,60.867158681990944,172.56212009862682C61.04493645976872,170.87323120973792,64.0227142375465,172.8287867652935,64.91160312643538,171.5398978764046C64.91160312643538,171.5398978764046,64.91160312643538,171.5398978764046,64.91160312643538,171.5398978764046" style="-webkit-tap-highlight-color: rgba(0, 0, 0, 0);"></path><path fill="none" stroke="#000000" d="M45.45580156321769,53.60304099629341C41.40640349576621,51.56230511088513,49.50519963066917,80.68196679287422,45.45580156321769,154.8379926825803" stroke-width="2" style="-webkit-tap-highlight-color: rgba(0, 0, 0, 0);"></path><path fill="#ffffff" stroke="#000000" d="M100.91160312643538,20C118.28098885516201,16.916803254674974,144.31494661273567,23.083196745325026,177.99152175956107,20C179.33564339941282,32.25071265963935,176.64740011970932,19.634073249978762,177.99152175956107,53.60304099629341C179.5800243225741,56.686237741618434,120.08885289616873,50.51984425096838,100.91160312643538,53.60304099629341C99.56748148658365,44.54912662220509,102.25572476628712,49.11600531313413,100.91160312643538,20" stroke-width="2" style="-webkit-tap-highlight-color: rgba(0, 0, 0, 0);"></path><rect x="110.91160312643538" y="30.59539704135658" width="57.079918633125686" height="12.412246913580244" rx="0" ry="0" fill="#ffffff" stroke="none" style="-webkit-tap-highlight-color: rgba(0, 0, 0, 0);"></rect><path fill="#000000" stroke="none" d="M111.48117254448545,42.63984148580103C111.17006143337434,42.50650815246769,110.50339476670766,41.839841485801024,111.25895032226322,41.66206370802325C114.28117254448543,40.99539704135658,116.54783921115211,40.23984148580102,118.10339476670765,39.66206370802325C120.37006143337433,38.817619263578806,119.836728100041,38.150952596912134,118.236728100041,37.306508152467686C116.19228365559655,36.19539704135658,114.59228365559656,35.97317481913436,112.85895032226321,34.46206370802325C111.39228365559654,33.17317481913436,110.63672810004098,32.906508152467694,111.7478392111521,31.88428593024547C113.39228365559654,30.99539704135658,117.03672810004099,30.59539704135658,119.79228365559655,30.59539704135658C121.08117254448544,30.59539704135658,121.7478392111521,30.862063708023246,121.7478392111521,31.395397041356578C121.34783921115212,32.55095259691214,118.99228365559657,31.662063708023247,117.12561698892989,32.0176192635788C116.37006143337433,32.10650815246769,113.92561698892987,32.284285930245474,113.03672810004099,32.72873037468992C114.68117254448543,35.08428593024547,118.90339476670766,35.306508152467686,121.03672810004099,37.66206370802325C121.39228365559654,38.062063708023246,121.5256169889299,38.55095259691214,121.5256169889299,38.99539704135658C121.34783921115212,39.750952596912136,120.50339476670766,40.55095259691214,119.65895032226322,40.50650815246769C118.72561698892989,41.2176192635788,118.90339476670766,40.55095259691214,117.48117254448545,41.26206370802325C116.85895032226321,41.57317481913436,115.65895032226322,41.66206370802325,114.99228365559657,42.150952596912134C113.88117254448545,42.0176192635788,112.81450587781876,42.59539704135658,111.48117254448545,42.63984148580103C111.48117254448545,42.63984148580103,111.48117254448545,42.63984148580103,111.48117254448545,42.63984148580103M121.48117254448545,40.23984148580102C121.48117254448545,37.66206370802325,123.74783921115213,37.08428593024547,126.37006143337433,36.95095259691213C127.836728100041,36.906508152467694,128.37006143337433,37.66206370802325,128.99228365559657,38.50650815246769C129.036728100041,39.12873037468991,129.08117254448544,40.23984148580102,128.68117254448543,40.37317481913436C127.61450587781877,40.284285930245474,125.436728100041,40.95095259691213,124.28117254448546,40.86206370802324C124.19228365559655,40.95095259691213,124.19228365559655,40.99539704135658,124.19228365559655,40.99539704135658C124.19228365559655,41.12873037468991,124.72561698892989,41.35095259691214,125.836728100041,41.66206370802325C126.77006143337434,41.66206370802325,128.90339476670766,42.062063708023246,127.2145058778188,42.63984148580103C126.81450587781879,43.26206370802325,125.70339476670767,42.906508152467694,124.72561698892989,42.906508152467694C123.5256169889299,42.684285930245466,121.48117254448545,41.66206370802325,121.48117254448545,40.23984148580102C121.48117254448545,40.23984148580102,121.48117254448545,40.23984148580102,121.48117254448545,40.23984148580102M126.77006143337434,38.23984148580102C125.79228365559655,38.32873037468991,123.74783921115213,38.46206370802325,123.88117254448545,39.39539704135658C124.94783921115211,39.306508152467686,126.81450587781879,39.6176192635788,127.39228365559657,39.12873037468991C127.17006143337434,38.55095259691214,127.34783921115212,38.55095259691214,126.77006143337434,38.23984148580102C126.77006143337434,38.23984148580102,126.77006143337434,38.23984148580102,126.77006143337434,38.23984148580102M140.1478392111521,37.57317481913436C140.23672810004098,38.55095259691214,140.37006143337433,38.0176192635788,139.52561698892987,38.59539704135658C136.28117254448543,38.284285930245474,132.1478392111521,37.57317481913436,131.79228365559655,41.08428593024547C131.436728100041,41.35095259691214,131.65895032226322,41.97317481913436,131.436728100041,42.684285930245466C130.1478392111521,43.12873037468991,129.65895032226322,42.284285930245474,129.97006143337433,40.63984148580103C130.23672810004098,39.26206370802325,130.28117254448543,37.57317481913436,131.39228365559654,38.19539704135658C133.97006143337433,36.55095259691214,134.32561698892988,36.32873037468991,139.17006143337431,37.35095259691214C139.30339476670764,37.57317481913436,139.836728100041,37.528730374689914,140.1478392111521,37.57317481913436C140.1478392111521,37.57317481913436,140.1478392111521,37.57317481913436,140.1478392111521,37.57317481913436M140.636728100041,37.12873037468991C140.636728100041,37.12873037468991,142.94783921115211,40.284285930245474,142.94783921115211,40.284285930245474C144.8145058778188,39.57317481913436,146.05895032226323,37.88428593024547,148.45895032226323,37.395397041356574C148.68117254448546,37.57317481913436,148.8145058778188,37.70650815246769,148.8145058778188,37.88428593024547C148.45895032226323,38.72873037468992,148.636728100041,38.23984148580102,147.34783921115212,39.306508152467686C147.34783921115212,39.35095259691214,147.30339476670767,39.439841485801026,147.30339476670767,39.528730374689914C144.59228365559656,41.528730374689914,143.17006143337434,42.55095259691214,142.99228365559657,42.55095259691214C141.2145058778188,41.88428593024547,140.77006143337434,39.35095259691214,139.97006143337435,38.10650815246769C140.236728100041,37.48428593024547,140.41450587781878,37.12873037468991,140.636728100041,37.12873037468991C140.636728100041,37.12873037468991,140.636728100041,37.12873037468991,140.636728100041,37.12873037468991M149.25895032226322,40.23984148580102C149.25895032226322,37.66206370802325,151.5256169889299,37.08428593024547,154.1478392111521,36.95095259691213C155.61450587781877,36.906508152467694,156.1478392111521,37.66206370802325,156.77006143337434,38.50650815246769C156.81450587781876,39.12873037468991,156.8589503222632,40.23984148580102,156.4589503222632,40.37317481913436C155.39228365559654,40.284285930245474,153.21450587781877,40.95095259691213,152.05895032226323,40.86206370802324C151.97006143337433,40.95095259691213,151.97006143337433,40.99539704135658,151.97006143337433,40.99539704135658C151.97006143337433,41.12873037468991,152.50339476670766,41.35095259691214,153.61450587781877,41.66206370802325C154.5478392111521,41.66206370802325,156.68117254448543,42.062063708023246,154.99228365559657,42.63984148580103C154.59228365559656,43.26206370802325,153.48117254448545,42.906508152467694,152.50339476670766,42.906508152467694C151.30339476670767,42.684285930245466,149.25895032226322,41.66206370802325,149.25895032226322,40.23984148580102C149.25895032226322,40.23984148580102,149.25895032226322,40.23984148580102,149.25895032226322,40.23984148580102M154.5478392111521,38.23984148580102C153.57006143337432,38.32873037468991,151.5256169889299,38.46206370802325,151.65895032226322,39.39539704135658C152.7256169889299,39.306508152467686,154.59228365559656,39.6176192635788,155.17006143337434,39.12873037468991C154.94783921115211,38.55095259691214,155.1256169889299,38.55095259691214,154.5478392111521,38.23984148580102C154.5478392111521,38.23984148580102,154.5478392111521,38.23984148580102,154.5478392111521,38.23984148580102M167.92561698892987,37.57317481913436C168.01450587781875,38.55095259691214,168.1478392111521,38.0176192635788,167.30339476670764,38.59539704135658C164.0589503222632,38.284285930245474,159.92561698892987,37.57317481913436,159.57006143337432,41.08428593024547C159.21450587781877,41.35095259691214,159.436728100041,41.97317481913436,159.21450587781877,42.684285930245466C157.92561698892987,43.12873037468991,157.436728100041,42.284285930245474,157.7478392111521,40.63984148580103C158.01450587781875,39.26206370802325,158.0589503222632,37.57317481913436,159.17006143337431,38.19539704135658C161.7478392111521,36.55095259691214,162.10339476670765,36.32873037468991,166.9478392111521,37.35095259691214C167.0811725444854,37.57317481913436,167.61450587781877,37.528730374689914,167.92561698892987,37.57317481913436C167.92561698892987,37.57317481913436,167.92561698892987,37.57317481913436,167.92561698892987,37.57317481913436" style="-webkit-tap-highlight-color: rgba(0, 0, 0, 0);"></path><path fill="#ffffff" stroke="#000000" d="M100.91160312643538,154.8379926825803C151.60844670424677,157.92118942790535,159.908863503837,151.75479593725527,177.99152175956107,154.8379926825803C176.64740011970932,155.85556550369995,179.33564339941282,169.8182278143272,177.99152175956107,188.4410336788737C166.0360595649047,185.35783693354867,130.25648180431386,191.52423042419875,100.91160312643538,188.4410336788737C102.25572476628712,164.79281529671468,99.56748148658365,179.16663572549282,100.91160312643538,154.8379926825803" stroke-width="2" style="-webkit-tap-highlight-color: rgba(0, 0, 0, 0);"></path><rect x="110.91160312643538" y="165.4333897239369" width="57.079918633125686" height="12.41224691358022" rx="0" ry="0" fill="#ffffff" stroke="none" style="-webkit-tap-highlight-color: rgba(0, 0, 0, 0);"></rect><path fill="#000000" stroke="none" d="M111.48117254448545,177.47783416838135C111.17006143337434,177.344500835048,110.50339476670766,176.67783416838134,111.25895032226322,176.50005639060356C114.28117254448543,175.8333897239369,116.54783921115211,175.07783416838134,118.10339476670765,174.50005639060356C120.37006143337433,173.65561194615913,119.836728100041,172.98894527949244,118.236728100041,172.144500835048C116.19228365559655,171.0333897239369,114.59228365559656,170.81116750171466,112.85895032226321,169.30005639060357C111.39228365559654,168.01116750171468,110.63672810004098,167.744500835048,111.7478392111521,166.7222786128258C113.39228365559654,165.8333897239369,117.03672810004099,165.4333897239369,119.79228365559655,165.4333897239369C121.08117254448544,165.4333897239369,121.7478392111521,165.70005639060355,121.7478392111521,166.2333897239369C121.34783921115212,167.38894527949245,118.99228365559657,166.50005639060356,117.12561698892989,166.85561194615912C116.37006143337433,166.94450083504802,113.92561698892987,167.1222786128258,113.03672810004099,167.56672305727022C114.68117254448543,169.92227861282578,118.90339476670766,170.144500835048,121.03672810004099,172.50005639060356C121.39228365559654,172.90005639060357,121.5256169889299,173.38894527949245,121.5256169889299,173.8333897239369C121.34783921115212,174.58894527949246,120.50339476670766,175.38894527949245,119.65895032226322,175.344500835048C118.72561698892989,176.05561194615913,118.90339476670766,175.38894527949245,117.48117254448545,176.10005639060356C116.85895032226321,176.4111675017147,115.65895032226322,176.50005639060356,114.99228365559657,176.98894527949244C113.88117254448545,176.85561194615912,112.81450587781876,177.4333897239369,111.48117254448545,177.47783416838135C111.48117254448545,177.47783416838135,111.48117254448545,177.47783416838135,111.48117254448545,177.47783416838135M121.48117254448545,175.07783416838134C121.48117254448545,172.50005639060356,123.74783921115213,171.92227861282578,126.37006143337433,171.78894527949245C127.836728100041,171.744500835048,128.37006143337433,172.50005639060356,128.99228365559657,173.344500835048C129.036728100041,173.96672305727023,129.08117254448544,175.07783416838134,128.68117254448543,175.21116750171467C127.61450587781877,175.1222786128258,125.436728100041,175.78894527949245,124.28117254448546,175.70005639060358C124.19228365559655,175.78894527949245,124.19228365559655,175.8333897239369,124.19228365559655,175.8333897239369C124.19228365559655,175.96672305727023,124.72561698892989,176.18894527949246,125.836728100041,176.50005639060356C126.77006143337434,176.50005639060356,128.90339476670766,176.90005639060357,127.2145058778188,177.47783416838135C126.81450587781879,178.10005639060356,125.70339476670767,177.744500835048,124.72561698892989,177.744500835048C123.5256169889299,177.52227861282577,121.48117254448545,176.50005639060356,121.48117254448545,175.07783416838134C121.48117254448545,175.07783416838134,121.48117254448545,175.07783416838134,121.48117254448545,175.07783416838134M126.77006143337434,173.07783416838134C125.79228365559655,173.16672305727022,123.74783921115213,173.30005639060357,123.88117254448545,174.2333897239369C124.94783921115211,174.144500835048,126.81450587781879,174.4556119461591,127.39228365559657,173.96672305727023C127.17006143337434,173.38894527949245,127.34783921115212,173.38894527949245,126.77006143337434,173.07783416838134C126.77006143337434,173.07783416838134,126.77006143337434,173.07783416838134,126.77006143337434,173.07783416838134M140.1478392111521,172.4111675017147C140.23672810004098,173.38894527949245,140.37006143337433,172.85561194615912,139.52561698892987,173.4333897239369C136.28117254448543,173.1222786128258,132.1478392111521,172.4111675017147,131.79228365559655,175.92227861282578C131.436728100041,176.18894527949246,131.65895032226322,176.81116750171466,131.436728100041,177.52227861282577C130.1478392111521,177.96672305727023,129.65895032226322,177.1222786128258,129.97006143337433,175.47783416838135C130.23672810004098,174.10005639060356,130.28117254448543,172.4111675017147,131.39228365559654,173.0333897239369C133.97006143337433,171.38894527949245,134.32561698892988,171.16672305727022,139.17006143337431,172.18894527949246C139.30339476670764,172.4111675017147,139.836728100041,172.36672305727024,140.1478392111521,172.4111675017147C140.1478392111521,172.4111675017147,140.1478392111521,172.4111675017147,140.1478392111521,172.4111675017147M140.636728100041,171.96672305727023C140.636728100041,171.96672305727023,142.94783921115211,175.1222786128258,142.94783921115211,175.1222786128258C144.8145058778188,174.4111675017147,146.05895032226323,172.7222786128258,148.45895032226323,172.2333897239369C148.68117254448546,172.4111675017147,148.8145058778188,172.544500835048,148.8145058778188,172.7222786128258C148.45895032226323,173.56672305727022,148.636728100041,173.07783416838134,147.34783921115212,174.144500835048C147.34783921115212,174.18894527949246,147.30339476670767,174.27783416838133,147.30339476670767,174.36672305727024C144.59228365559656,176.36672305727024,143.17006143337434,177.38894527949245,142.99228365559657,177.38894527949245C141.2145058778188,176.7222786128258,140.77006143337434,174.18894527949246,139.97006143337435,172.94450083504802C140.236728100041,172.32227861282578,140.41450587781878,171.96672305727023,140.636728100041,171.96672305727023C140.636728100041,171.96672305727023,140.636728100041,171.96672305727023,140.636728100041,171.96672305727023M149.25895032226322,175.07783416838134C149.25895032226322,172.50005639060356,151.5256169889299,171.92227861282578,154.1478392111521,171.78894527949245C155.61450587781877,171.744500835048,156.1478392111521,172.50005639060356,156.77006143337434,173.344500835048C156.81450587781876,173.96672305727023,156.8589503222632,175.07783416838134,156.4589503222632,175.21116750171467C155.39228365559654,175.1222786128258,153.21450587781877,175.78894527949245,152.05895032226323,175.70005639060358C151.97006143337433,175.78894527949245,151.97006143337433,175.8333897239369,151.97006143337433,175.8333897239369C151.97006143337433,175.96672305727023,152.50339476670766,176.18894527949246,153.61450587781877,176.50005639060356C154.5478392111521,176.50005639060356,156.68117254448543,176.90005639060357,154.99228365559657,177.47783416838135C154.59228365559656,178.10005639060356,153.48117254448545,177.744500835048,152.50339476670766,177.744500835048C151.30339476670767,177.52227861282577,149.25895032226322,176.50005639060356,149.25895032226322,175.07783416838134C149.25895032226322,175.07783416838134,149.25895032226322,175.07783416838134,149.25895032226322,175.07783416838134M154.5478392111521,173.07783416838134C153.57006143337432,173.16672305727022,151.5256169889299,173.30005639060357,151.65895032226322,174.2333897239369C152.7256169889299,174.144500835048,154.59228365559656,174.4556119461591,155.17006143337434,173.96672305727023C154.94783921115211,173.38894527949245,155.1256169889299,173.38894527949245,154.5478392111521,173.07783416838134C154.5478392111521,173.07783416838134,154.5478392111521,173.07783416838134,154.5478392111521,173.07783416838134M167.92561698892987,172.4111675017147C168.01450587781875,173.38894527949245,168.1478392111521,172.85561194615912,167.30339476670764,173.4333897239369C164.0589503222632,173.1222786128258,159.92561698892987,172.4111675017147,159.57006143337432,175.92227861282578C159.21450587781877,176.18894527949246,159.436728100041,176.81116750171466,159.21450587781877,177.52227861282577C157.92561698892987,177.96672305727023,157.436728100041,177.1222786128258,157.7478392111521,175.47783416838135C158.01450587781875,174.10005639060356,158.0589503222632,172.4111675017147,159.17006143337431,173.0333897239369C161.7478392111521,171.38894527949245,162.10339476670765,171.16672305727022,166.9478392111521,172.18894527949246C167.0811725444854,172.4111675017147,167.61450587781877,172.36672305727024,167.92561698892987,172.4111675017147C167.92561698892987,172.4111675017147,167.92561698892987,172.4111675017147,167.92561698892987,172.4111675017147" style="-webkit-tap-highlight-color: rgba(0, 0, 0, 0);"></path><path fill="none" stroke="#000000" d="M139.45156244299824,53.60304099629341C143.50096051044972,68.9570677836634,135.40216437554676,154.34213040059242,139.45156244299824,154.8379926825803" stroke-width="2" style="-webkit-tap-highlight-color: rgba(0, 0, 0, 0);"></path><rect x="77.32034866977463" y="68.29430307472167" width="30.26666666666665" height="20.617475843143467" rx="0" ry="0" fill="#ffffff" stroke="none" style="-webkit-tap-highlight-color: rgba(0, 0, 0, 0);"></rect><path fill="#000000" stroke="none" d="M80.12034866977461,70.83538266078955C79.80923755866351,70.30204932745622,78.52034866977462,71.54649377190066,77.94257089199684,71.67982710523401C77.76479311421906,71.67982710523401,77.54257089199683,71.45760488301178,77.32034866977463,70.92427154967845C78.25368200310794,68.83538266078955,82.3870153364413,68.479827105234,84.96479311421905,68.30204932745622C86.78701533644127,68.16871599412289,90.83145978088572,69.76871599412289,89.36479311421905,72.16871599412289C88.43145978088572,73.67982710523401,86.16479311421907,74.7909382163451,82.96479311421905,75.72427154967843C82.87590422533017,76.43538266078954,79.45368200310796,75.85760488301179,79.67590422533019,77.76871599412289C79.80923755866351,78.879827105234,79.45368200310796,79.85760488301179,79.23145978088573,80.7909382163451C78.25368200310794,80.74649377190067,78.20923755866352,79.50204932745623,78.25368200310794,78.30204932745622C78.34257089199684,77.1909382163451,77.36479311421905,76.879827105234,77.89812644755239,76.07982710523399C78.83145978088572,75.85760488301179,78.34257089199684,74.52427154967845,79.0092375586635,73.54649377190066C79.27590422533018,72.30204932745622,79.63145978088573,71.41316043856733,80.12034866977461,70.83538266078955C80.12034866977461,70.83538266078955,80.12034866977461,70.83538266078955,80.12034866977461,70.83538266078955M80.16479311421907,70.65760488301177C82.25368200310794,71.279827105234,80.07590422533016,72.879827105234,80.12034866977461,75.05760488301178C81.94257089199684,74.92427154967845,85.14257089199683,73.41316043856733,87.80923755866351,71.67982710523401C88.03145978088574,71.279827105234,88.16479311421907,71.05760488301178,88.16479311421907,71.01316043856733C86.92034866977463,68.92427154967845,82.6092375586635,69.72427154967843,80.16479311421907,70.65760488301177C80.16479311421907,70.65760488301177,80.16479311421907,70.65760488301177,80.16479311421907,70.65760488301177M90.96479311421908,71.54649377190066C91.27590422533018,72.34649377190067,91.36479311421905,72.5687159941229,90.74257089199685,73.23538266078955C89.72034866977461,72.96871599412287,89.80923755866351,72.43538266078954,90.25368200310797,71.63538266078956C90.34257089199684,71.63538266078956,90.60923755866352,71.59093821634511,90.96479311421908,71.54649377190066C90.96479311421908,71.54649377190066,90.96479311421908,71.54649377190066,90.96479311421908,71.54649377190066M89.72034866977461,80.52427154967845C88.92034866977463,79.59093821634511,89.36479311421905,77.279827105234,89.67590422533019,75.81316043856734C89.98701533644129,75.36871599412288,90.56479311421907,75.45760488301178,90.6981264475524,76.07982710523399C90.65368200310795,77.67982710523401,91.0092375586635,79.279827105234,90.60923755866352,80.70204932745622C90.25368200310797,80.7909382163451,90.25368200310797,80.70204932745622,89.72034866977461,80.52427154967845C89.72034866977461,80.52427154967845,89.72034866977461,80.52427154967845,89.72034866977461,80.52427154967845M97.14257089199685,74.7909382163451C98.7870153364413,75.05760488301178,99.89812644755239,77.1909382163451,99.89812644755239,79.72427154967843C99.89812644755239,81.14649377190068,99.18701533644128,80.83538266078955,98.52034866977462,80.479827105234C97.72034866977461,79.14649377190068,98.29812644755239,78.479827105234,97.54257089199683,76.70204932745622C95.89812644755241,76.12427154967844,94.3870153364413,79.14649377190068,93.45368200310796,79.59093821634511C92.56479311421907,79.45760488301178,91.72034866977461,77.85760488301179,92.52034866977462,76.83538266078955C92.60923755866352,76.30204932745622,92.65368200310795,76.16871599412289,93.0092375586635,75.50204932745623C93.54257089199683,75.14649377190068,93.89812644755241,75.99093821634511,94.29812644755239,76.03538266078957C94.29812644755239,76.03538266078957,97.14257089199685,74.7909382163451,97.14257089199685,74.7909382163451M106.25368200310794,76.52427154967845C107.58701533644128,77.72427154967843,107.18701533644128,79.85760488301179,107.58701533644128,81.72427154967843C107.05368200310795,83.10204932745623,107.0981264475524,84.65760488301177,105.98701533644129,86.30204932745622C104.56479311421907,88.34649377190067,101.32034866977463,89.99093821634511,98.56479311421907,88.03538266078957C97.18701533644128,87.10204932745623,96.3870153364413,86.74649377190067,96.29812644755239,84.70204932745622C96.20923755866352,83.05760488301178,99.72034866977461,82.479827105234,101.67590422533019,82.16871599412289C103.32034866977463,81.90204932745621,104.6981264475524,81.72427154967843,105.89812644755239,81.67982710523401C106.20923755866352,81.41316043856733,106.03145978088574,80.25760488301177,106.07590422533016,79.63538266078956C106.07590422533016,79.63538266078956,106.03145978088574,79.67982710523401,106.03145978088574,79.72427154967843C106.03145978088574,78.92427154967845,105.80923755866351,78.34649377190067,105.4092375586635,77.72427154967843C103.45368200310796,77.94649377190066,101.89812644755239,78.61316043856732,101.23145978088573,76.92427154967845C101.36479311421905,74.52427154967845,104.47590422533017,74.52427154967845,106.7870153364413,74.70204932745622C107.32034866977463,75.01316043856733,107.32034866977463,75.279827105234,106.96479311421908,75.81316043856734C105.63145978088573,75.32427154967846,103.58701533644128,76.16871599412289,102.96479311421908,76.70204932745622C103.98701533644129,76.83538266078955,105.18701533644128,75.99093821634511,106.25368200310794,76.52427154967845C106.25368200310794,76.52427154967845,106.25368200310794,76.52427154967845,106.25368200310794,76.52427154967845M98.87590422533017,86.21316043856734C101.54257089199683,88.5687159941229,106.34257089199684,86.25760488301177,105.94257089199684,82.39093821634512C103.85368200310796,82.07982710523399,101.80923755866351,83.45760488301178,99.63145978088573,83.72427154967843C99.0981264475524,84.03538266078957,97.63145978088573,84.5687159941229,97.76479311421906,85.01316043856733C97.76479311421906,85.45760488301178,98.12034866977461,85.85760488301179,98.87590422533017,86.21316043856734C98.87590422533017,86.21316043856734,98.87590422533017,86.21316043856734,98.87590422533017,86.21316043856734" style="-webkit-tap-highlight-color: rgba(0, 0, 0, 0);"></path><path fill="none" stroke="#000000" d="M45.45580156321769,94.22051683943687C62.743229141146976,97.87616252013731,77.26306133820312,90.86876455577706,134.45653932353972,93.93346519071854" stroke-width="2" marker-end="url(#raphael-marker-endblock55-obj984)" stroke-dasharray="0" style="-webkit-tap-highlight-color: rgba(0, 0, 0, 0);"></path><rect x="74.27590422533018" y="108.91177891786513" width="36.355555555555554" height="20.617475843143453" rx="0" ry="0" fill="#ffffff" stroke="none" style="-webkit-tap-highlight-color: rgba(0, 0, 0, 0);"></rect><path fill="#000000" stroke="none" d="M77.07590422533019,111.45285850393302C76.76479311421906,110.91952517059968,75.47590422533017,112.16396961504412,74.89812644755241,112.29730294837748C74.72034866977464,112.29730294837748,74.49812644755241,112.07508072615525,74.27590422533018,111.54174739282192C75.20923755866352,109.45285850393302,79.34257089199684,109.09730294837746,81.92034866977463,108.91952517059968C83.74257089199685,108.78619183726636,87.7870153364413,110.38619183726635,86.32034866977463,112.78619183726636C85.3870153364413,114.29730294837748,83.12034866977461,115.40841405948856,79.92034866977463,116.3417473928219C79.83145978088575,117.05285850393301,76.4092375586635,116.47508072615526,76.63145978088573,118.38619183726635C76.76479311421906,119.49730294837747,76.4092375586635,120.47508072615526,76.1870153364413,121.40841405948856C75.20923755866352,121.36396961504414,75.16479311421907,120.1195251705997,75.20923755866352,118.91952517059968C75.29812644755239,117.80841405948857,74.32034866977463,117.49730294837747,74.85368200310796,116.69730294837746C75.7870153364413,116.47508072615526,75.29812644755239,115.14174739282191,75.96479311421908,114.16396961504412C76.23145978088573,112.91952517059968,76.58701533644128,112.0306362817108,77.07590422533019,111.45285850393302C77.07590422533019,111.45285850393302,77.07590422533019,111.45285850393302,77.07590422533019,111.45285850393302M77.12034866977461,111.27508072615524C79.20923755866352,111.89730294837747,77.03145978088574,113.49730294837747,77.07590422533019,115.67508072615524C78.89812644755241,115.54174739282192,82.0981264475524,114.0306362817108,84.76479311421906,112.29730294837748C84.98701533644129,111.89730294837747,85.12034866977461,111.67508072615524,85.12034866977461,111.63063628171079C83.87590422533017,109.54174739282192,79.56479311421907,110.3417473928219,77.12034866977461,111.27508072615524C77.12034866977461,111.27508072615524,77.12034866977461,111.27508072615524,77.12034866977461,111.27508072615524M89.96479311421908,115.27508072615524C92.27590422533018,114.20841405948858,94.58701533644128,116.07508072615525,94.58701533644128,118.07508072615525C94.58701533644128,120.69730294837746,91.65368200310797,121.05285850393301,89.52034866977462,121.76396961504415C87.20923755866352,121.67508072615524,84.4092375586635,119.54174739282192,85.96479311421908,117.09730294837746C86.98701533644129,116.29730294837748,88.27590422533018,115.54174739282192,89.96479311421908,115.27508072615524C89.96479311421908,115.27508072615524,89.96479311421908,115.27508072615524,89.96479311421908,115.27508072615524M87.16479311421907,118.78619183726636C87.87590422533017,121.18619183726636,92.72034866977464,119.49730294837747,92.98701533644129,117.76396961504415C92.45368200310796,115.14174739282191,87.25368200310797,117.40841405948856,87.16479311421907,118.78619183726636C87.16479311421907,118.78619183726636,87.16479311421907,118.78619183726636,87.16479311421907,118.78619183726636M100.1870153364413,115.40841405948856C101.83145978088575,115.67508072615524,102.94257089199687,117.80841405948857,102.94257089199687,120.3417473928219C102.94257089199687,121.76396961504415,102.23145978088573,121.45285850393302,101.56479311421907,121.09730294837746C100.76479311421909,119.76396961504415,101.34257089199684,119.09730294837746,100.58701533644128,117.31952517059969C98.94257089199687,116.7417473928219,97.43145978088575,119.76396961504415,96.49812644755241,120.20841405948858C95.60923755866352,120.07508072615525,94.76479311421906,118.47508072615526,95.56479311421907,117.45285850393302C95.65368200310797,116.91952517059968,95.6981264475524,116.78619183726636,96.05368200310795,116.1195251705997C96.58701533644128,115.76396961504415,96.94257089199687,116.60841405948858,97.34257089199684,116.65285850393303C97.34257089199684,116.65285850393303,100.1870153364413,115.40841405948856,100.1870153364413,115.40841405948856M109.29812644755242,117.14174739282191C110.63145978088573,118.3417473928219,110.23145978088576,120.47508072615526,110.63145978088573,122.3417473928219C110.0981264475524,123.7195251705997,110.14257089199685,125.27508072615524,109.03145978088574,126.91952517059968C107.60923755866352,128.96396961504414,104.36479311421908,130.60841405948858,101.60923755866352,128.65285850393303C100.23145978088573,127.7195251705997,99.43145978088575,127.36396961504414,99.34257089199684,125.31952517059969C99.25368200310797,123.67508072615524,102.76479311421906,123.09730294837746,104.72034866977464,122.78619183726636C106.36479311421908,122.51952517059968,107.74257089199685,122.3417473928219,108.94257089199687,122.29730294837748C109.25368200310797,122.0306362817108,109.07590422533019,120.87508072615523,109.12034866977464,120.25285850393303C109.12034866977464,120.25285850393303,109.07590422533019,120.29730294837748,109.07590422533019,120.3417473928219C109.07590422533019,119.54174739282192,108.85368200310796,118.96396961504414,108.45368200310796,118.3417473928219C106.49812644755241,118.56396961504413,104.94257089199684,119.23063628171079,104.27590422533018,117.54174739282192C104.4092375586635,115.14174739282191,107.52034866977465,115.14174739282191,109.83145978088575,115.31952517059969C110.36479311421908,115.63063628171079,110.36479311421908,115.89730294837747,110.00923755866353,116.4306362817108C108.67590422533019,115.94174739282192,106.63145978088573,116.78619183726636,106.00923755866353,117.31952517059969C107.03145978088574,117.45285850393302,108.23145978088576,116.60841405948858,109.29812644755242,117.14174739282191C109.29812644755242,117.14174739282191,109.29812644755242,117.14174739282191,109.29812644755242,117.14174739282191M101.92034866977463,126.83063628171081C104.58701533644128,129.18619183726636,109.3870153364413,126.87508072615523,108.98701533644129,123.00841405948859C106.89812644755241,122.69730294837746,104.85368200310796,124.07508072615525,102.67590422533019,124.3417473928219C102.14257089199685,124.65285850393303,100.67590422533019,125.18619183726636,100.80923755866351,125.63063628171079C100.80923755866351,126.07508072615525,101.16479311421907,126.47508072615526,101.92034866977463,126.83063628171081C101.92034866977463,126.83063628171081,101.92034866977463,126.83063628171081,101.92034866977463,126.83063628171081" style="-webkit-tap-highlight-color: rgba(0, 0, 0, 0);"></path><path fill="none" stroke="#000000" d="M139.45156244299824,134.8379926825803C56.97567782267798,138.51291483767992,119.51788554766867,131.4120429146975,50.45689284845474,134.6002653860947" stroke-width="2" marker-end="url(#raphael-marker-endblock55-obj987)" stroke-dasharray="0" style="-webkit-tap-highlight-color: rgba(0, 0, 0, 0);"></path></svg>